<svg xmlns="http://www.w3.org/2000/svg" xmlns:xlink="http://www.w3.org/1999/xlink" viewBox="0 0 396.5 929.7"><defs><linearGradient id="a" x1="18.28" y1="474.81" x2="397.78" y2="474.81" gradientTransform="translate(-39.2 19.4) rotate(-4.9)" gradientUnits="userSpaceOnUse"><stop offset="0" stop-color="#fff"/><stop offset="0" stop-color="#666"/><stop offset="0.98" stop-color="#fff"/></linearGradient><linearGradient id="b" x1="92.02" y1="538" x2="164.28" y2="538" xlink:href="#a"/><linearGradient id="c" x1="174.01" y1="654.33" x2="210.97" y2="654.33" xlink:href="#a"/><linearGradient id="d" x1="124.53" y1="146.96" x2="163.35" y2="146.96" xlink:href="#a"/><linearGradient id="e" x1="197.09" y1="784.36" x2="228.63" y2="784.36" xlink:href="#a"/><linearGradient id="f" x1="140.3" y1="150.88" x2="152.96" y2="150.88" xlink:href="#a"/><linearGradient id="g" x1="159.71" y1="517.97" x2="178.96" y2="517.97" xlink:href="#a"/><linearGradient id="h" x1="118.68" y1="139.98" x2="131.71" y2="139.98" xlink:href="#a"/><linearGradient id="i" x1="366.66" y1="465.32" x2="376.89" y2="465.32" xlink:href="#a"/><linearGradient id="j" x1="187.66" y1="28.15" x2="194.22" y2="28.15" xlink:href="#a"/><linearGradient id="k" x1="104.61" y1="126.25" x2="107.89" y2="126.25" xlink:href="#a"/><linearGradient id="l" x1="345.14" y1="497.68" x2="350.41" y2="497.68" xlink:href="#a"/><linearGradient id="m" x1="296.25" y1="747.72" x2="302.27" y2="747.72" xlink:href="#a"/><linearGradient id="n" x1="251.58" y1="4.12" x2="258.03" y2="4.12" xlink:href="#a"/><linearGradient id="o" x1="233.7" y1="840.48" x2="235.66" y2="840.48" xlink:href="#a"/><linearGradient id="p" x1="184.39" y1="484.41" x2="193.17" y2="484.41" xlink:href="#a"/><linearGradient id="q" x1="145.16" y1="226.95" x2="147.34" y2="226.95" xlink:href="#a"/><linearGradient id="r" x1="136.04" y1="462.53" x2="138.89" y2="462.53" xlink:href="#a"/><linearGradient id="s" x1="337.35" y1="332.84" x2="339.87" y2="332.84" xlink:href="#a"/><linearGradient id="t" x1="185.69" y1="379.48" x2="279.73" y2="379.48" xlink:href="#a"/><linearGradient id="u" x1="228.72" y1="474.51" x2="247.36" y2="474.51" xlink:href="#a"/><linearGradient id="v" x1="153.85" y1="366.74" x2="169.35" y2="366.74" xlink:href="#a"/><linearGradient id="w" x1="280.12" y1="457.89" x2="306.42" y2="457.89" xlink:href="#a"/><linearGradient id="x" x1="201.75" y1="494.84" x2="232.79" y2="494.84" xlink:href="#a"/><linearGradient id="y" x1="257.43" y1="485.3" x2="280.22" y2="485.3" xlink:href="#a"/><linearGradient id="z" x1="275.38" y1="470.41" x2="279.51" y2="470.41" xlink:href="#a"/><linearGradient id="aa" x1="165.92" y1="433.85" x2="169.8" y2="433.85" xlink:href="#a"/><linearGradient id="ab" x1="167.59" y1="312.89" x2="171.58" y2="312.89" xlink:href="#a"/><linearGradient id="ac" x1="230.77" y1="501.4" x2="249.57" y2="501.4" xlink:href="#a"/><linearGradient id="ad" x1="191.6" y1="474.09" x2="195.17" y2="474.09" xlink:href="#a"/><linearGradient id="ae" x1="174.74" y1="321.72" x2="180.05" y2="321.72" xlink:href="#a"/><linearGradient id="af" x1="195.41" y1="452.67" x2="207.14" y2="452.67" xlink:href="#a"/><linearGradient id="ag" x1="211.66" y1="461.8" x2="225.76" y2="461.8" xlink:href="#a"/><linearGradient id="ah" x1="218.46" y1="336.8" x2="228.83" y2="336.8" xlink:href="#a"/><linearGradient id="ai" x1="233.81" y1="492.74" x2="236.79" y2="492.74" xlink:href="#a"/><linearGradient id="aj" x1="157.67" y1="388.76" x2="160.89" y2="388.76" xlink:href="#a"/><linearGradient id="ak" x1="195.92" y1="374.95" x2="196.11" y2="374.95" xlink:href="#a"/><linearGradient id="al" x1="256.83" y1="495.73" x2="263.65" y2="495.73" xlink:href="#a"/><linearGradient id="am" x1="280.5" y1="362.16" x2="286.47" y2="362.16" xlink:href="#a"/><linearGradient id="an" x1="271.78" y1="276.64" x2="276.43" y2="276.64" xlink:href="#a"/><linearGradient id="ao" x1="232.92" y1="296.74" x2="237.76" y2="296.74" xlink:href="#a"/><linearGradient id="ap" x1="193.34" y1="280.63" x2="207.7" y2="280.63" xlink:href="#a"/><linearGradient id="aq" x1="298.08" y1="436.14" x2="302.04" y2="436.14" xlink:href="#a"/><linearGradient id="ar" x1="299.32" y1="318.07" x2="303.45" y2="318.07" xlink:href="#a"/><linearGradient id="as" x1="303.44" y1="388.57" x2="306.91" y2="388.57" xlink:href="#a"/><linearGradient id="at" x1="272.18" y1="331.11" x2="277.44" y2="331.11" xlink:href="#a"/><linearGradient id="au" x1="284.47" y1="390.17" x2="285.1" y2="390.17" xlink:href="#a"/><linearGradient id="av" x1="57.69" y1="212.59" x2="65.17" y2="212.59" xlink:href="#a"/><linearGradient id="aw" x1="97.36" y1="265.22" x2="104.2" y2="265.22" xlink:href="#a"/><linearGradient id="ax" x1="137.98" y1="202.4" x2="145.12" y2="202.4" xlink:href="#a"/><linearGradient id="ay" x1="373.94" y1="489.28" x2="383.03" y2="489.28" xlink:href="#a"/><linearGradient id="az" x1="192.28" y1="280.33" x2="197.03" y2="280.33" xlink:href="#a"/><linearGradient id="ba" x1="241.43" y1="839.68" x2="340.98" y2="839.68" xlink:href="#a"/><linearGradient id="bb" x1="144.09" y1="470.9" x2="146.91" y2="470.9" xlink:href="#a"/><linearGradient id="bc" x1="343.82" y1="342.65" x2="346.87" y2="342.65" xlink:href="#a"/><linearGradient id="bd" x1="98.49" y1="210" x2="103.45" y2="210" xlink:href="#a"/><linearGradient id="be" x1="187.42" y1="668.08" x2="194.15" y2="668.08" xlink:href="#a"/><linearGradient id="bf" x1="230.97" y1="371.64" x2="234.53" y2="371.64" xlink:href="#a"/><linearGradient id="bg" x1="331.7" y1="827.27" x2="336.48" y2="827.27" xlink:href="#a"/></defs><title>clocks</title><path d="M256.7,727.3c1.9,2.8,1.6,5.9.8,9-.4,1.3-.9,2.6-.1,4.2.1-.5.1-1.2.3-1.3s.6.7.7,1.1c1.8,6.3,4.3,12.3,5.9,18.8.3,1.3.1,3.3,2.1,3.1s1.8-2.1,1.8-3.7a40.7,40.7,0,0,1,.6-6.2c.4-2.4,1.2-.8,1.9-.3l-1.1,2.6a7.3,7.3,0,0,0-.6,5.6c.7,1.8,2.1.1,3.3.3s2.2.1,3.4.3,2.3-.6,2.5-2.7c.3-4,.8-8,1.2-12,.1-1.3.8-3.3-.3-3.7a3.1,3.1,0,0,0-3.9,1.3l-3.9,5.5c.6-4.8,3-7.3,6.5-8.1,1.8-.4,2.3-1.5,2.4-3.6a35.4,35.4,0,0,1,.7-4.7,6.7,6.7,0,0,0-.7-5.5c-2.2-4.1-1.1-8,2.5-9a5.6,5.6,0,0,0,0,7.5c1,1.3,3.1,1.4,4.4-.6a4.1,4.1,0,0,1-.3,3.8c-1.1,1.6-1.2,3.6-1.6,5.4-.8,4.1-.2,3.5,2.8,4.4,5.5,1.6,6.3-4.8,9.3-7.5.4-.4,0-1.4-.2-2.1-2.2-8.5-2.8-17.5-5.3-26-.4-1.3-.5-2.7-1.7-3.3-6.3-2.9-8.9-9.7-10.8-17.2a62.5,62.5,0,0,1-.4-28.2c.4-2.1-.7-3.3-1.2-4.8-3.1-8-5.3-16.3-5.1-25.2a45.3,45.3,0,0,0-1.2-12.7c-.4-1.5-.6-3.2,1.1-3.9s.7-1.1.5-1.9-.9-.2-1.3.1-1.6-.1-2.1-1.5a69.4,69.4,0,0,1-2.8-11.1c-.6-3.3-1-6.8-3-9.2-4.4-5.2-5.1-12-5.6-18.8-.3-3.2-.8-6.4-.4-9.6.2-1.1-.1-1.6-1.1-1.5-3.5.4-7,.6-10.5-.6-1.5-.4-2.4.1-2.1,2.5s-.6,5.3-2.1,6.5c-3.3,2.8-6.3,6.3-10.1,8.1a5.8,5.8,0,0,0-3.2,4.5c-1.1,5.5-2.2,11.1-3.4,16.6a8.8,8.8,0,0,0,.3,4.3c1.5,6.2,2.6,12.4,1.1,18.7-.6,2.5-1.5,4.7-3.3,6l.3-2.4c3.4-5,2.5-11,1.5-17.1a1.5,1.5,0,0,0-1.1-1.5c-.7-.1-.9.7-1,1.4s-.1,1.5-.3,2.1c-1.3,3.4-.3,7.9-2.9,10.6v-.2c-1.2-1.8-.4-3.7,0-5.2,2.2-7.5,3.1-15.6,5.5-23,1.3-3.9,1.4-8.4,2.1-13.2-3.3,1.5-5.1,4.7-6.4,7.7s.5,7.5,1.1,11.8c-3.9-3.7-4.2-12.9-1.1-17a34.9,34.9,0,0,1,3.2-3.5,6.6,6.6,0,0,0,1.5-7,7.2,7.2,0,0,1,.6-5.8c.6-1.5.4-3.3-.2-3.8-3.2-2.2-.9-4.8-.4-6.8a5,5,0,0,0-.5-3.7c.5.1,1.1.6,1.4.4s3-2,2.9-2.5c-.6-2.8-3.3-2.2-4.8-4.2s-.6,2-1.8,1.5c.8-4.3.6-4.5-3-3.9.3-1.6.3-1.6-2.1-5.6-.5,1.7-.8,3.3.8,4.4-.8-.2-1.7.2-.9,1.1s2.8,4.6,5.1,5.7,1.9,1.8,2.5,3.2a33.4,33.4,0,0,1-12.1-13.3c-2.2-3.9-2-4-5.5-2.5-.2-1.2-.4-2.4-.5-3.6s-.6-1.9-1.7-1.9-1.9-.1-2.1,1.5-.3,3.3-2.1,2.9-2.5-2.1-2.7-4.2.1-1.9-.7-2.2-1.3.7-1.6,1.5-.5,2.9-2.1,1.7a3.3,3.3,0,0,1-1.4-4.2c.3-1.2,1.1-2.5,0-4s-2-1.1-3-.2-1.1.6-1.2-.1-1.1-2.8-.3-4.2a17.3,17.3,0,0,1,1.5-1.9c-2.3-.5-3.6,1.7-5.8,1.6,1.3-1,1.4-3,2.9-3.4a.9.9,0,0,0,.7-1.2,1.7,1.7,0,0,0-1.2-1,5.6,5.6,0,0,0-4.7,1.5,25.2,25.2,0,0,1-9.2,4.4,16.5,16.5,0,0,0,6.3-8.8,35.5,35.5,0,0,1,4.7-.8c1.3,0,1.1-.8,1.3-2.1,1-5.5-.7-8.7-4.7-10.5a3.5,3.5,0,0,1-1.6-1.6c-.6-1.1-1.1-2.4-2.2-1.2s-1.7,2.1-1.1,3.7c1.6,4,3.3,7.8,3.5,12.3a1.7,1.7,0,0,0-1.9.1c-6.1,3.4-10,2.2-15.3-4.1-1.8-2.2-4.5-3.4-7-2.2s-2.2-.6-3.2-.9-2.9,0-3.7,2.4-1.4,6.3-2.1,9.5-1.1,3.5-3.3,1.7c-4.8-3.7-5.9-9.7-6.9-15.8-.4-2.1-.5-4.2-.7-6.3a5.5,5.5,0,0,0-1.1-3.4,55.5,55.5,0,0,1-8.7-13.6c-.5-1-1.2-2-2.1-1.1s-5.7,1.7-7.6,4.9c-.4.6-1.1,1-1.8.4s-.2-1.5-.1-2.3c.5-4,0-8.1,1.1-12.1a31.7,31.7,0,0,1,3.3-7.2,5.9,5.9,0,0,0,.7-4.3,88.1,88.1,0,0,1-.6-17.8c.3-3.8-2.8-4.6-4.3-5s-3-3.4-4.8-4.5-.1-2,.5-2.8c2.6-3.4,5.2-6.8,8.9-8.3s4.6-2,6.9-3a7.4,7.4,0,0,1-.3,1.7c-2.8,4.4-4.2,9.7-5.2,15.1a47.2,47.2,0,0,0-.9,12.9c1.5-2.8.7-5.5,2-7.6.4,2.6-.7,4.8-.1,7.1,1-.2.8-1.2.9-1.8a58.6,58.6,0,0,1,6.8-24.3,3.2,3.2,0,0,0,.1-3.4c.8.8,1.7,1.8,2.3.2s2.3-2.9,2.1-5.3c0-.7-.5-1.1-1-.7s-3.8,1.4-3.7,4.7c-1.7-1.7-1.6,2.4-3.1,1.6-.6-2.6,1.6-2.7,2.2-4.9-4.4,0-5.3-6.4-8.9-8.4-1.2-.6-1.9-3.2-2.1-5.1s-1.2-3.2-3-2.6a4.3,4.3,0,0,1-3.9-.6c-2.4-1.9-3.8-1.3-4.1,2.6s-1.1,3.5-3.3,2.7-2.2-2-1.8-4a5.5,5.5,0,0,1,.5-1.7c1.3-2.8,1.1-4.9-1.2-7.1a26.4,26.4,0,0,1-6.5-10.6c-.7-2.2-1.7-2.7-3.6-2s-3,2.8-4.2-.9-.8-4.5,1.6-5.1a13,13,0,0,1,2.5-1c1.2-.2,1.7-.9,1.2-2.5-1.4-4.5-1.2-9-.8-13.6.2-2.8-1.2-3.4-2.8-3.9a3.8,3.8,0,0,1-2.8-4.3c.2-2.2.6-4.2,3-2.7.9.5,1.9.4,2.8,1s2.1-.1,2.6-1.6c1.3-4.3,4-7.1,6.8-9.7,1.1-.9,1.4-1.6.9-3.2s-1.6-5.4-2.2-8.2-.9-1.9-1.8-1.6-2.5-.3-2.8,1.6a7.6,7.6,0,0,0-.2,3.3c1.1,3.9-1.9,4.2-2.9,4.3s-1.8-2.6-1.5-4.3c.7-4.4-1-5.7-4-6.8s-4.9-2.4-6.4,1c-.9,1.9-2.2,3.6-2.1,6.4a98,98,0,0,1-11.4-15.1c-2.1-3.1-5.1-4.8-6.8-8.3-.3-.7-.9-.9-1.4-.4s-.5.5-.8.5c-6,1.6-6.8,7-6.1,14a132.6,132.6,0,0,1,.8,17.8c-.1,1.9,1.2,3.9.7,6.1s-.5,2.1-1.7,1.9-1.7.1-2-.9a2.5,2.5,0,0,1,.8-2.8c2.2-2.3,1.3-5.6,1.1-8.6-.5-5.6-1.2-11.3-2-16.9-.3-2.3,1.4-4.9-1.1-7-.1,3,.3,5.9-.2,9.1-1.2-2.9-.8-5.5-1.1-8s-.7-2.8-2-3.2a5.8,5.8,0,0,1-2.2-.8c-4.2-1.9-5.2-1.3-7.8,3.2-3.6,6.1-7.4,12-11.1,18l-1.2,1.5a1,1,0,0,1-1.6-.3c-.8-.9.2-1.1.4-1.6,2.2-5.1,5.5-8.8,8.7-12.8s2.5-7.2,4.7-10.1c.7-.8,2.4-1.2,1.8-3.9-1.5,1.6-2.9,3-3.5,5.8a3.8,3.8,0,0,1,.7-4.2c1.8-2.4,2.5-4.9.3-7.8a3.9,3.9,0,0,1-.7-1.6c-.8-9.4-6.7-8.3-11.1-8.8s-11-.6-16.5-1C.6,267.2-.3,265.9.1,262c3,2.7,6.5,2.1,9.7,2.7,5.7,1.1,11.3,2.7,17,3.3,1.6.1,2.8.7,2.6-2.8a32.3,32.3,0,0,1,1-12,4.2,4.2,0,0,0-.4-3.3,36.7,36.7,0,0,0-4.3-6.7c-3.8-5.2-6.8-11.3-11.4-15.5-1.8-1.7-3.1-4.2-4.3-7.7,8.8,8.5,14.6,19.5,21.2,29.5.8-1.4.8-1.4-.4-8.3,1.4.9,1.7,3.2,3.4,3.6-.3-2.1-.6-4.2-1-6.3s-.3-2.3-1.7-1.8-1-1.4-1.4-2.3-.1-1.8.8-2.1.9-1.3.7-2.3A161.3,161.3,0,0,1,30,208.1c0-2.3-1.2-2.3-2.3-2.6s-1.4-.5-1.3-1.9.3-2.3,1.5-1.9,2.4-1,2.6-3a112.9,112.9,0,0,1,4.8-21.8c.6-1.9.4-3.6-1-4.7s-1-2.8-.1-3.9,1.5.2,2.1,1.1,1.5,2,2.5-.2a39.9,39.9,0,0,1,7.3-11.3c2.2-2.6,4-5.9,7-7.5,1.3-.7,1.5-1.9.5-3.5s-1.5-2.2,0-3.3,1.8-.2,2.3,1.2,1.9,1.9,3.3,1.2,1.5-1.3,2.7-.6c-3,.7-4.7,3.9-7.4,5.3s-6.2,6.9-8.9,10.7-3.6,6.6-5.3,10a6.4,6.4,0,0,0-.8,1.9c-.2,1.1-.8,2.6.5,3.3s1.1-.9,1.7-1.7c5.2-7,9.3-15.5,16.7-19.8,5.5-3.2,11.3-4.4,17-5.9,2.4-.7,5.2.7,7.8,1.6s7.2,1.8,10.3,4.2c6.9,5.1,14.2,9.5,18.7,18.6a33.3,33.3,0,0,0-10.4-10.1c5.2,6.5,10.9,12.3,14.6,20.6a177.3,177.3,0,0,1,8.9,25.4c-2.4-11.4-5.2-22.7-10.9-32.6,2.4,1.7,3.8,4.3,6.4,11.6,1.6,4.4,3.7,8.4,4.8,13.3s2,9.4,3.5,14.9v-4.5a31.1,31.1,0,0,1,1.4,11.3c-.3,5.7-.8,11.3-1.2,16.9,0,.7-.2,1.7.5,1.9s.4-1.6,1.5-1.9c-.6,2.6.1,5.8-2.7,6.5-.2,0-.5.5-.5.8.1,4.8-2.3,8.4-2.6,13,3.2-6.5,7.5-12.4,6.9-21.3-.1-2.2.8-4.5.9-6.8.8-14.8-1.8-28.9-6.5-42.6-2.6-7.5-5.6-14.7-9.7-20.9-2.6-4.1-5.7-7.6-8.6-11.4-1.4-1.9-2.8-4-4.1-6l-.6-1.1c4,.9,6.7,4.7,9.8,7.6,5,4.6,8.3,11.1,12.1,17.1,6.4,10.2,9.4,22.1,12.6,34.4.5-3.1.3-5.8-1.6-13.4-1-4.2-2.3-8.4-3.6-12.8,2.6,3.2,6.5,1.2,8.2-3.6,3-8.2,2.9-17.1,2.6-26.1s.4-15.7-.1-23.6c1.1,7,.8,14.2,2.9,22.1a26.2,26.2,0,0,0,.9-10,145.8,145.8,0,0,1,1.7-30.4c.4-3.2-.7-5.4-1.8-7.6a58.6,58.6,0,0,1-5.8-21.1c-.5-7-.8-14.1.3-21,.2-1.2-.7-3.4,1.7-2.9.5.1,1.6-3.3,1.7-5.4a38.8,38.8,0,0,1,4.4-15.5c.3-.5.4-1.1,1-1.1h0a174.1,174.1,0,0,1-4.9,19.2,47,47,0,0,0-1.5,10.9,3.7,3.7,0,0,0,1.4-2.4c1.9-7.8,4.1-15.5,5.9-23.4.8-3.4,2.7-5.8,4.3-8.3,7.6-11.7,17.2-19.1,29.1-21.3-13.7,5.8-24.6,16.5-31.1,33.1s-8.3,34.6-.8,53.9c2.4-6,6.2-8.9,9.4-12.8,1.9-2.3,3.5-5.1,5.9-6.8a1.2,1.2,0,0,0-.3-2.3c-.8-.4-2.2-.5-2.7.1-2.1,2.4-4.7,3-7.2,3.8-.4.1-.6.4-1,.6v-.7c0-.7-1.1-1.2,0-2.3,7-7.2,20.2-6.1,26,3.3s7.7,18.8,4.9,29.1a19.6,19.6,0,0,1-6.3,10.1c-3.5,2.6-6.5,6.8-11.1,5.3s-10.5-2.3-14.7-7.9c-1.5-2.2-3.8-3.4-4.7-6.2-1.1-.1-.9.8-1.1,1.5a76.9,76.9,0,0,0-.4,24.9c1.5,11.8,5.2,23,5.9,34.8s-.5,24.3-7.9,33c-1.6,1.8-3.7,2.3-5.8,2.6s-1.3.6-1.4,2.2c0,6.8,1.2,13.6.7,20.5s-2.2,13.9-3.7,20.6c-.9,3.7-.4,5.9,2.2,7.9s-.1,3.8-.3,5.6-1.3.4-1.9-.1c-3.3-2.1-4.5-1.5-6.4,2.6s-3.4,8.1-6.3,11-1.6,3.3-.1,5.3,1.6,2.9,2.5,4.2.8,4.8-.8,5.9-1.3.2-1.7-.6-.5-1.6-.9-1.9c-2-1.2-2.9-6-4.5-5a42.5,42.5,0,0,0-5.3,3.7c-1.7,1.4-.4,4.9-2,5.5s-3.1-.6-4.6.8-2.3,2.7-.6,5.1,2.7,5,.5,7.6c-.6.8-1.3,1.4-1.7-.2s-1.6-1.8-2.2-2.9-2.6-1.9-4.1.1c2.9-.1,3.3,2.9,3.8,5.2s1.9,3.9,3.8,2.5c3.8-2.7,7.5-2.8,11.3.9.7.7,1.4.4,1.6-.9s1-3.7,1.4-5.6,1.4-2.8,2.9-2.1,2,2.3,1.3,4.1c-1.6,4.4-.3,7.6,3.1,10.9-1.8-3.8-.9-5.9,1.2-7.7s1-2.5.5-4.5a36.6,36.6,0,0,1-.2-18.3,7.2,7.2,0,0,0-.9-6.7c-2.3-3.7-2.2-4.4.4-7.5a6.1,6.1,0,0,0,1.2-1.6c1.4-3.2,2.9-4.2,4.8-.2.7,1.5,1.6,1.3,2.6.3,3.4-3.3,7-5.8,11.5-5.8.7,0,1.5-.3,2,.2s3.2.8,4.4-1.1,2.4-2.6,1.5-5.6,1-4.1,3.2-3.1,2.9-1.7,4.2-2.7,1.5-2.4.6-4.2a32.4,32.4,0,0,1-1.3-3.3c-.8-1.8-.5-3.3.7-4.1s2.6-.2,3.3,1.7l.9,2.4c.3.9-.1,2.6,1.3,2.2s1.2-1.5,1.2-2.9c0-3.9,0-7.9,1.3-11.6,2-5.8,5.5-9.6,9.2-13.3s5.1-4.2,5.1-9.2c-.1-8.4,3.1-15.5,6.7-21.8s12.8-5.7,16.9.4c1.4,2.2,1.8,1.5,3.2.2,3.2-2.9,5.7-6.8,9-9.5s6.2-7.6,8.8-12a200.7,200.7,0,0,0,9.5-17.8,185.5,185.5,0,0,0,9.4-23.9c3-9.7,3.2-20.1,5.2-30a64.8,64.8,0,0,0,.3-25.2c-2.1-9.9-3.7-20.1-8.7-28.9-2.5-4.4-4.7-9.3-7.5-13.4s-6.6-7.1-10.4-9.9-9.9-5.3-14.5-9.1c-2.1-1.7-4.5-.8-7.1-2.3,3.4.1,6.4.4,9,2.2,5.2,3.4,10.7,5.7,15.8,9.2a26.1,26.1,0,0,1,8.5,9.7,15.1,15.1,0,0,0,3.4,5.1c3.3,2.7,2.9,8.4,6,11,1.3,1.1,2,2.7,2.9,4.4a16.1,16.1,0,0,0-1.7-6.6c-2.9-5.6-5.7-11.4-9.5-16.2-.4-.6-1.5-1.3-.5-2.3s1.7-.6,2.2.9a8.6,8.6,0,0,0,3.5,4.4c2.6,1.8,3.6,5.4,4.9,8.6.5,1.2,1,1,1.5.9s.6-1.3.4-1.9a13.8,13.8,0,0,0-2.1-4.4l-10-14c1.2-.7,1.9.2,2.6,1,4.8,5.4,9.1,11,11.8,18.7s5.2,13.6,6.8,20.8a134.7,134.7,0,0,1,2.3,16.9,116.3,116.3,0,0,1-.8,23.6,78.5,78.5,0,0,1-2.8,13.8c-1.1,3.9-1.6,8-2.9,11.9-3.7,11.7-7.4,23.5-13.4,33.6s-13.4,21.7-21.6,30.9c-2.8,3.1-6.4,4.8-9.1,8.3-.7.9-1.6,1.5-1.3,3.2a96.4,96.4,0,0,1,.6,14.2c-.1,2.3.6,3.1,2.3,3s3.1.2,4.6,0,4.5,0,4.5,4.5c0,2.6,1.7,3,3.4,1s2.6-10,.8-13.9a19.6,19.6,0,0,0-1.3-2.5c-.9-1.6-2-2.5-3.5-1.9s-2.1,2.5-2.4,4.5,1,2.5,2.1,3.2,1.8.4,1.2,1.9-1.6,1-2.3.2-3.9-3.1-3.7-6.6,1.5-6.9,4.2-8.4,4.5-1.2,6.6,1.4c4.5,5.3,7,16.4,5,23.3-.4,1.3-1.7,3.7-.5,3.9s3.8,2.4,5.1-.6a1.7,1.7,0,0,1,2.2-1.1,1.1,1.1,0,0,1,1,1.1c0,1.2-.9,3,.1,3.5s3.6,2.8,5.7,3,1.2-.6,1-2a25.3,25.3,0,0,1,.2-13.1c1.7-5.9,9-9.1,12.7-5.4-2.3-1.4-4.2-.2-6.9.8a4.7,4.7,0,0,0,3.5-.3c3.1-1,8.2,1.8,9.2,4.9l-3.9-2.9.4,2.6c-3.2-3.5-6.3-4.1-9.5-1.5-1,.8-1.6,2.3-3,3s-2,7.6-1.1,7.8c3.3.8,1.8,3.8,2.1,6a4.3,4.3,0,0,0,.9,2.1c1.4,2,3.2,2.7,4.8,4s2.3.5,2.7-1.4.7-4.4,2.3-5.7,3.2-6.9,4.5-10.5a5.1,5.1,0,0,0-.3-3.6c2.3-.7,1.9-2.1.4-3.7,1.5,1,2.7.8,3.7-1s3.3-3.1,4-5.9,1.7-.8,2.6-1.2c3.4-1.8,6.9-3.6,10.9-3.9l-.3.4a17.1,17.1,0,0,0-10.1,6.2c-1.6,2.1-3.7,3.6-5.4,5.5s-2,2.6-1.1,4,1.8-.1,2.8-1a40.7,40.7,0,0,0,5.5-6.2c.6-.6,1.2,1.3,1.9.4-2.1,1.3-3.3,4-5.4,5.4a5.8,5.8,0,0,0-2.2,3.8c-.2,1.6,1.4,2,2.2,2.9a8.6,8.6,0,0,1,1.7,3.9c1.1,4.2,2.5,8.5,1.9,12.8s1.5,11.9-.9,17.4c-.5,1.1.5,1.7,1,2.4,2.2,3,5.1,4.8,7.2,8.1.4.6,1,1.3,2,.5,2.8-2.4,3.2-6.6,1-10.2s-2.2-5,1-7.3c.4,1.7-1.4,3.4.4,5,1.8-.9,1.7-4.5,4.2-4.9a11.3,11.3,0,0,1-2.2,4.8c-.5.7-1.7,1.3-.6,2.6s1.7.6,2.5-.4,1.6-3,3.3-4c-.7,3.2-2.9,4.7-3.1,7.9a8.2,8.2,0,0,0,2.5-3.1c1.1-2.1,3.5-3.2,3.8-5.6s-2.6-4.2-3.3-6.7-2-1.9-3-.4-2.4,4.2-4.5,5a62.5,62.5,0,0,1,3.8-6.1c.9-1.2,2.1-2.4,3.7-2.1,4.4.8,4.4.8,4.3-5.2,0-1.3-.7-3.4.7-3.9s3.3-1.8,4.8.5c-.8,1.1-2.5.6-2.7,1.2s-1.7,4.2.8,4.8,1.2-2.6,1.7-4.1h.8l1.4,17c2.7-8,2.5-16.1.7-24.3-2.3-10.1-6.9-16.8-14.9-19.6-5-1.7-9.6-.1-14.3,1.6,4-5.1,8.6-6.2,14.2-4.4,2.1.7,4.5,2.2,6.7,0a1.3,1.3,0,0,1,1.9.2c1.8,2.6,4.4,4.2,5.4,7.6-1.3-.1-1.9,1.3-1.8,2.5s1,2.6,1.6,3.8.7.3,1,.2.3-.9.2-1.4-.5-3.1-.8-4.7c1.5,1.4,1.6,4.7,3.8,5.1a5.6,5.6,0,0,0,.4,3.6c2.4,5.2,2.9,10.7,2.7,16.7a101.9,101.9,0,0,1-2.2,16.6c-.7,3.2-2.1,7-.1,10.8.8,1.6-.2,3.6-1,4.7s-1.4,4.1-1.1,6.5,0,7.5.9,11.1a2.9,2.9,0,0,0,1.9,2.2c4.2,2.2,8.9,1.7,12.6,6s6.4,3.5,8.3-1,4.3-5.6,6.7-9c-.7,3.8-3.3,5.8-3.1,10.1,1.7-3.3,3.3-6.1,4.7-8.9,3.3-6.8,7.5-12.5,10.9-19.1a10.9,10.9,0,0,1,.8-1.5,2.1,2.1,0,0,0-.3-2.9c-1-.8-1.4.5-1.6,1.3a12.9,12.9,0,0,1-3.5,5.3c.3-4.3,2.5-6.5,3.9-9.3.3-.6.8-1,1.1-1.6,2.7-5.3,3.4-5.2,5.8.5a2.1,2.1,0,0,1-.2,2.3c-5.6,11.3-11.2,22.7-16.9,34-1.5,2.9-1.9,6.5-3.6,9.2-.2.3-.3,1.1-.1,1.3,2.1,2.4,2.5,6.1,4.3,8.8,3.5,5,6.4,10.5,6.3,17.7,0,1.8,0,1.8-2.3,3.2,2.3,1.1,4.3-.1,6.2.1s2.5-.8,2.5,1.8.6.7,1.1.7c6.7-.6,13.6.6,20.3-1.4,1.4-.5,2-1.2,1.8-3s-1.6-1.5-2.6-1.4c-8.5,1.1-17.1.1-25.6,1.1,5.2-1.5,10.6-1.3,16-1.6l11.1-.4c1.2-.1,2.1-.2,2.2,2.1s1.3,2.5,2.6,1.2c.8,5.1.8,5.2-3.2,4.7a26,26,0,0,0-5.6.3c-6.4.7-12.9,1.3-19.3,1.7-1.8.2-2.6.7-2.9,3.5-.9,7.3-2.3,14.6-3.4,21.9a7.4,7.4,0,0,1-1,2.2c-1.3,2.4-2.5,4.9-.4,8a32,32,0,0,1-6.2-6c-.3-.5-.9-1.2-1.4-.5s.1,1.4.6,2c5.7,6.8,11.3,13.8,16.6,21,3.1,4.3,6.9,7.7,9.9,12.2.6.9,1.4,3.5,3.1,1.7.1-.1.3,0,.4,0-1.4,4.3,4.1,3.7,3.3,7.8a165.3,165.3,0,0,1-17.9-19.4c-2.6-3.1-5.4-5.8-8.1-8.6-1-1.1-2.3-1.8-3.1-3.4s-1.3-.9-2.2-.3a17.7,17.7,0,0,0-6.4,6.1c-1.5,2.4-3.5,3.9-5.3,5.8s-3.1,6.7-6.9,3.2c-1-.9-4,2.9-4.1,4.8-.4,6,1.2,11.9,1,17.8-.4,9.9,1.3,19.9.9,29.8-.1,2.2-1.4,2.2-2,1.6s-1.6-.3-2.4-.3-1.9-.4-1.9-2.6c-.1-6.6-.5-13.3-.8-21-1.4,2.9-2.4,4.5-4.6,2.9s-2.2-2.4-2.9-.3-2.1,4-1.1,6.8,3.1,6.1,1,9.6c-.4.8,0,1.7.7,1.4s2.2.6,2.3,2,1.8,5.4,0,7.4-.5,2,.1,3.5c1.6,4.3,4,3.2,6.4,2.8s1.6-.8,2.1-2c1.5-3.5,4-5.5,7.1-5.7s4.3,3.7,6.3,5.9c-.5.2-.9-.1-1.3-.5-4.1-3.4-7-2.8-10,2,3.6.3,7.1-.9,10.7-.3.6.1.1-1,.5-1.3s3.6,1.3,5.3,1.7,3,.5,2.8-3,2.2-5.7,5.4-3.5a9.8,9.8,0,0,1,4,4.3c.8,2,1.8,1.4,2.8,1.4s1.5-1,1.7-2.3c1.3-6.5,4.5-11.4,7.7-16.3l1.9-.7c1.8-1.1,3.5-2.7,5.4-3.3,6.3-2,15.6,4.1,18.1,12s3.8,13.5,1.4,20.5c-1-3.5,1.8-7.3-1-10.6,2-3.6-.7-6.5-1.6-9.4-3-10-13.7-13.4-19.6-6.4-1.1,1.3-2.8,3-2.3,5s0,4-.4,6a39.4,39.4,0,0,0,.1,9.7c.4,3.8,2.3,6.8,4,9.9-1.4-.6-2.1-2.2-3-3.8a7.1,7.1,0,0,0,1,5.1c1,1.8,2.1,1.9,2.7-.5,1.2,2,1.1,5.2,3.6,6,.7-.6-.3-2.8,1.3-2.6.3,3.1.8,3.5,3,2.4.2-.1.4-.5.6-.1,1.4,3.2,2.9.7,4.3.1,4-1.8,5.5-6.7,7.4-11,.2.5.4,2.1.8.5,1.1-4.3,2.1-8.5.8-13.6a95.9,95.9,0,0,0-5.6-16.4,4,4,0,0,0-2.8-2.5c-1.2-.2-1.8-1.1-2.4-3.1,3.9,2.1,6.8,4.4,8.6,9.4s4.2,11.4,4.3,17.8c0,9.2-1.2,18.3-7.5,23.2-8,6.3-19.8,4.4-25.5-8.7-1-2.3-1.9-4.7-2.7-7.1s-.5-3.1-2.3-3.1-3.2.3-4,2.3a5.3,5.3,0,0,1-2.3,3.1c-.7-.9-1.7-.5-2.5-.8s1.9-1,2.2-2.7c-1.4-.4-2.8-.6-4.1-2.1s-5.3.2-5.4,2.6c-6.2-5.2-12.4-.3-18.6-.9-1-.1-1,1-1.5,1.8-1.4,2.5-3.3,5.1-5.9,4.7s-3.8,2.2-6,1.7c.2,1.4-2,1.5-1.2,2.9,2.1,3.4-.5,4.9-1.2,7.2s-1.5,1.6-2.4.5-1.7-.6-1.8,1.2c-.2,4.8-2.2,6.3-5.4,3.9-.3-.2-.6-.8-.7-.3-.8,3.7-4.6,2.4-5.6,6.5-1.8,6.7-3.7,13.5-7,19.2-1,1.6-1.4,3.1.1,4.7a5,5,0,0,1,1.2,3.3c-.5,1.2-2.7,1.1-2,3.2,1.3,4,3.6,7.3,4.8,11.4.5-1.5,0-2.8-.2-4a6.5,6.5,0,0,1,1.2,3.3c.1,3.2,1.6,5.7,3.1,8.2s3.9,7.9,6,11.2,4.3,8.9,8.6,9.6c2.6.4,3.3,3,4.1,5.6-1-1.9-2.5-2.3-4.7-3.5,1.8,2.6,3,4.5,4.3,6.2s1,.7,1.3-.4c1.5,7.5,7.5,11.2,9.6,18.3.9,2.9,3.6,4.1,4.9,6.8.5,1,1.4.8,2,0,3.6-4.9,8.3-5.4,13.2-5.1s11.1,5.9,13.3,13.2c3,9.7,3.8,19.2-.2,28.3-3.1,7.1-9.4,12.7-16.6,11.7-5-.7-7.7-4.6-10.6-8.4-5.1-6.4-6.8-14.5-5.8-23.3a21.3,21.3,0,0,0,.3-2.5c.1-2-1.6-4.6,1.1-5.7.5-.3.7-1.9.1-2.7-1.7-2.3-2.4-5.6-4.7-7.2s-.5-2.7-2.1-3.4c1,3.9,1.9,7.5,2.8,11.2a18,18,0,0,1-2.5-6.8c-1-7.9-5.2-13.5-8.5-19.8-1-1.9-2.2-3.5-3.1-5.5-1.8-3.6-4.6-4.8-7.4-5.9s-6-4.2-6.4-9.5c-.5-7-4.1-11.7-7.6-16.6-3.5.5-4.5-4.7-7-5.9a19.2,19.2,0,0,1-4.9-3.7c-2-1.8-3.4,1.7-5.1,2.6s.1,2,.5,2.8a60.9,60.9,0,0,1,5.7,27.5,36.4,36.4,0,0,0,1.4,9.9,10.4,10.4,0,0,0,3,5.3c6.3,6.8,9.6,15.6,9.7,26.3,0,5.1-.1,10.1-1.5,14.8-.5,1.7.2,3.5.5,5.2,1.7,8.2,3.3,16.5,5,24.7.2,1.2.7,2.4-.3,3.4a2.5,2.5,0,0,0-.3,2.4c.5,1.1,1.2.4,1.7.1s2.3.5,2.8,1.9c3.6,9.6,6.6,19.4,7.5,30,.4,5.1,3.2,8.7,4.6,13.2s3.7,11.2,3.2,17.6c-.3,3.3,2.4,6,2.7,9.4,0,.4.5.9.5,1.3-.3,4.6,1.9,4.9,4.3,4.1,3.9-1.1,7.6-.3,11.5,1.7.3-2.1-1.6-3.4-.9-5.4s1.8-2.4,2.7-3.5,2-1.8,2.4.7.7,1.8,1.7,1.4,1.3-1,1.2-2.4-.9-4.3,1.5-4,4.8-1.8,4.8,3.4c0,1.1.2,1.9,1.3,1.9s1.9,0,2.1-1.3c.5-3.6,2.2-2.5,3.8-1.5a4.3,4.3,0,0,1,2.4,5.1c-.2,1.1-.8,2.5.3,3.2s1.8.2,2.3-1.1.7-1.5,1.3-1.2a4.1,4.1,0,0,1,2.1,3.4c.1,2.1,2.7,3.4,1.2,5.8-.1.1-.2.2-.2.3s-2.2,2.6-1,4,2.5.7,3.4-1.1.7-.6,1.2-.8c.7,1.5.2,2.8.3,4.1s-.8,4.1,1.6,5.6,3.7.6,4.9-1.7a21.1,21.1,0,0,1,1.4-2.2c.4-.4.6-1.8,1.4-.9a1.9,1.9,0,0,1,.2,2.8c-.6.9-1.1,2-1.7,2.9-1.6,2.4-1.4,4.8,0,7.4s1.7,3.2,3.6,2.6,2.5-.7,2.9,1.7.3,1.8-1,2c-4,.4-4.2.9-4.3,6.1a3.7,3.7,0,0,0,1.4,3.3,8,8,0,0,1,2,2.1c.9,1.5,1.4,3.4.1,4.6s-1.8-1-2.5-2-1.1-3.4-2.5-2.2-.2,2.8.4,4.3c2.3,5.3,2.9,11.2,3.7,16.9s1.5,14,2.3,21a3.4,3.4,0,0,0,.1,1.1c2.9,3.4,1.4,7.2,1,10.9-.2,1.9-.2,3.2,1.8,3s1.3,1.5,1.7,2.6.3,1.9-.6,2.3-.9.8-.6,1.6.8,1.2,1.6,1.3,3.6,4.8,2.8,6.9-1.2.5-1.8.5-2.8,1.9-1.7,4,.5,3.4-.6,4.2-.8,2.3.3,3.4a15.2,15.2,0,0,0,1.7,1.8c3.4,1.8,2.6,4.2.8,6.9-1.3-.7-2.6-2.3-4.3-2.5s-1-1.6-1.7-.5-.2,1.4.1,2.3-.5,3.3-1.8,2.9-1.8.5-1.3,2.2,1.2,3.1.4,4.5c-1.9,3-2.6,2.9-4.1-.8-.5-1.4-1.4-2.5-1.9-1.1s-2.5,1.4-3.6,2.3-4,5.7-7.6,3.8c-3.5,4.8-8.2,6.9-12.6,9.7A2.6,2.6,0,0,0,345,911c-.3,2.7-1.5,3.5-3.3,2.8s-1.8.6-2.3,1.5.1,1.7.7,2.5a3.6,3.6,0,0,1-.7,4.4c-.7.6-2.3,2.5-3.3-.2-.5-1.2-.9-1.6-2-1a2,2,0,0,0-1,2.8c.6,1.7,1,3.2-.8,3.5s-3.2,2.2-3.7-1.6c-.1-.9-.6-1.1-1.3-.9s-1.3.4-1.2,1.6.4,3.5-1.5,3.3-3.2.3-3.1-2.9c0-.4-1-2.3-2.1-2.3s-.6,1.5-.9,2.3-.2,1.2-.8,1.4-2.4-1.4-3.7-1.6-1.8-2.4-1.4-4.1a4.1,4.1,0,0,0-1-4c-1.2-1.2-.9,1.3-1.6,1.6s-.9.6-1,.5a23.3,23.3,0,0,1-3.1-5,2.9,2.9,0,0,1,1.7-3.5c.2-.1.2-.5.3-.9-4.3-2.1-7.2-7.3-11.9-8.7-1.4-.5-2.6-2.9-3.9-4.4s-2-1.6-3.1.3c-2.3,4-7.1,3.5-9.4-.9-4.1-7.7-4.8-16-2.9-24.5.4-1.8-.8-2.3-1.1-3.6-1.6-6.7-3.1-13.4-4.3-20.3-.2-1-.2-2.6-1.2-2.6s-.7,1.7-.8,2.8a40.9,40.9,0,0,1-1,6.1,13,13,0,0,0,0,6.5c1,3.5-.3,6.6-1.8,9.2s-3.6,1.2-4.8-.9a19.3,19.3,0,0,1-1.9-3.8c-1.3-4.3-.9-6.2,2.3-7.8,1.3-.7,1.5-1.6,1.7-3.2.7-4.7.3-9.8,1.9-14.3h-.1a13,13,0,0,1-.1,6.2,48.8,48.8,0,0,0-.9,11.7c.6-.5.8-.5.8-.7,1.3-8.5,2.7-17,3-25.8,0-.4.1-1-.4-1.2s-.9,1-1.4,1.5h.1c-.1-1,0-2-.2-3a3.1,3.1,0,0,0-2.9-2.6c-1.3-.2.4,2-1.2,2.5.6-6-4.1-8.1-5.6-12.8-.5-1.9-1.7-1.7-2.8-1a40,40,0,0,0-6.5,3.9c-3,2.5-6.6,3.9-9.5,6.8a1,1,0,0,1-1.6-.1c.5-1.9,2.4-1.4,3.1-3.2-2.1,0-3.1,1.1-4.3,3.2s-1.9,5-3.3,7-2.8,2.6-4.6.1-3.4-3.6-3.7-6.9a9.4,9.4,0,0,1,1.8-6.4c1-1.5,3-1.3,4.8.8,3.8,4.6,7.4,1.2,10.5-1.3s6.8-4.4,10.3-6.3,3.6-3.1,5.7-3.7a1.9,1.9,0,0,0,1.1-2.3c-2.9-5.7-1.6-12-2.4-18l.4-.2c1.2-3.4-1-4.5-2.5-6s-2.3-1.4-3.1-2.7a1.3,1.3,0,0,1,0-1.7c.3-.3.7-.1,1,.4,1.3,2.1,1.8,1.4,2.2-.9s5.3-9.4,7-11a1.7,1.7,0,0,1-.1,2.2c-2.8,2.3-3.3,6.7-5.1,10-.3.6-1.4,1.5-.4,2.4s2.2,1.4,2.8-.2c1.4-4,3.6-7.3,4.9-11.2.5-1.7-1.1-4.8-1.8-7.2s-2.2-7.5-3.2-11.3c3.1,5,3.8,11.5,6.7,16.7L256,739.2c-.2-.7-.4-1.4-1.1-1.4-3.7.2-5.2-2.2-5-6.8a3.8,3.8,0,0,0-.3-1c-.8.3,0,1.4-.5,1.8-.3-4.3,1.1-9.3,2.7-9.2s3.7,0,4.3,3c-1-1.3-2.1-2.3-3.1-.6a5.4,5.4,0,0,0-.2,5.4c1.3,2.5,2.3-.2,3.4-.5.5,1.7-.5,3.4.6,5.4A9.3,9.3,0,0,0,256.7,727.3ZM34.7,192.2c-.4,3.7-1.7,7.1-1.5,11,.7-3.8,2.4-7.2,2.3-11.3,1.6-2.1.5-5.5,1.9-7.7,0-.1-1-.9-1.2-.4C35.2,186.4,33.6,188.9,34.7,192.2ZM37,281a4.2,4.2,0,0,0-.4-1c-.7-.8-1-2.9-2.1-2.1s0,2.5.3,3.7.3.7.8,1.9c-.3-2.6.6-2.7,1.5-2.6-1.5,4.3,1.2,6,3.2,8s1.7,1.1,2.4.3,0-1.6.5-2.2-1.7-1.2-2.6-.3a1.2,1.2,0,0,1-2-.9C39,283.5,37.4,282.7,37,281Zm235.9-11.7c.2-2.2-.7-3.2-2.2-3.5s-.9.8-.6,1.4,1.1,3.5,2.9,2c1.8,3.9,4.5,6.4,7.4,8.8a15.9,15.9,0,0,0-2.4-4.5C276.6,271.7,275.4,268.9,272.9,269.3ZM68.4,296.7a2.8,2.8,0,0,1-1.7-2.4c2.8,1.4,3.8,5.2,6,7.3.5.5,1,1.9,1.6,1.1s2.3-1.5,2.2-3.4a4.5,4.5,0,0,0-2-3.9c-3.2-1.6-6.5-2.7-9.6-5l1.9,4c-2.4-.3-2.7-4.8-5.6-4.9,1.4,3.1,3.5,4.8,5.2,6.8s1.3,1.3,2,.3c.1,4.8,3.3,7.5,4.6,11.4.4,1.2,2.6-.8,2,2.1,0,.2.8-.1,1.1-.5s.1-1.3-.2-2C73.9,303.3,70,301.2,68.4,296.7Zm56.9-57.5c.3.7.1,1.7.8,2.2,2.2-6.3,2.6-17.2.7-20.9-.7,2.2.2,4.6-.6,6.6l-.6-4.1c-1-6.7-1.1-13.8-3.6-20.2h.1c-3.6-14.5-9.7-26.7-19.2-36-1.5-1.5-1.8-.4-2.3,1.2-2.5,7.4-4.8,14.9-7.9,21.9.7-8.3,4.3-15,6.8-22.2.8-2.4.6-3.8-.9-4.9-6.4-4.7-13-7.7-20.3-6.6,4.2,2.8,5.5,8.1,3.1,13.3a22.8,22.8,0,0,1-4.1,6.3,9.1,9.1,0,0,0-2.7,5.8,4.9,4.9,0,0,0,1.9,4.3c1.2.7.5-1.7,1.2-2.2,1.4,1.8-1.3,3.4.2,5.4s1.3,3.3,2,4.9c-.8.1-1.4-1.3-2.3,0a1.3,1.3,0,0,1-2.3-.2,5.5,5.5,0,0,1-.1-3.6c.3-.7,1.5-.3,1.2-1.8-2.1-.2-3.3-1.6-3.2-4.7a5,5,0,0,0-.8-2.7l-4.8-9c-1.6-3-3.3-5.9-4.9-8.8l-.4.4.5,1.9c-2-3.6-3.8-1.4-5.2.2s-4.5,3.2-1.1,7.1c-3.7-2.5-3.9-2.6-6.1.8-3.6,5.4-7.4,10.7-9,18-.6,2.4-1.5,4.7,1.5,6.1-1.8-1.1-3.2,2.2-4.8-.1a10.6,10.6,0,0,0-2.7,5.4c-1.5,8.2-.1,16.5-.3,24.7a14.5,14.5,0,0,0,.9,4.6c.4,1.2.8.3,1-.5h0c.4.2.4.6.5,1.1s-.9,1.8-.9,2.6c-.4,6.1,1.8,11.5,3.9,16.8a93.5,93.5,0,0,0,6.9,13.8c2.4,4.3,4.8,8,8.1,10.9a55.6,55.6,0,0,0,11.2,7.4c1.2.6,3.4,3,4.3-.9,1.3,4.5,4.3,2.8,6.6,3.4s4.8-1.3,6.3-4.7c.2,5.5,2.9,3.4,4.6,3.4,4.1,0,5-1.6,4.7-7-.5-10.1-2.1-19.9-2.9-29.9a157.4,157.4,0,0,0-2.4-19.2c-1.9,3-4.1,4.5-6.8,3.6s-2.9.2-3.5,2.4c-1.5,5.7-3.1,11.4-4.7,17.1-1.1,3.6-1.1,7.6-2.7,11.1,1.9.3,3.1-1.6,4.7-.4-.1,1.3-1,1.5-1.5,2.1-2.3,2.9-3.4,6.5-4.1,10.6-.2.8-.4,1.6-1.3,1.6s-.8-.6-.8-1.2a38.1,38.1,0,0,0-3.6-15.5c3.2,3.4,3.2,3.4,5-.8a10.4,10.4,0,0,1,.6-1.6c3.5-6.2,3.5-14.1,5.2-21.2.2-1.1.1-2.6.4-3.9a3.6,3.6,0,0,0-.3-3.2c-3.5-4.9-3.4-10.3-1.5-15.8a3.5,3.5,0,0,0-.2-3L62.6,192.8c-1.7,2.6-3.3,5.3-6,7.1.9-8.6-.8-16.5-2.6-24.8,5.3,4.1,10.3,7.6,16.2,8.1-2.6,1.3-1.9,6.1-4.7,6.7-.1,0-.3.7-.2.9a49.7,49.7,0,0,0,4.8,9.5c1.2,1.8,2.9,3.5,4.2,5.5s2.5,4.1,4.9,2.6,2.7-.2,3.9.7,1.2.8,2-.3.3-1.8-.1-2.7c-1.5-4.2-3.9-7.7-5.2-12.1,1.6.7,1.9,2.7,2.6,4.2s2.3,5.1,3.9,8.5c.4-7.6,3.1-12.7,5.2-18.3-.4,2-.9,4-1.4,6.3,1.7-1.2,1.6-3.6,2.7-4.8a4.3,4.3,0,0,1-.2,2.5c-1.3,3.5-2.6,7-3.8,10.5s-2.1,5.7-1.7,9.1c.2,1.6.6,2.9,2,2.2l15.8-6.8c-.3-1.5-1.7-1.4-1.5-3.5,2.6,2.6,5.4.9,8.6,1.3-4.2,2.8-5.7,7.7-7.4,12.7-1.1-2.9,1.2-4.4.5-6.8-6,1.7-11.2,5.3-16.2,9.5-.8.7-.6,2.6-.3,4.3l1-1.6c-1.3,3.8-.5,7.5-.1,11.6,1.6,14.7,3.6,29.3,4.5,44.1.3,4.3.5,4.4,3.6,2.8s7.5-5.2,11.2-8.2c7.5-6.2,11.6-15.5,14.2-26.4.7-2.7,1.2-5.5,2.5-7.9Zm24.6-83.3a4.1,4.1,0,0,0-.1-1.1c-.5-1.7-1.6-2-2.7-1.7a1.5,1.5,0,0,0-.9,1.9c.5,2,1.6.3,2.4.8s.9,0,1.4,0c-.1,1.6.8,3.7-2.1,2.6s-2.7-1.3-2.5-3.8a14.3,14.3,0,0,0-.5-2c-.7,3.5-.7,6.4.9,9.3a1.3,1.3,0,0,0,1.1.8c1.3.1,3,.2,3.6-1.1A5.7,5.7,0,0,0,149.9,155.9ZM262.8,565.7c.8,5.2,1.2,10.4,3.2,15.2-.3-4.9-1.9-9.6-2.1-14.5,0-.8-.7-.5-1.2-.5s1.5-1.3,1-2.7-1.2-.2-1.7-.1-1.7-1-2.7-2.5a46.1,46.1,0,0,0,5.2,21.7c-.5-4.1-1.4-8.1-2.2-12.2C262,568.6,261.1,566.8,262.8,565.7Zm34.9,184.4c.5-.1.4,1.6.9.7s1.9-3.9,1.2-5.7a19.3,19.3,0,0,1-1-9.2c.1-.8,0-2.2-1.3-1.5s-3.1,6.6-1.9,9a19.3,19.3,0,0,1,2.1,6.8c-1.3-1-1.1-3.4-2.4-4.5s-1.2-1.6-1.6.2,1.8,9.4,3.8,11.1C298.8,754.8,296.3,752.3,297.7,750.1Zm28.9-430.5h.1c-2.3.9-3.2,3.5-3.1,7.4s2.2,5,1.1,7.9a1.5,1.5,0,0,0,1.2,1.7c1.1.1.9-.8.9-1.7s-.4-1.9.3-2.8c1.2,1.7.1,3.8,1,6.1.8-5,.1-9.7.9-14.2C329.2,323,329,319.7,326.6,319.6ZM258,56c.5-.6,1.4-1.2,1.4-1.6a18,18,0,0,0-3-8.4c-.4-.4-1-.6-1.4-.1s-1.1,1.4-.6,2.2c1.5,2.4,1.5,6,3.7,7.8.4,1.1-1.3,1.5-.6,2.5,2.1,2.9,1.6,6.8,2.7,10.1s2.5,8.1,2.4,12.5c-.1,2.7-1.2,5.2,0,8.3a13.5,13.5,0,0,0,.9-5.9c-.4-8.3-1-16.6-2.9-24.7C260.1,56.6,259.4,56,258,56Zm-1.8,198.5c.3-2.5-1.4-2.2-2.4-2.8s-5,0-6.4-2.2-4.6-3.2-7-3.4-5.1-4.2-7.8-.9c-.8-2-1.2-1.8-1.3.2s1.2.9,1.8,1.3.5.1.8.1a30.2,30.2,0,0,1,13.9,4.9c2.6,1.7,5.2,4.4,8.3,2.9-.3,1.5.2,3,1.2,2.6s2.5.3,3.6,1.4.9,1.2,1.4.3a2.2,2.2,0,0,0,.2-2.3C261.2,254.2,258.4,253.1,256.2,254.5ZM90.3,289.2c0-.5-.2-1.3-.3-1.2-1.8,2.4-5.3-1.8-6.8,2.2-.1.3-.3-.3-.4-.6s-1.7-.3-2.5-.4a5.9,5.9,0,0,0-.2,1.7,1.7,1.7,0,0,0,1.9,1.3,18.8,18.8,0,0,1,5.8-.1c1.5.1,2.4-1,2.5-3,.1,2.8,1.3,2.9,2.6,1.6a31.3,31.3,0,0,1,10.1-6.2c2-.7,2.7-3.8,4.8-4.2s5.6-3.5,6.8-7.5c-6.3,5.6-13.1,9.8-20.1,13.9C93.1,287.5,91.1,286.9,90.3,289.2ZM243.1,529c-.5-1.3.2-3.2-1.2-4.5-1.1,2-.2,4.5-1.1,7.4-.1-3.4-.2-5.8-.2-8.2-1.8,4.9-.9,10.2-1.2,15.3,1.1.2.4-2.1,1.6-1.5s1.2.5,1.4-1-.3-5.3.8-7.6c.2,4.6-.3,9.2,1.5,13.6a2.5,2.5,0,0,0,2.4,1.8c1.4.3,1.3-.8,1.4-2,.2-3,.4-6,.7-9,0,3.1.1,6.1.2,9.2,0,1.5.6,2,1.6,2.1s1.3-.1,1.2-1.3c-.1-5.3-.8-10.6-1.4-16.3-2,1.9-.7,4.6-1.7,6.4-.4-1.8.2-3.9-.7-5.8-1.5,1.2-.4,3.1-1,4.5-.5-2.2.6-4.9-2.6-5.6S243.8,528.5,243.1,529ZM118.3,351.8c-.1,1-1.3,2.5.4,2.9s2.4,1.5,2.7-.1-1.4.9-1.8-.9-.9-1.2-1.3-1.8,1.6.1,2.7-.6c2.7-1.6,5.6-.7,8.2,2.4a47.8,47.8,0,0,0,1.1-10.3c-1.5,1.2-.6,4.1-1.8,3.4s-3.7-.5-5.5-1.5c.7-1.1,2,.1,2.8-1.3-3.6-1.4-7.2-.6-11-1.3.4,1.7,1.8,2.4,1.4,4.4-.8-2.7-2.5-2.2-3.7-2.2s-1.8,1.8-1.8,3.5.7,2.2,1.9,2.1A11.4,11.4,0,0,1,118.3,351.8ZM334.5,320c-.5,1.3.5,2,.9,2.5,4.1,4.4,6.2,10.4,8.2,16.4s3,9.1,2.6,14.1c-1,12.9-3.9,24.6-11.3,33.5-.5.7-1.5,1.3-.6,2.8,4.1-4.5,7.2-10.1,10.1-15.9,1.4-2.9,1.3-6.5,2-9.7a55.4,55.4,0,0,0-1.4-28.8c-1.7-5.6-4.9-9.8-7.9-14.2-.8-1.1-1.7-1.9-2.7-.6,0-3.5-4.1-7.2-7.6-6.9a27.3,27.3,0,0,1,3.4,3.4C331.4,318.1,332.6,319.9,334.5,320Zm-54.7-74c.2-5-1.7-9.4-2.5-14.1-.2-.9-.6-2.1-1.4-2.2s-1.1,1.3-1.6,2-1.9,4.5-2.4,6.8a32.2,32.2,0,0,0,.5,16.3c.6,2.1,5,6.5,5.9,5.9s1.8-2.9,2-4.9c2.2-7.5,1.1-14.8-1.4-22C278.7,237.9,281.1,241.8,279.8,246Zm54.9,82.5h.1c0-2.8-1.7-3.9-3.2-5.2-.2,2.5-.3,4.9-.4,7.4s-.1,4.7-.1,7.1-.4,4.6.8,6.8c1.2-1.1.1-2.6,1.1-3.5.3,3.4.1,6.6,1,10s1.5,8.7.2,11-1,6.5-3.2,9.3-1.1,8.8-.4,13.4c1.6-2.9.5-6.5.9-9.7.8.7.1,2.3,1.2,3.2a14.6,14.6,0,0,0,0-2.1c-.1-.2.3-.6.2,0l.7,3.9c.9-2.3,1.2-4.7.3-6.3s-.3-2.8.6-3.9c.6,1.3.1,2.1.1,3s-.4,3.6.7,3.9.4-2.3,1.2-3.1-.1,2.2,1.7,2.9c1.8-13.2.7-26.2-.6-39.3.2.7.3,1.4.6,2.4.4-3.8-.7-6.9-1.4-10C336.4,328.3,335.8,327.6,334.7,328.5ZM130.7,448c-.3-1.5.8-3.8-.8-4.2s-.5,2.1-1.1,3-.7.6-.8,1-.1,2.5,1,3.1.7-1.1,1.1-1.6a6.9,6.9,0,0,0,.7-1.5,33.1,33.1,0,0,1-.4,5.5c-1.1,4.7-.8,8.9,2.8,12.2.6,0,0-1.7.9-1.6.8,1.9-1.4,5.2,1.9,5.9l.5,1.2c.6,1.5,1.3,3.3,2.6,3s.6-2.3.9-3.6,0-4,1.2-6.2c-.1,3.6-.2,6.5-.2,9.4s5.2,7.8,7.8,6.5c.5-.2.7-.7.7-1.4-.1-4.2.3-8.4-.6-12.6-.5-2.5-1.6-4.1-3.7-4.6a11.9,11.9,0,0,1-7.5-5.2c-1.8-2.9-2.3-1.2-2.8,1.1-.1.5-.1,1.2-.2,1.8-.2,2.8-2.1-.5-2.8,1.1s-.7-.8-.8-1.5-.5-2,.1-2.5,1.5,1.6,2.9,1.4c.2-7,2.3-13.4,3-20.4.4-3.8-1.4-4.7-2.8-5.3s-.9,2.1-1.4,3.1-.7,3-1.1,4.5a15.1,15.1,0,0,1-.2-3c.4-3.2-2-3.9-3.2-4.2s-1,2.4-.9,4,.5,1.7.6,2.5.9,2.8,1.8,3.1,1.3-1.6,1.9-2.6A34.9,34.9,0,0,1,130.7,448Zm39.2-140.3c0,2.1,1.2,2.9,2.4,3.7s5.8,2,8.4,4.4c.4.4,1.1,0,1.6,0s-.1-1.2-.2-1.8-1.2-2.2-1.3-3.7c0-5.9-2.9-10.8-4.1-16.4a71.6,71.6,0,0,1-4.2,7.8c.1-3.2.9-6,2.8-8a3.9,3.9,0,0,0,.9-3.9c-1.2-4.5-2.4-9.1-3.8-14.2a15.5,15.5,0,0,1-4.1,5.5c-1.7,1.4-1.9,4.2-3.5,5.5s-2.4,6.9-4.8,8.1-2.4,3.3-3.3,5.3-.2,2.5,1,3.4c3.2,2.3,6.7,3.2,9.9,5.1C168.6,309,169.2,308.3,169.9,307.7ZM294.4,896.9c3.2,1.3,5.5,5,8.7,6.4s8.9,6,13.9,6.4c9.3.7,18.4.1,26.9-4.9a7.9,7.9,0,0,0,3.6-4c.9.7,1.7.9,2.3-.2,2.5-4.1,6.3-6.4,9.2-10a49.4,49.4,0,0,0,7.8-13c2.2-5.2,4.7-10.4,5.1-16.4.8-11.7,3-23.1,2.2-35.2-.9-15.1-4-28.9-11-41.3-4.4-7.7-9-15.2-14.9-21-3.4-3.2-6.5-6.9-10.9-8.2s-9.7-1.5-14.5-3.4c-3.1-1.2-7-2.6-9.4,2.3-.1.3-.7.3-1.1.3a12.1,12.1,0,0,0-5.9,1.3c-3,1.7-7,2-7.2,7.9-.2-.2-.6-.3-.6-.5-.3-2.7-.6-3.4-2-.7a7.9,7.9,0,0,1-3.1,2.9c-4,2.9-7,7.2-9.8,11.7-1.5,2.4-2,5.7-3.4,7.9-3.1,4.8-4.6,10.6-6.3,16.3-.5,1.8-.5,3.6.8,5-1,.9-2.2,1.9-2.4,3.3-.7,6.7-2.1,13.2-1.8,20a162.4,162.4,0,0,0,3.3,27.7c1.6,7.5,3.9,14.7,7.6,21a165.2,165.2,0,0,0,13,18.5c-1.6-.1-2.6-1.7-3.9-2.7a11.2,11.2,0,0,0,5.2,5.3C295.8,898.1,294.4,898.2,294.4,896.9Zm33.2-264.7c.6-2.9,2-5.4,1.6-9.6-1.5,3.5-2.2,6.3-1.5,9.6s.9,7.6,2.3,11.1c.7,1.7,2.2,2.2,2.3,4.6s1.8,4.4,4.1,4.2c.4,0,1-.4,1.2.6.4,3,2.4,2.8,3.9,2.9,3.4.3,7.3-3.4,8.4-7.5.1-.6.2-1.4-.2-1.7s-.5,1.4-1.4,1.6c-.5-1.8.3-2.7,1-4.1,1.5,3.5,2.3,3.1,3.5-.1,2.2-6.1,1.2-11.9-.6-18-3.4-11.5-7.9-11.7-14.8-10.1a3.4,3.4,0,0,0-2.2,4.1c1.5,3,2,6.7,4.2,9.8.6-4.6,1.2-8.7,1.7-12.8a2.3,2.3,0,0,1,.6,1.6c-.3,5.6-1.8,11.2.3,17,0,.2.1.6,0,.7-2.1,2.7-1.1,6.6-1.7,9.9-.4-3.2.2-6.7-3-8.4a3.6,3.6,0,0,1-.8-3c.7-5.1-1.6-9.2-3-14.1a10,10,0,0,0-.5,4c0,.4.1,1.3-.3,1.1-2.8-1.3-2.4,2-3,3.5S329,631.9,327.6,632.2ZM297.8,297.5a11.6,11.6,0,0,1-3.5-6.1c-1.2-5-3.5-9.1-5.9-13.2-5.7-9.5-12.2-17.7-20-24.1a139,139,0,0,0-15.2-10.2c-6.2-3.8-12.7-5.8-19.1-7.9s-11.7-2.1-17.6-3a3.9,3.9,0,0,0-3.2.9,5.2,5.2,0,0,1-2.9,1.4c-6.3-.3-12.1,1.9-17.8,4.6s-12,7.1-17.8,11.2-12.1,13.2-17.9,20.1a53.2,53.2,0,0,0-4.5,6.5c-3.3,5.4-5.7,11.8-7.9,18-3.6,10.5-7.3,21.2-7.8,33.2-2.3,5.8-2.7,12.4-3.8,18.7s.4,13,.6,19.5a207.7,207.7,0,0,0,2.5,26.1c.5,2.8,1.2,5.6,1.9,8.5,1.6,5.9,3.3,11.8,5.3,17.5,3.2,9,7.3,17.4,11.2,25.8,3.2,6.8,6.4,13.7,10.6,19.3a148.5,148.5,0,0,0,19.1,21.1c1.8,1.7,3.6,3.6,5.7,4.7s.8,5.8,3.4,2.2a1.9,1.9,0,0,1,.2.7,6.6,6.6,0,0,0,3.6,4c3.4,1.4,6.4,5,10.3,3.7a4.1,4.1,0,0,1,2.7.4c4.2,3.9,9.1.8,13.5,3.2,1.2.7,3.4,0,4.7.2,3.6.7,7,.3,10.5.1s8.2-2.8,12.3-4,6.8-3.7,10.4-5.4c-.5-.9-1.4-.9-1.4-2,5.3-1.8,10.6-3.6,14.8-8.6.4-.6,1.1-.9.6-2s-1.2-.8-1.9-.3l3.7-3.5a1.5,1.5,0,0,1-.4,1.4c-.5.6-1.6.9-.7,2.2s1.7-.1,1.9-.6,4.7-1.4,2.4-5.6a1.9,1.9,0,0,1,.6-.7c3.7-2,6.3-6.1,9.5-9.1,1.7-1.5,2.5-4.1,4-6,2.9-4,4.7-9.6,7.3-14.1.9-1.5-.1-3.5,1.4-4.4s2.2-3.3.4-6.4c2.4,1.6,2.8-.5,3.4-2.1,2.7-6.9,3.5-14.7,5.1-22.2.8-3.3.5-7.1,1.3-10.6a6.3,6.3,0,0,0,.1-3.6c-.5-1.3-1.1-1.9.4-2.6a2.5,2.5,0,0,0-.1-2.4c-.7-.8-1.1,0-1.6.5a2.7,2.7,0,0,0-.9,2.1c-.2,7.3-2,14-3.4,20.8-1,5-1.8,10.2-4.7,14.2,1.1-5.3,3.2-10,4-15.5,2-12.8,4.7-25.3,2.4-39.1-.6-3.3-1.2-6.6-2-9.9-.1-.5,0-1-.1-1.6s.5,2.1,1.6,1.8c-.3-2.6-.4-5.3-.9-7.8-.9-4.2-1.2-8.5-2.6-12.5-.6-1.7-1.4-1.7-2.5-1.3s-.7,1.6-.3,2.6a22.2,22.2,0,0,1,1.3,7.7c.1,3.4-.1,7.1-2.5,9.3s-4.9,5.2-3.2,10.2a1.6,1.6,0,0,1-1.1,2.1,1.4,1.4,0,0,1-1.9-1.2c-.8-2.3,1.4-12,3.3-12.8s2.8-3.3,3.4-5.7.8-4.6-.9-6.6-4-3-6.3-1.7-2.9,4.4-2.6,7.7c.1.9.8,2.6-.9,2s-3-8.7-2.5-9.7c2.5-5.2,5.9-7,10.4-5.4s4.2.4,4.5-3.9a17.5,17.5,0,0,0-.3-5.1c-1.8-7.2-4.2-14.1-6.5-21-.7-2.1-2.8-2-2.8-4s-1.6-4.4-2.7-6.3c-5.7-9.1-10-19.5-17.4-26.7s-11.5-12.7-18.7-16.5c-9.9-5.3-19.8-5.9-30-3.8,3.5,9.1,2.5,16.1-2.3,20.4-2.9,2.6-3.7,5.7-3.2,9.9.1,1.4.7,3.4-1.1,3.5s-1.8-1.7-1.8-3.3a13.3,13.3,0,0,1,4.2-10.4,12.3,12.3,0,0,0,3.8-10.3c-.3-3.8-2.7-4.5-4.8-5.7s-2.4.3-3.5,1.7-3.3,5.6-.9,10.3l-1.6-1.2c-2.6-3.1-2.1-6.7-1.4-10.4.2-1,1.1-2.4-.7-2s-4.3.5-5.8,2.3c-2.7,3.3-6.1,4.9-9.5,6.8,2.8-2.4,5.5-5,8.3-7.2a20.2,20.2,0,0,1,6.4-3.5c2.7-.7,5.1-2.6,8-2.6,7.1.1,14.1-1.3,21.8-.6-6-4.9-12.2-3-18-5-.9-.4-1.4,2.1-2.9,1.8s-3.9.1-5.9.4c-9.3,1.7-18.3,3.6-26.1,10.6-3.1,2.8-6.5,5.1-9.4,8.3s-5.4,3.8-4.3,8.8,1.5,9.2,3.4,13.4a2,2,0,0,0-.1,1.1c2,8.1,4.1,16.2,6.2,24.2.3,1.1,1.1,1.4,1.8,1.8,2.6,1.6,5.3,3.1,7.8,4.8,4.4,3.2,5.2,2.9,7.8-2.5.9-2,1.5-4.8,4-4.9-.5,3.1-2.3,5.1-3.7,7.4s-1.5,4,1,5.7,3,.9,3.9,2.8c-1.9-.4-4,.1-5.5-2.3s-2.1-1.9-3.3-.1-2.7,3.6-3,6.3a2.3,2.3,0,0,1-1.4,2.2,37.1,37.1,0,0,1,2.5-7.1c1.9-3.6,1.8-3.7-1.6-4.7l-1.4-.7c-3.6-1.6-6.1-7.5-10.7-5.5a46.6,46.6,0,0,0-11.2-6.8c-1.6-.7-2.6-.5-3.7,1.2,1-3.2-.4-4.2-2.1-4.9a64.4,64.4,0,0,1-7.2-3c-2.6-1.3-4.4.3-5.6,2.5a24.8,24.8,0,0,0-3.6,12.1,22.2,22.2,0,0,1-1.5,7.5c-1.1,3.4-2.7,6.7-2.8,10.2-.3,6.6-1.3,13.1-1.5,19.7-.4,12.4-.3,24.7,2.4,36.9,2,9.2,4.5,18.2,7.1,27.2s7.7,18.1,11.3,27.3c.9,2.3,2.8,1.9,3.6,4.4a27.2,27.2,0,0,0,5.1,8.8c4.9,5.9,9.2,12.8,15.3,17.1,2.1,1.6,4.7,2.9,6.3,5.7a4.4,4.4,0,0,0,3.4,2.3c2.1.5,4.2,1,5.8,3.2h.1c-1,.2-2.8-2.1-2.8,1.4-.1,1.1-.8.5-1.5.2s-3.4-3.3-5.1-4.8a22.1,22.1,0,0,0-4.9-3.9c-2.4-2.8-4.4-6.4-8.3-7.6l2,3.2a51.3,51.3,0,0,1-14.4-17.6c-2.9-5.6-6.1-11-8.8-16.7-1.9-3.9-4.8-6.2-6.5-10.6-2.9-7.7-5.2-15.9-8.7-23.4a60.7,60.7,0,0,1-2.4-7.2,164.9,164.9,0,0,1-3.9-17.2,146.1,146.1,0,0,1-2.1-28c.1-2.8-.6-5.7-.1-8.3s-1-5.7.6-8.2c.4-.7-.3-1.4-.7-2a1.5,1.5,0,0,1,.1-1.7c2.3-2,1.8-5.3,1.7-8.3a10.5,10.5,0,0,0,1.6-4.5,153.1,153.1,0,0,1,7.2-24.7,123.9,123.9,0,0,1,10.7-23.3c3.8-6.4,7.7-13.2,14.1-16.2a1.5,1.5,0,0,0,.7-.5,21.2,21.2,0,0,1,8.5-7.6c2.7-1.5,5.3-2.8,7.1-5.8a3,3,0,0,1,1.7-1.2c4.7-1.4,9.2-3.7,14.1-4.3,2.2-.3,4.2-1.7,6.4-2.2,5.8-1.2,11.4,1.4,17.1,1.1s12.2,1.9,18.1,4.6c7.7,3.6,15.7,5.7,22.4,13.2s11.6,12.6,16.5,20.1c1.3,2,2.2,4.3,3.7,6.2s2,4.9,3.1,7.3,3.8,6.6,5.1,10.5,1.1,6.3,2.7,8.9a17.2,17.2,0,0,1,2.5,5.5c2.3,9.7,6.8,18.5,7.3,28.9.2,4.2,1.7,8.2,2.3,12.4,1.5,9.4,1.5,19,1.8,28.6,0,.8-.3,2.2.8,2.4s1-1.2,1-2c-.5-6.4.7-12.9-1.5-19.1-.2-.4-.2-.6.1-.8s.7-2.8.5-4.3c-.2-3.2-1.1-6.2-1.5-9.3a262.4,262.4,0,0,0-7.4-36.3c-.7-2.5-1.4-5.2-4.5-4.8,2.6-1.6,1.5-3.5.8-5.6s-2.2-5.3-2.5-8.3c0,.6.4,1,.7.9s.4-.9.2-1.4l-2.7-6.3C296.1,294.4,297.3,295.8,297.8,297.5ZM183.2,98.2c-.2-2.4-.8-5.7-3.1-7.9-6-5.8-17-4.9-21.9,1.7s-4.7,7.8-1.8,13.3c4.7,9.1,9.7,11.7,17.8,9.4C180.4,113,183.8,107.3,183.2,98.2Zm98.1,559a32.6,32.6,0,0,0-2.6,11.8c-.7,11.5,3.5,20.3,10.7,26,1.3,1,2.1,0,2.6-1s-.4-1.7-1.2-2a2.7,2.7,0,0,1-1.6-2.4c-.8-4.5-1.4-9-2.9-13.3-.3-.8-.5-1.6.3-2.1s2.5-1.4,1.4-3.4-1.7,1.4-2.9.7C283.8,666.9,283.1,662,281.3,657.2ZM73.2,180.5c.7-3.2,2.5-4.7,4-6.5s2.2-6.1,1.5-9.8-2-2.2-3.3-2.7-2.3,1.4-3.3,2.4-.4,2.3-1.6,1.3-.4-1.8-.1-2.7a13.2,13.2,0,0,1,4.4-6.2,14.2,14.2,0,0,0-9.4,3.4c-1.4,1-2.3,2.5-.8,5C67.5,169.7,70.2,175,73.2,180.5ZM127.8,389c-.7-4.9-.7-4.9,2.8-4.7,1.2.1,1.6-.5,1.4-1.8s.1-5-1.5-6.9c-.1-.1-.7.5-1.1.9-2,2.1-3.4,5-6.1,6-.7.3-.9,1.1-.6,2.1s.5,3.1,1.1,4.2c1.7,2.9-.3,4-1.3,4.8s-1.6-1.5-2.1-2.5a18.6,18.6,0,0,1-1.2-4.2c-.2-.6-.4-1.3-.9-1.3a1.2,1.2,0,0,0-1,1.5c.1,1.1,0,2.3.6,3.2,2.4,3.5,4.6,7.2,7.7,9.6a3,3,0,0,0,4,0c1-1,.2-2.5-.3-3.8A33.5,33.5,0,0,1,127.8,389ZM190,214.9c.1,1.1,0,2.1.9,2.3s1.5-.9,1.7-2a18.5,18.5,0,0,1,6.2-12.3c2.2-2,4.3-3.1,6.9-1.1a.9.9,0,0,0,1.5-.1,2,2,0,0,0,.5-1.9c-1.6-2.8-3-5.7-5.7-6.8s-3.6.8-5,2.4a34.9,34.9,0,0,0-3.3,4.9A32.6,32.6,0,0,0,190,214.9ZM227.4,527c.3,3.7,2.4,6.2,1.9,9.4-.2.7.7,1,1.3,1.3a13.4,13.4,0,0,1,2.3,1.3c1.1,1.1,1.3.6,1.7-.8a40.4,40.4,0,0,0,1-13c.8-.1.9,1.7,1.5.7a2.6,2.6,0,0,0,.3-2.7c-.3-.5-1.3-.7-.7-1.6,2.1-3.3-1.5-4.1-1.7-6.4-1.1,1-2.6-1.2-3.4.2s.3,2.6,1.1,3.8,2.2,1.9,1.6,4.3l-4.5-8.5c-.2,2.8-.2,5.1-.4,7.3s-.2,3.4.7,5,2,2.7.6,3.7-2.1-.8-2.4-2.6C228.3,528.1,228,527.9,227.4,527Zm61.8,223.1a3.2,3.2,0,0,1,2-2.1c1.5-.8,1.4-2.9,1.3-4.7s-1.6-1.2-2.5-1.5-2.3.9-3.3,2.3a15.5,15.5,0,0,0,.6,19.5,2.7,2.7,0,0,0,2.7,1,1.7,1.7,0,0,0,1.6-1.3,2.4,2.4,0,0,0-1-2.1,5.7,5.7,0,0,1-2.6-3.5c.7-.6,1.7,1,1.7.5-.1-2.9,1.2-4.4,2.6-6.2s-.1-2-1.2-2.1S289.8,750.7,289.2,750.1ZM277.3,598.6c-.1,1.9.8,3.7-1.1,4.6s-.4,3.2.7,3,2.2,1.6,2.5,3.1c1.2,4.9,2.2,9.8,3.3,14.7.2.7.4,1.8-.3,1.9s-1.2.9-.9,2.2,2.9-.8,3.6,1.7c.1.1.6-.9.7-1.4C287.1,618.3,285.3,606.1,277.3,598.6Zm.3,276.7c-.7,4-.3,13.1.5,16.1,1.7,5.9,4.6,8.2,8.2,6.4s2.5-3,.9-5.4-1.7-3.1-2.7-4.5C281.8,884.3,280.4,879.5,277.6,875.3ZM78.5,224.2c2.2-.2,4.7-1.8,4.6-3.5s.3-4.6.2-6.8c-.2-3.7-2.3-5.4-4.6-3.8a12.9,12.9,0,0,0-4.6,5.6c-.3.8-1,2.5.1,2.7s1.4,1.7,1.4,2.7C75.5,224.2,77,224.1,78.5,224.2Zm42.8,100.9c-.2,1.4-.1,2.9,1,3.2s2.3,2.2,3.2,3.6l2.5,4.2c.5.7,1,1.3,1.7.6s.2-1.3,0-2c-1.7-4.4-3.8-8.5-7-11.5-1.7-1.6-3.8-.9-5.4-2.2-3.8-3.3-7.2-1.9-10.7.1a2.8,2.8,0,0,0-1.1,3c.2,1.1,1.1.8,1.7.5,3.4-2.1,7.2-1.7,10.9-2.1C119.5,322.4,121.2,322.2,121.3,325.1ZM328,479.1l3.6-.3,12.1-1c.7,0,1.8,0,1.6-1.3s-1.1-1.2-1.8-1.1h-5.4l-23.7,1.5c-.7.1-1.9-.2-1.8,1.2s1.3.8,1.9.8l16.6-1.4C330.3,479.1,329,477.6,328,479.1Zm1.6-128.6a14,14,0,0,0-3.5-9,2,2,0,0,0-3.6.1,3.4,3.4,0,0,0,.9,3.9c3.1,3.1,3.9,7.7,2.1,12.2-.3.9-1.3,1.6-.1,2.8.5-1.5,2.1,0,2.7-1.6A40.5,40.5,0,0,0,329.6,350.5Zm41,534.8c6.1-2.4,10.2-19.5,6.3-25.6C377.1,869.2,372.1,876.2,370.6,885.3ZM309.9,295.2c-.3-1.3-.4-2.5-.6-3.5-.7-3.2-1.8-3.8-3.5-1.7a23,23,0,0,0-3.2,4.9c-1.1,2.1.8,6.8,2.5,6.8S310.1,298.4,309.9,295.2Zm-5.1,288.3a78.9,78.9,0,0,0,5.4,9.3c2.5,3.6,5.2,7,7.6,10.9s3.9,8.6,6.3,12.5c.4.7.6,2.2,1.6,1.2s1.2-1.3.4-3-3.4-4.1-4.7-6.6c-3.7-7.4-8.3-13.8-12.7-20.5C307.8,585.9,306.9,584.1,304.8,583.5Zm-2,121.9a85.5,85.5,0,0,0-6.6-26.2,31.5,31.5,0,0,0,.3,4.4c.2,2.8,2.6,5.8-.1,8.3a1.6,1.6,0,0,0,.2,1c3.5.8,2,4.6,2.6,7S300.1,704.5,302.8,705.4ZM110.8,361c.2-1.2-.6-2-2.1-2.4a5.2,5.2,0,0,0-4.6,1.2,2.6,2.6,0,0,0-.7,3.7c1,1.7,1.8.9,2.4-.4s.9-1,1.4-.4a1.6,1.6,0,0,1,.2,2.2c-1.9,2.4,0,3.8,1.1,5.1s2.1,1.3,2.2-1.1S110.8,364.2,110.8,361ZM201,220.2c-.1-5.2,1.3-9.2,2.8-13.1.3-.6.9-1.1.3-1.9s-1-.2-1.6.1-3,3.2-4.3,5.1c-3.3,4.6-3.2,4.6.9,8.1Zm78.4,429.9c1-1.5.6-2.7.3-3.9-.9-3.8-1.7-7.7-2.6-11.5-.3-1.7-1-3.3.8-4.4s.4-2.1-.5-1.8-2.4-1.2-3.6-2.4C274.1,634.9,275.7,642.7,279.4,650.1Zm-161-313h1.2c1.5.2,2.4-1,2.8-2.5s-.9-2.3-1.8-2.9-3.2-1.8-4.8-2.7-1.4-1-1.7.4-1.1,4.4-.4,6.5,2.4.7,3.7,1.2S118.1,337.1,118.4,337.1Zm82.7-103.6,2.5-.6c.6-.2,1.2-.8.6-1.5-2.4-2.5-4-6.5-7.5-7.1-.7-.1-1.2.1-1.4,1.2C194.8,229.8,197.6,233.9,201.1,233.5Zm76.2,552.6c-7.6,4.3-9.2,9.6-4.8,15.7C274.1,796.7,275.6,791.6,277.3,786.1ZM143,453.6c.4-.7.7-1.7,1.2-1.9,2.1-.6,2.4-1.3,1.1-3.7s-2.2-5.1-1.4-8-.9-2.6-1.7-3-1,1.2-1.1,2.1C140.9,444,141,448.8,143,453.6ZM343.2,344.9c-2.9,5.1-3.8,19.6-1.7,25.5,0-4.6,0-8.2-.1-11.7h.5l.4,5.1h.8C343.1,357.5,343.2,351.2,343.2,344.9Zm-89.1-212a72.4,72.4,0,0,0,7.5-29.7C258.6,112.8,257,123.2,254.1,132.9Zm13.6,690.9a2.2,2.2,0,0,0-1.3-2.3c-2.5-1.5-3.9-4.9-6.5-6.4-.3-.2-.4-1.5-1.2-.8s-.2,1.1,0,1.7c1.5,2.9,2.8,6,4.5,8.8.8,1.2,2.2,2.4,3.6,1.8S267.5,824.8,267.7,823.8Zm41.2-92.7a44.2,44.2,0,0,0-3.9-16c-.8,3.6-.3,6.7-.5,9.7C304.3,729.9,304.6,730.2,308.9,731.1ZM46.1,285.6c1.1-.9,3.4.4,3.4-2.6s-2.9-6.5-4.8-5.9-1.6,3.6-1.7,5.8S44.8,285.1,46.1,285.6Zm136.1-46.5c-.2,2.9.8,3.3,2.8,2.4s3.2-1,1.7-4.1a2.8,2.8,0,0,1-.1-1.8c1.6-2.4-.5-3-1.4-3.6s-2.3.2-2.7,1.9A11.2,11.2,0,0,0,182.2,239.1ZM118.8,370.8c-.5-1.8-.6-3.8-1.2-4.2s-2.7-5-4.8-4.2-.8,4.2-1.1,6.4,1.4,3.3,2.5,2.3S116.9,370.2,118.8,370.8Zm13.5,99.5a3.2,3.2,0,0,0,.8,3.1c2,2.2,3.8,4.6,5.9,6.6s4.3,4.4,6.8,5.6c.7.3,1.6,1,1.9-.6s-.1-2-1-2.3C140.9,480.6,136.9,475,132.3,470.3ZM104.1,333.8l-1.9,4.3c-.9,1.8,1.7-.3.9,1.5s-2.1.1-2.1,1.9-1.1,3.1.5,3.8,3.1,1.7,4.2-.3S105.4,335.9,104.1,333.8Zm129.5,232c3.1-.7,7.4-6.2,7.9-9.8a3,3,0,0,0-.9-2.9c-.5-.4-1.5-.8-1.5-.1-.2,3.6-1.7,5.4-4,7.2S234.1,563.8,233.6,565.8Zm83.8-145.5c-.6,4-2.2,7.4-3,11.3-.2.9-.6,1.8.3,2.6l4,3.6C318.8,431.7,316.8,426.1,317.4,420.3Zm32.1,341.5c.7-1.3,2.7-.5,2.4-3s-2.8-6.8-4.1-6.2-1.9,3.4-1.9,5.4S348.2,760.6,349.5,761.8ZM111.6,329.2c-1.5.8-3.6.3-5.1,2s-1.2,1.9.2,2.5,1,1.1,1.6,1.5,3,1.9,3.9.6.7-4.1.7-6.3C113,328.8,112.2,328.9,111.6,329.2ZM93.9,356.8c1.9-2.1,1.2-4.3,1-6.3s-.1-1.3,1-1.2.6-.4.6-.8c-.2-3.3-.5-6.7-2.5-9.9C92.1,344.7,93.4,350.5,93.9,356.8ZM46.3,273.4c-1.6-4-2.4-8.3-5.2-11.2C39.3,269.6,41.2,273.6,46.3,273.4Zm53.6,92.7-1.6-3.9c-.3-.9-.4-2.2-1.4-2s-.6,1.6-.7,2.5c-.6,3.8,2.2,5.5,3.3,8.3s2.5,4.3,3.8,2.8-1.2-3.4-1.8-5.3-.7-.9-1,0-.3,1.8-.9.6-1.3-1.6-.3-2.3S100,366.5,99.9,366.1ZM178,232.7a21.6,21.6,0,0,0-3.8,14.2c.2,1.1.5,1.6,1.3,1s2.8-1.8,1.8-4.4c-.3-.9-.8-1.9-.3-2.8S177.6,235.3,178,232.7ZM321.5,453.5c.7-7.9-.2-25.8-1.4-29.6C320,434.1,319.3,443.8,321.5,453.5Zm-206.1-114c4.8,3.7,9.6,1.7,14,3.4.6.2,1.4.2,1.5-1s-.6-1.1-1.2-1.3C125.1,339.1,120.5,339.2,115.4,339.5ZM267.6,554.2a8.3,8.3,0,0,0-.1,1.2c-.2,2,2.5,5-1.1,5.9-.5.1,0,2,.6,1.8,3.5-1.5,2.8,2.2,3.4,4.3s1,6.9,2.2,10C271.9,564.1,271.6,562.9,267.6,554.2Zm-.4,231.7a51.3,51.3,0,0,0,4.5-5.7c.5-.9-.2-2.5-1.1-3.2s-1.4-.1-1.8,1-.8,1-1.6,1.2-2.6,2-2.3,4.3A3,3,0,0,0,267.2,785.9ZM301,580.3l-8.1-11.9C293.3,577.2,296,581.1,301,580.3Zm12.7-116.9c-.4-1.1,0-3.2-1.5-3.3s-2.7,1.9-2.2,4.8a10.3,10.3,0,0,1-.1,4.6c-.3,1.4-1,3.2-.1,4.8s.6.2.8.1.6-3.1.7-4.8-.7-3,1-3S313.7,464.9,313.7,463.4ZM113.6,379l2.8-1.2a1,1,0,0,0,.5-1.4c-.1-.4-.6-.8-.9-.7-2.8.7-5.3-.8-7.9-1.9-.9-.4-1.5-.5-1.7.9s-.3,2.3,1,2.6Zm-11.4-20c2.9-1.1,2.9-4.5,3-7.4s-1.9-2.5-3.1-3.4-1.7-.6-1.5,1.1-.8,2.1.9,2.2,1.7.9,0,1.4c-.2.1-.2.7.1.9s1.2-.1,1.1,1.1-.7,1.1-1.4,1.2-.4,1.2-.2,1.8S101.5,359.4,102.2,359Zm209.5-58.3h.1a31.3,31.3,0,0,0,.4,4.4c.1.7-.1,2.1.8,2.1s.5-1.2.5-2,.2-2,.5-1.7c1.9,1.9,1.1-.7,1.1-1.2a33.8,33.8,0,0,0-.1-4.5c0-.4-.2-1.3-.5-.9s-1.2-.5-1.2-1.1.3-1.8-.8-1.8-1.3.7-1.2,1.9S311.5,299.1,311.7,300.7ZM266.3,814.5c-3.4-4.5-4.4-9.8-6.1-14.7l-.4.6c-2.4,2.9-2.4,2.9.7,5.5.3.2.7,1,.6,1.1-2,3.4.8,3.1,1.9,4.2a2.6,2.6,0,0,1,.8,1.9C263.1,818.5,265.2,814.1,266.3,814.5Zm70.1,99.6a4.7,4.7,0,0,1-3.3,1.7c-2.6.1-3.6,4.4-6.6,3.6-.5-.2-.6,1.3-.4,2.2s.5,1.3,1.2,1.1C331.2,921.4,334.8,919.5,336.4,914.1ZM41.2,283.2c.4-1.8.5-3.2.8-4.4s-.4-3.1-1-4.6-1.5,4.1-2.5,0c-.2-.8-1.5-.1-1.9.6a2.3,2.3,0,0,0,0,2.3C37.7,279.5,39.4,281,41.2,283.2ZM352.6,650.3a13.9,13.9,0,0,1-6.4,5.9c-3.1,1.3-3.1,1.2-5.2,4.2C345.4,661.2,351.7,655.9,352.6,650.3ZM216,244.9c3.8,0,7.1-.3,10.4,1.1.7.3,1.7.4,1.8-.9s-.6-1.4-1.4-1.5a93,93,0,0,0-10.5-.9c-1.2,0-3.7-1-3.6,1.3S215.2,244.1,216,244.9ZM35.4,272.3c3.3-.3,2.8-3.1,2.7-6.1s-1.5-2.7-2.8-3-1,1.6-1,2.7A12.2,12.2,0,0,0,35.4,272.3Zm88.6-6.4-.7-1.2c-1.1.4-2.6-1.1-3.5.8s-2.6,5.6-3.8,8.4c-.3.6-.7,1.4,0,1.9s1-.2,1.4-.7ZM142,290c1.3-3.7,5.6-4.3,5.3-9.3C140.8,282.2,140.8,282.2,142,290ZM308.4,471.1c-.2-3-.4-3.4-1.3-2.7s-3.9,1.2-3.9,4.6c0,.6-1,1-.1,1.8a.9.9,0,0,0,1.3.1c.4-.3,1.1-1,1.4-.8C309.2,476.1,308.2,472.7,308.4,471.1ZM31,265.9c.1.4-.3,1.7.8,1.6s.6-1.3.5-2.1c-.3-5.6.3-10.8,3.2-15.1.5-.7,1-1.5-.2-2.2s-1.6-.7-1.9.5A64,64,0,0,0,31,265.9ZM152,481.1c.8-1.9,0-5.4,1.6-5.4s1.3-1.6,1.1-3-2.1-2.2-3-3.8C151.7,473.1,150.1,477.1,152,481.1ZM379,857.3c1.2,7,.2,13.9-.2,20.8C381.5,870.5,381.5,862.8,379,857.3Zm-35.7-107a3.1,3.1,0,0,0-3.2,3.1c0,2.7,2.4,2.5,3.8,2.9s1.8-2,1.9-3.3S344.7,750.5,343.3,750.3ZM36.2,253.3a42.6,42.6,0,0,0-1.1,4.2c-.1,1.3,0,2.8,1.6,3.4s2.7.8,2.5-1.7-1-3.3-1.7-5A1,1,0,0,0,36.2,253.3Zm66.5,72.9c-.1-1.2-.5-1.4-1.3-.9-2.8,1.5-3.5,5.7-5.7,8a1.2,1.2,0,0,0,.1,1,.6.6,0,0,0,1,.1c.7-1.4,1.9-1.8,2.7-2.8S101.7,327.9,102.7,326.2Zm106.9-101c1.6-3.8,1.3-7.6.9-11.3a1.6,1.6,0,0,0-.5-.8c-.5-.2-.7.2-.9.7C208.2,217.4,207.5,221,209.6,225.2ZM385.3,496c-4.9,4.5-9.3-1.1-13.9-.5C376.9,500.1,382.5,500.5,385.3,496ZM277.7,632.9l2.9,14C281.7,642.7,280.2,635.1,277.7,632.9ZM226.4,825.5c.6,1.4.2,4,1.7,3.6s1.5-3.6,1.9-5.8-1-2.4-1.5-2A5,5,0,0,0,226.4,825.5ZM154.3,110c1.9,5,5.1,7,8.6,8.7.4.2.7.8,1-.1a2.2,2.2,0,0,0-.2-1.3C160.1,116,157.7,112,154.3,110ZM308.4,743.3c.3-3.7.8-6.1-.6-8.8s-2.3-.7-3.4-1.1-.9.5-.8,1.3,1.2,1.5,2.1,1.6.8.9,1,1.5S307.6,740.7,308.4,743.3Zm56-257.8c-.6-5.5-1.9-10.7-1.2-16.3.1-1.1,1.3-3.3-.1-3.5s-.2,2.1-.5,3.3C360.7,474.7,363.2,480.1,364.4,485.5ZM190.3,253c2.1-1,4.1-2.1,6.1-3.2.4-.2,1.2-.3.9-1.5s-.6-1.5-1.5-1.3-2.7,0-2.4,2.4-.1,1.4-.8.9S190.6,251,190.3,253Zm-74,103.7c3.6,1.4,7.3,1.6,10.7,3.5.7.4,1.3.2,1.4-1s-.3-2-1.2-2.1Zm149.1-97.1a2.2,2.2,0,0,0-.6.5c-.7,1.4-.7,3.1.5,3.9s2.6,2.7,4.4,1.8a1.4,1.4,0,0,0,.2-.7C269.9,263.8,266.5,259.5,265.4,259.6ZM358,771.2c.6-5.6.7-11.3-2-16.5C357.3,760.1,357.2,765.7,358,771.2Zm-61.2-496c-.8-.4-.1-2.4-1-2.3s-1.7,1-1.7,2.5.8,1.7-.3,2.2-1.9-1.3-1.1,1,.9,2.9,2.1,2.8.6-1.5.5-2.4.1-1.7.9-1.9S297.1,276.3,296.8,275.2ZM262.1,861.9c.4,1.8.6,4,2.3,4.2s1.4-1.8,1.4-3-1.9-2.5-2.9-3.4S262.1,860.9,262.1,861.9Zm87.3-388.2c.8-.1,1.9.3,2.5-.8s-.1-.8-.2-1-2.2-2.4-3.5-2.3-2.2.1-2,2,.5,2.8,2,2S348.9,473.7,349.4,473.7ZM312,257.3l-1-6.7c-.1-.8,0-1.8-1-1.8s-1.1.6-1.3,1.6C308.1,253.8,309.6,255.6,312,257.3Zm-35.5,510c-2.2-.4-2.8.8-2.7,2.7s.2,1.3.8,1.2.8-.3.8-.7-.1-2.6,1.1-2.4.8,1.8,1,2.8.9,1.4,1.3,1.2a4.1,4.1,0,0,0,1.5-1.9c.4-.9-.5-1.1-.9-1.5A4.1,4.1,0,0,0,276.5,767.3ZM159.8,487c-2.9.4-5.7-.7-8.4-2.1-.8-.4-1.9-.7-2.1.8s.9,1.5,1.6,1.7C154,487.9,157,488.3,159.8,487Zm157-2.3c1.4-.3,3.5-.4,3.2-2.4s-2.1-.4-3.3-.8h-.3c-.8.3-2.3-.6-2.1,1.8S316,484.3,316.8,484.7Zm3.8-151a45.4,45.4,0,0,0,.3-11C319.8,326.1,318.1,329.4,320.6,333.7ZM144.8,69.8H144c.5,4.7-1.5,9.4,1.3,14.5C145.1,79.2,145,74.5,144.8,69.8Zm81.9,136.6,3.4,2.1c1.3.9,1.8,2.5,2.4,4.1s.8,2.9,2.2,4.1C233,209.1,229.9,205,226.7,206.4Zm30.6,585.7c1.9-.2,2.1-2.1,2.4-3.8s-.2-2.7-1.3-3.4A14.4,14.4,0,0,0,257.3,792.1ZM258,69.6c1,4.1.1,8.4,1.2,12.5C259.9,77.9,259.9,73.7,258,69.6Zm47.6,193.8c-.2-.6-.5-1.3-1-.7-1.5,2.1-3.1,4.3-4.5,6.6-.4.7,0,1.5.8,1.4S305.6,264.2,305.6,263.4ZM301.9,710c-.7,1.1-.6,2.5-1.6,3.1s-.3,2.6.2,2.3c3-1.3,1.7,2.6,2.7,3.9C303.8,715.9,303.8,712.9,301.9,710Zm-26.8,70.3a10,10,0,0,1,2.6,1c1.1.6,1.8.4,2.2-1a1.8,1.8,0,0,0-.6-2.2C277.3,776.8,276,777.7,275.1,780.3Zm-16.7-36.7a73.8,73.8,0,0,0,4.7,16.4C262.2,754.3,259.9,749.1,258.4,743.6ZM355.3,629c-.7-5.7-3.5-11.8-6.5-13.4A53.3,53.3,0,0,1,355.3,629Zm-65.4,37.1,1-.2c-1.4-4.2-1.6-8.8-3.7-12.8Zm38.6-280.7V373.5h-1C327.8,377.4,326.5,381.4,328.5,385.4ZM301,748.5h-.5c-.3,1.6-.5,3.2-.7,4.9s-.6,2.1.4,2.6,1-.3,1.5-.6.6-1.6.4-2.5S301.4,749.9,301,748.5Zm19.8-288c1.2,0,1.9-1.2,3.1-.8s.5-1.2.5-2-1.2-1.3-2.1-1.2C319.7,456.6,321.5,459.1,320.8,460.5Zm47.5,25.8c-.6-2.8-1.1-5.7-1.7-8.5-.2-.6-.8-1.3-1.2-1.3s-.7,1-.5,1.4C366.4,480.5,366.4,483.9,368.3,486.3Zm-91.1,41.1c.5-4.4,1.7-8.5.9-13C277.3,518.7,276.5,522.9,277.2,527.4Zm63.6,107c-.1-1-.2-2.8-1.5-2.7s-1.5,1.9-1.6,3.2a2.1,2.1,0,0,0,2.1,2.2C340.9,637.2,341,636,340.8,634.4Zm-141.5-413c-2.5-3.1-3.4-3.3-5.8-1.7,1.4,1.3,2.5,3.2,4.5,3.3l-.8-2.9Zm7.2,24.8c.9-.9,2.9.7,3.1-1.8s-1.2-2-1.6-1.5-3.2-.4-3.2,2.4S205.9,245.9,206.5,246.2ZM85.1,334.3c1.9,1.4,3.8.7,5.2,2.3s.8-.6,1.1-1,.5-1.2-.2-1.4S87.3,332,85.1,334.3ZM120.7,438c-.8,5.3.1,11.1,2.4,15.1a74,74,0,0,1-1.8-7.6C121.1,443,121.6,440.4,120.7,438ZM269.1,574.3c.8-3.1-.7-5.8-.6-8.8.1-.5-.2-1.3-.9-1s-.7,1-.6,1.7Zm55.6,54c-.5,3.6-.8,7.2.7,10.7a30.9,30.9,0,0,0-.2-5.3C324.9,631.9,325.9,630.1,324.7,628.3ZM141.3,277.5l7.6-.7c.4-.1,1.1,0,.9-.9s-.6-.9-.9-.9C146.6,275.6,143.9,274.6,141.3,277.5ZM328.9,616.8a13.9,13.9,0,0,0,6.8-5.2C332.5,611.5,331,614.8,328.9,616.8Zm-74.4-72.9c-.7-3.6-1.5-7.2-2.3-11.4C252,541.2,252.5,543.4,254.5,543.9Zm43.8,186.4.6-.2-1.2-9.2c-.2-.8-.4-1.5-1.1-1.3s-.4,1.1-.3,1.8C297,724.4,297.6,727.3,298.3,730.3ZM288,505.7c-.9-4,1.9-7.3.8-11.3C288.9,498.2,286.2,501.5,288,505.7Zm-18.5,95.4c.1-4.7-1-9.8-2.5-12A46.5,46.5,0,0,0,269.5,601.1ZM283.3,513a41.5,41.5,0,0,0,1.5-11.2A32.3,32.3,0,0,0,283.3,513Zm-1.1,218.5a18.6,18.6,0,0,0-.8,9.4C281.8,737.8,283,734.8,282.2,731.5ZM270.3,587.8l-2.1-10.9C267.4,580.9,268.6,584.4,270.3,587.8ZM146.4,167.3c.2.9-.2,2.3.9,2s1.4-2,1.7-3.5-1.1-1-1.4-1S146.7,166.4,146.4,167.3ZM284.3,523c-.9-.3-1.5.4-2,.9s-1.2,2.6-1.3,4.2a.9.9,0,0,0,.6.6c1.1-.3,1.4-1.8,2.1-2.7A4.1,4.1,0,0,0,284.3,523ZM348,475.6c3.6,1.5,3.6,1.5,6.3-.1C352.2,474.3,350.1,474.9,348,475.6ZM200,245.1c-.7.5-1.9.5-1.6,2.3s1.1,1.1,1.8,1.1,1.8-.3,1.4-1.9S201,244.8,200,245.1ZM341.6,612.6c2.3.6,4,2.2,6.5,1.2C345.8,612.8,344.4,609.5,341.6,612.6ZM144.8,164.8c-.7,3.3-.1,6.2-1.3,8.6a1.1,1.1,0,0,0,.7,1.4c.6.1.7-.6.7-1.2A23.8,23.8,0,0,0,144.8,164.8ZM272.2,512c-.6-.5.3-2.6-1.7-2.2s-1.2,1.5-1.1,2.2c.2,2.4,1.2-1.5,1.6.3s-.4,1.9.7,1.1A.9.9,0,0,0,272.2,512Zm9.3,247.2a31.6,31.6,0,0,0,.1-10.2C281.3,752.7,280.3,755.8,281.5,759.2ZM147.9,456.1c.6-.9,2.1-.5,2-2.1a1.7,1.7,0,0,0-1.6-1.7,2.1,2.1,0,0,0-1.8,2.3C146.6,455.3,147,456.3,147.9,456.1ZM318.3,919.8a2.5,2.5,0,0,0-2.2-2.6c-.9-.2-.7,1-.8,1.8-.2,2.4,1.6,1,2.3,2S318.2,920.3,318.3,919.8Zm32.1-583.7a24.5,24.5,0,0,0-.9-6.3c-.3-1-.9-1.3-1.6-.9s-.6,1.6-.1,1.8,1.2,1.6,1,2.9A1.9,1.9,0,0,0,350.4,336.1ZM262.1,775.2c-1.7,1.2-1.4,3.3-2.2,4.6a1.1,1.1,0,0,0,.4,1.7c.8.5,1.2,0,1.3-1S261.9,777.2,262.1,775.2ZM246.8,521.8c0-1.3-1.7-.5-2.7-1.1s-.7.5-.7,1.1,1.6,1.9,2.6,2.4S247.1,523.9,246.8,521.8Zm24.7,240.3c-.7.1-1.2.2-1.1,1.5s1,2.2,2.1,2.3,1.6-.2,1.4-1.2S272.9,762,271.5,762.1ZM266,805.5c1.5-2.6.5-4.4-.3-6.4C264,801.2,265.3,803.1,266,805.5Zm67.2-497.6c-.6,1.4-1,2.2-1.3,3s.2,3.5,1.1,2.5S334.2,310.3,333.2,307.9ZM136,316c-.5-2-.8-3.4-1.2-4.8s-.7-1.5-1.3-1.2-.6,1.4-.3,1.9S134.2,315,136,316ZM279.9,618.9c-.7-3.8-1.3-6.8-1.8-9.9-.1-.6-.1-1.3-.8-1.2s-.7.8-.4,1.4C278.1,612,278,615.5,279.9,618.9ZM147.1,96a21.7,21.7,0,0,0-2.6-8.8C144.9,90.1,145.1,93,147.1,96ZM264.4,787.7c-1.2,1.3-.9,2.7-.7,4.2s-.7,1.9.3,2.6a.7.7,0,0,0,1.2-.4c.4-1,.5-3,.2-3.1S265.1,788.8,264.4,787.7Zm12.9-25.4c-.4-.9-1.5-.8-2.5-.8s-1.6-.3-1,1.2.7,2.4,2,2S277.5,764.6,277.3,762.3Zm-7.3,6.3c-.6.4-2-.3-1.6,1.6s.2,2.1,1.4,1.7a2.2,2.2,0,0,0,1.6-2.2C271.5,768.1,270.6,768.8,270,768.6Zm22.3-8a7.1,7.1,0,0,0-.6-5.7c-.4-.5-1-.3-1.2.4S290.9,758.8,292.3,760.6Zm-35,37.8c1.3-.6,2.9-.4,2.4-2.9s-1.3-1.4-1.8-1.1S257.6,796.9,257.3,798.4Zm71-483c-2.9-1.5-4.9-3.3-7.3-2.7C323,314.4,325.1,315.7,328.3,315.4ZM191,223.8a13.6,13.6,0,0,0,2.4,9.3C192,230.2,191.8,226.9,191,223.8ZM50.3,291.1c.9,0,1.1-.8,1-1.7a2.4,2.4,0,0,0-1.6-2.3c-.9-.3-.9.8-.8,1.7S49.1,291.1,50.3,291.1Zm97-115.6a2.8,2.8,0,0,0,1.3-3.1c-.2-1.2-.9-1.2-1.5-1.1s-.5,1.7-.7,2.5S146.7,175.4,147.3,175.5ZM252.1,547.2c1,1.2,2,.7,2.8.6s2.2.3,2-1.1-1.5-.4-2.2-.5A2.8,2.8,0,0,0,252.1,547.2Zm64.6-313.9c0-1.9-.2-3.4-1.5-4.2s-.8,0-.8.6S314.7,233.2,316.7,233.3ZM135.9,284.4c3.7-3,3.8-3.1,3.8-6.3Zm-66.5,4.9,4.2,1.3c.8.3,1-.3,1.1-1.1s-.1-1.1-.6-.9S71,287.9,69.4,289.3ZM64.5,184.4c-1.6-.6-3.1-2-5.1-1.8C61,185.1,62.6,185.8,64.5,184.4ZM313.1,348c.2,2.6,0,4.5,1.2,6.6C314.9,352.1,315.3,350.2,313.1,348ZM275.6,614.2a7.7,7.7,0,0,0,.3,2c.5,1.1,0,2.7,1.2,3.4s.6-.2.7-.4a5.4,5.4,0,0,0-1.2-4.3C276.5,614.7,276.2,614.6,275.6,614.2Zm2.6,8.6c.5,2.7.3,5.6,2,8.2C280.3,627.7,279.1,625.2,278.2,622.8Zm15.7,70.9c.7-2.4,0-4.7-.7-7.7-.3,1-.6,1.3-.5,1.6Z" fill="url(#a)"/><path d="M167.5,530.3c-.1.2-.4.7-.5.7-5.3-1.7-10.2,1.5-15.4.8s-8.4,3.3-12.1,6.6c-.7.7-.3,1.6.1,2.3s1,4.4.2,6.5-3.9,1.9-6.1.8c1.8,2.6,3.7,1.7,5.6.8-.3.3-.7.9-1.1.9-4.2-.4-4.4,3.7-5.2,7.5s-2.5,10-5.4,13.8-5.9,6.3-10.1,5.5-5.6-.2-8.3-1.8a4.7,4.7,0,0,1-2.3-3.7c1.3-.7.4-1.1-.1-1.9-6.1-9.3-7.2-22.4-3.6-32.4.8-2.1,1.6-4.4,3.3-5.8,5.9-5.2,15.5-4.8,20.4,4,.3.7.5,1.7,1.4,1.4.4-2.6-1.8-3.1-2.5-4.8-2.2-5.4-10.1-8.5-14.2-6A23.1,23.1,0,0,0,101.2,538c-2.5,7-1.8,13.8-.1,20.9,1.1,4.7,3.5,8.5,5.9,12.2-2.4.2-3.1-2.6-4.1-4.6a41.3,41.3,0,0,1-4.4-22c.4-4.4,2.1-8.3,3.7-12.2,4-9.9,11-10.8,18.3-7.8,3.5,1.4,7.9,2.9,10,8.6.7,2,1.7,2.2,2.6.2a11.1,11.1,0,0,0,.9-1.9c2.1-6,4.1-7.3,9.2-6.1l3.9,1-9.6,7.2c3-.4,6.2-.8,8.8-2.2,4.9-2.5,9.7-5.4,14.6-8,1.9-1.1,1.9-3.4,2-5.4s-.6-3.2-2.1-3.6-3.5-.6-4.4,2.1c-.1-3.5,1-4.9,3.5-4.8s4.1,2.4,4.3,5.1-1.1,4.3-.1,6.6h0c-.4.3-1,.5-1.1,1s-2.3,2-1.1,3.8,2.6,1.6,3.9.1a18.3,18.3,0,0,1,3.1-2.4Zm-47.6,3.4c-.2-.5-.3-.9-.4-1.2-1-2.9-5.8-4.2-7.5-2.1a2.9,2.9,0,0,0-.2.9c1,2.2.3,3-1.4,3.2a2.6,2.6,0,0,0-2.6,2.2c-.2,2.2,4.5,8.1,6.3,8.3s3.7,2.9,2.9,5.1-.1,5.3,1.4,7.6a28.9,28.9,0,0,1,1.8,4.4c-2.4-3.5-3.9-7.9-7.5-9.9a1.3,1.3,0,0,1-.5-.9c-.6-4.6-3.8-7.5-4.6-12-.1-.6-.5-1.2-1-1.1a1.5,1.5,0,0,0-.7,1,58.1,58.1,0,0,0-1.6,14.5c.1,2,.9,2.9,2.3,3.2a3.9,3.9,0,0,0-.8,4.1c2.2,7.5,10,11.4,14.9,7.3.3-.2.9-.3.6-.9s-1.2-1.5.3-1.3.3-2.1.7-2.4.9,3.2,2.5,1.3a19.2,19.2,0,0,0,4.8-15.2c-.6-6.6-2.1-12.9-6.6-17.4-.7-.8-1.4-2.1-2.3-1.9S120.6,532.7,119.9,533.7Zm19.5,10.1c-.7-1.7-1.1-3.8-3-3.2s-2.4,1-1.9,3.2.6,3.6,2.5,3.3S139.4,545.9,139.4,543.8Zm-27.3,27.6c3.8,1.3,7.8,3.5,11-2.6C119.3,570.8,115.8,571.8,112.1,571.4ZM155,531.1c.9-.7,2.4-.2,3.2-1.9a1.8,1.8,0,0,0-.4-1.7c-1.3-1.1-2.3.2-3.5.5s-.1.1-.2.2-2,.4-1.6,1.9S153.9,530.9,155,531.1Zm-12.3-3.5c-2.2-.8-3.7-.1-5,1.6a1.5,1.5,0,0,0-.1,1.9c.5.6.9.1,1.2-.4S141.4,529.1,142.7,527.6Z" fill="url(#b)"/><path d="M219.9,613.9v.2c.1,2.4-2,5-.3,6.8s2.7-1.4,4.1-2.3l-.3,2.4a9.5,9.5,0,0,1-1.7,2.8c-6.2,4.2-5.6,12.7-6.9,20-.3,1.9-.4,2.5-1.9,1.8s-2.9-.2-4.4.2c1.7,2.6,4.4,3.4,6.4,4.4,4.3,2.1,6,6.6,7.4,11.1.7,2.3,2.2,3.7,2.7,6.6,1.6,8.9-1.6,15.3-4.8,21.7s-16,7.4-20.9.5c-1.2-1.7-2.6-3-3.8-4.6-2.6-3.6-3-7.9-3.9-12.1-2.1-9.3-.1-17,4.8-23.5l-2.1,6.2a39.7,39.7,0,0,0,3.7-4.2c1.9-3,4.1-5.5,7.3-6.1.9-.2,1.9-.1,2.4-1.3a1.3,1.3,0,0,0-.1-.9,2.7,2.7,0,0,0-3,.4l-.4.4c3.4-.9,3.3-4.2,3.3-8,0-5.4,3.2-10,7.1-11.2a2.6,2.6,0,0,0,2-2.5c.5-2.3,1-4.7,1.6-7S218.4,613,219.9,613.9Zm-10.5,41.6c2.2-1.9-.7-3.2-.2-4.7s-.2-2.2-1.3-2.1-4,.4-5.9,2.7-3.5,4-2.9,7.8a1.6,1.6,0,0,1-.7,1.1c-3,1.3-2.7,5-3.1,8.1-.7,5.5,2.7,14.8,6.2,17.6s9.6,2.8,14.5,1.1c2.2-.7,2.2-3.5,3.4-5.2,3.7-5.6,3.7-12.3,2.2-19.2a19.9,19.9,0,0,0-5.2-10.2c-1.4-1.4-3.4-.2-4.6-2.6C212.7,653.1,212.2,655,209.4,655.5Zm5.6-27.4c-1.2,2-3-.3-4.1,1s-3.1,8.2-2.3,10.9c.2.6.6,2.3,1.2,1.3s1.5,1.6,2.5.7C213.2,637.5,214.1,632.8,215,628.1Zm-21.7,46.8c.1-5.2-.9-9.3-.6-13.5C191.1,665.6,191.3,669.8,193.3,674.9Z" fill="url(#c)"/><path d="M124.4,165.9c3,.5,5.8-1.3,6.6-5a41,41,0,0,0-1.6-23.7c-1.6-4.5-3.9-4.3-6.5-4.6a18.4,18.4,0,0,0-15.2,5.8,10.3,10.3,0,0,0-2.5,4.6c-.4,1.7-.1,2.5,1,3.2s4.4,4.1,6.5,6.1a1.2,1.2,0,0,1-1.6-.2c-3.1-3.5-6.9-5.4-10.3-8.2a14.3,14.3,0,0,0-2.1-1.2c-.9-.4-2.8-.3-2.5-1.5s1.1-3.1,1.7-4.7.8-.3,1.1-.1,1.9,0,2.4-1c1.5-2.7,4.5-1.1,6-4.3.4,1.9-.8,2.4-.2,3.9,5.6-.7,10.6-4.5,16.7-3.9a5.2,5.2,0,0,0-.6-1.2c-.6-.8-1.5.9-2-.5s0-.8.2-.9a2.2,2.2,0,0,1,2.2.1c12.3,8.2,14.9,25,10.2,38.4-1.3,3.4-3.7,3.7-6.2,4.2l2.7,6.1C128.2,173.6,125.3,170.7,124.4,165.9Z" fill="url(#d)"/><path d="M255.8,789.2l-.4.2c-.2.1-.4,0-.5.2s-1.7,1.8-1.8,3.4.1,1.3-.5.8-.3-.7-.6-1.6c.1,4.7.2,8.9,2.6,12.4.4.8.9,1.7.3,2.3a3.9,3.9,0,0,1-2.3,1.3c-.6.2-.7-.9-.4-1.3s.2-3.2-.3-4.7a19.9,19.9,0,0,1-.8-9.9c.8-4.4-1.1-6.4-3.6-7.8-5.6-3.4-11.1-7.4-16.5-11.4a3.5,3.5,0,0,0-1.6-.6c-4.9.7-7.6-2.9-7.1-9.4s3-7.1,6.7-4.3c-.7-.1-1.4-.5-2-.4s-2.3,2.7-2.6,4.6,1.1,2.2,2.1,2.5,1.8-1.4,2.7-2.2c.3,1.2.1,3.2,1.6,2.6s1-2,.4-3.2-.8-1.5-1.1-2.2c2.1,1,2.8,3.2,1.5,6.2s-.5,3.7,1.4,4.8c5.6,3.7,11.2,7.5,16.8,11.1,2,1.2,3.5,3.4,5.6,4.6S255.9,788.4,255.8,789.2Z" fill="url(#e)"/><path d="M113,152.6c1.1.8,1.9.6,3.2-.1s4.1-4.2,7.1-2.6,3,2.6,2.2,6.1c-.9-3-2-5.1-4.3-3.9s-1.9,3.4-1.7,5.9,1.1,1.7,1.7,2.6a11.6,11.6,0,0,1,2,4C119.8,160.5,115.9,157.3,113,152.6Z" fill="url(#f)"/><path d="M167.5,530.3c.5-1.5.9-3,1.4-4.6s3-4.1,3.6-7c-3.3.1-5.3,3.9-8.4,4.5h0c.6-3.1,3-3.5,4.6-4.4a116.9,116.9,0,0,0,11.1-6.7,2.2,2.2,0,0,1,2.7,0c-.8,1.6-2.3,1.7-3.3,2.1-5.3,2-5.9,9.1-8.9,13.5C169.5,529,168.9,530.3,167.5,530.3Z" fill="url(#g)"/><path d="M103.7,150.6l.6,1.1c-1.5,1.1-2.6.3-3.8-1s-3.6-3.5-6-3.3-2.9-.8-3.9-3c4.9-1,8.6,2.8,12.7,5C103.5,149.5,103.6,150.2,103.7,150.6Z" fill="url(#h)"/><path d="M367.8,454.1l-1.9.7c2.1-5,5.6-6.6,9.7-6.8C372.6,449.2,369.4,450,367.8,454.1Z" fill="url(#i)"/><path d="M150.7,37.3c-.1-5.4,3.4-8,4.9-12.1l.7.5c-1.9,3.8-3.8,7.7-5.6,11.5Z" fill="url(#j)"/><path d="M75.9,138.5c.9-1.6-.4-4.5,1.9-5s1.1,1.4,1.1,2.4C79,138.4,78.1,139.3,75.9,138.5Z" fill="url(#k)"/><path d="M347,485.4c.8-.6,1.5-2,2.7-1.3s1.8-.1,2.5.8C349.6,488.3,348.6,488.4,347,485.4Z" fill="url(#l)"/><path d="M325.1,733.1c-3.4,2.7-4.9,6.7-5,11.7C318.9,738.9,321.4,735.6,325.1,733.1Z" fill="url(#m)"/><path d="M218.4,3.7c-2.9-.6-4.8-2.1-6.8-3.7C213.8,1.1,216.6-.2,218.4,3.7Z" fill="url(#n)"/><path d="M265.7,841.1c-.7-3.1-1.1-6.1,1-8.4h-.1c0,2.8.4,5.8-1,8.3Z" fill="url(#o)"/><path d="M194.2,487.6c.2.4.6.9.5,1.3s-.8.2-1.1.1c-2.8-1.2-4.9-4.2-8.2-6.4a6,6,0,0,1,3.9,1.1A22.1,22.1,0,0,1,194.2,487.6Z" fill="url(#p)"/><path d="M126.2,226.9a23.3,23.3,0,0,1-.9,12.3h.2A22.5,22.5,0,0,1,126.2,226.9Z" fill="url(#q)"/><path d="M136,469.8c-1-1.8.5-2.9.5-4.5.6,2,2.9,3,1.8,5.7-.5,1.1-1.1,1-1.8.1S136.2,470.2,136,469.8Z" fill="url(#r)"/><path d="M326.6,319.6a4.1,4.1,0,0,1,.6,4.9c-.4.7-1.1.2-1.5-.5s-.1-3.1,1-4.3Z" fill="url(#s)"/><path d="M217.8,340.7c2.6,1.5,5.5,2.1,8,4.6a27.5,27.5,0,0,0,3.1-12.5c.3-8.8,1.2-17.1,5.7-23.8,1.6-2.4.4-3.2-1.1-3.1-7.9.7-15.9,1-22.7,6.8-.5.4-.8.7-1.1,0s-1.6-.3-2.3.1c.6-2.9,3.1-2.3,4.5-3.4a10.6,10.6,0,0,1,3.7-1.8c6.3-1.2,12.2-4.7,18.7-4.2,3.2.3,5-1.5,6.2-4.7s5.2-6.2,6.3-11c-.6,4.6-.3,9.3-.8,13.8-.3,2.6.6,5.2-.3,7.9s1.3,1.7,2.2,2.7c-.8.5-2.6-1.1-1.9,2.5,1.2,5.3-1.3,10.2-2.7,15a15.4,15.4,0,0,1-5,8.3c-2,1.5-2.7,3.5-3.3,6.1a7.8,7.8,0,0,0,2.1,8.2l-2.8-.8c1.7,3,4.2,3.5,6,5.4.3.3.6-.6.3-1.3,1.2,1.5,2.4,2.9,3.7,4.3a5.1,5.1,0,0,0,6,1.8c5.3-1.4,10.1-4.5,16.1-6l-11.3,6c-2.8,1.6-3.2,3.7-2.2,7.5,1.9,7.3,5.4,13.3,8.8,19.5s6.9,14.5,10.6,21.6c.7,1.3.4,4.5,2.9,3.4,0,.3.1.6,0,.8s.1,2.7.2,4.1c-2.5-2.8-3.4-6.9-5.2-10.3-4.7-9.5-9.5-19-14.6-28.2a63.1,63.1,0,0,1-3.3-7.5c-.9-2-1.6-2.2-2.4.6.1-4.7-.2-8.2-4.2-8.9.7,2.9,1.8,5.5,1.6,8.5a31.9,31.9,0,0,1-1.9-6.5c-.6-3.7-2.8-4.9-4.7-6.6s-3.2-1.7-4.6-3.2-2.4,0-3.2.7.4,1.9.8,2.6c4,6.4,3.9,13.4,2.1,20.4a7.4,7.4,0,0,0,.1,4.2,15.4,15.4,0,0,1,.6,7.1c-.5,2.6,1.3,5,2.6,6.8,5,7.1,8.3,15.8,12.9,23.4,2.7,4.4,5.2,9,7.7,13.6.3.4.5.9.8,1,6.4,2.3,6,10.2,7.7,16,.9,2.9,2.5,5.8,1.9,9.8-1.8-2.6-3.7-4.7-5.1-7.4a17.6,17.6,0,0,0-4-4.8c-2.2-1.8-3.2-4.4-4.3-7.2a87.2,87.2,0,0,0-4.5-9.2c-4.5-7.8-8.4-16.1-12.9-23.9-2.2-3.7-4.1-7.9-6.2-11.8-1-1.8-2.4-1-3.5-2.6s-3.8-6.6-7.7-6.6-5.1-1.7-7.3-4.1-3.9-1.4-5.5,1.5a10.3,10.3,0,0,1-4.4,4.6c-.9.4-1.4.5-.7,2.5s-2.2,2.4-3.4,2.9-1.8,1.6-2.7,2.6c-4.1,4.3-7.3,10.1-12.8,12-.3,0-.4.5-.7.5s-3.2.3-3.8-1,.5-3,1.6-4.1a18.3,18.3,0,0,0,4.1-5.3c.9-1.6,2.1-3.4,4-1.8s1,.5,1.4.1c3.8-4.3,8-7.9,11.6-12.3,2-2.3,4.4-3.6,6.4-5.7a4.9,4.9,0,0,0,1.3-5c-1.4-7.6,1.6-17.1,6.4-21.3,2.2-1.9,3.6-5.3,6.3-6.8.9-.4,0-1.1-.5-1.7S219.2,343.1,217.8,340.7Zm-.2,29.4c-1.4,4.1-1.1,4.9,2.5,7.5s3.2,1.4,6.1,1.3,2-2.8,2-4.9c1.3-.2,2.8-.9,2.7-2.6s-.8-6.3-3.3-8.2-4.1-1.6-5.5.2a9.9,9.9,0,0,0-1.7,9c.5,1.6,1.2,2.6,2.5,2.6s1.7-1.1,1.7-2.6.9-2.2,1.4-3.2c1.2,1,.5,3,1.6,4-1.8-.6-1.5,2-2.4,2.8-2.5,1.8-5.3-.2-7.1-5.2,1.2-1.4,1.2-3.6,1.8-5.4s2.6-4.3,5-4.5,4,1.1,5.3,3.6c.4.8.5,1.8,1.5,2-1.1-5.5-4.9-9.8-8-9S216.7,364,217.6,370.1Zm12.5-39.3c0,1.3.4,2.5,1.3,2.6s.9-1.3.9-2.1c.4-6.9,4.5-11.5,5.8-17.8a3.3,3.3,0,0,1,1.7-1.8c.4-.3,1.4.3,1.3-1.1s-.7-1.4-1.3-1.8-2.9-.2-3.8,1.7a65,65,0,0,0-2.5,6.1c-.5,1.4-2.1.1-2.3,1.6C230.8,322.4,230.1,326.6,230.1,330.8ZM264,449.5a27.5,27.5,0,0,0-3.5-10.8c-.4-.7-1-1.1-1.7-.7s-.3.7-.1,1.2ZM243.8,297c-1.4,2-2.5,3.6-3.5,5.2s-.7,1.5.1,2.1,1.8.7,1.7,0C242,301.7,243.9,300.1,243.8,297Zm-15.9,48.1c0,.8,0,2,.6,1.7s1.6-3,2-4.7-.4-2-1.1-1.7S228,343.3,227.9,345.1Zm-37.4,57.1c-2.6.5-4.1,1.8-5.6,4.1A6.9,6.9,0,0,0,190.5,402.2Zm40.1-62.4c1-.3.8-1.6,1-2.6s-.5-1.7-1.2-1.6-1.2,1.3-1.2,2.4S229.7,339.5,230.6,339.8Z" fill="url(#t)"/><path d="M231,473.5c-1,0-1.5-.8-1.8-1.8-2-6.6,1.4-13.6,6.7-13.2,3.6.3,7-.6,10.5-1.5l-4.3,2.2c-1.1.5-1.3,1-.6,2.6,1.8,4.7,2.6,9.8.5,14.3s-3.6,5.7-4.3,9.5c-.1.8-.9.8-1.4.5s-.7-1-.5-1.6.2-3.2,1.3-4.6,1.9-3.8,2.9-5.8a7.4,7.4,0,0,0-.4-7.6c-.9-1.4-1.9-3.6-3.7-2.6s-5,2.2-5.1,6.4C230.8,471.4,230.9,472.4,231,473.5Z" fill="url(#u)"/><path d="M149,370.7c-3.8-1.6-5-4.2-3.8-8.2s1.1-5.7,3.5-7.1,6.6-.9,8.6,3,3.5,5.9,3.1,10c-.9-.6-.1-2-1.2-2.7-.4,4.4-1.4,8.5-3.6,11.6s-3.6,5-3.3,9a1.2,1.2,0,0,1-1.3,1.5c-1-.1-1.3-1.2-1.3-2.2a8.5,8.5,0,0,1,2.5-6.2c2.7-2.9,5.4-5.9,5.7-11.1s-3.2-9.8-7.2-8.8S146,364.9,149,370.7Z" fill="url(#v)"/><path d="M282.4,433.9c3.1,5.7,6.2,11.4,9.1,17.3.9,1.8,1.3,2.5,2.2.4,2.6-5.9,5.2-11.9,8-17.8.6-1.4.3-3.4,1.6-4.4a53.2,53.2,0,0,1-5.5,16.6c-1,2.1-2.3,4-3.2,6.2a42.1,42.1,0,0,1-6.2,10c-1.3,1.6-2.1,3.6-3.2,5.3s-2.6,3.8-4.7,4.4v-.8c1.2-3.6,3.5-6,5.6-8.3s3-4.3,4.4-6.4.2-2.1-.2-3c-2.2-5.3-4.5-10.5-6.7-15.8C283.2,436.4,282.4,435.3,282.4,433.9Z" fill="url(#w)"/><path d="M203.5,490.8a2,2,0,0,1,2.7.2c2.9,2.2,6,2.2,9,3.1a3.2,3.2,0,0,0,3-.3c.6-.3,2.5-2.8,2.5,1.2,0,.3,2.5.9,3.8.9,3.6-.1,7.2,1,10.7,1.6-10.8.4-21.4-1-31.6-6.7Z" fill="url(#x)"/><path d="M280.6,471.1v.8c.4,1.3-.4,1.8-1,2.3-4.5,3.7-8.5,8.3-13.5,11.2-2.2,1.3-3.7,4.6-6.7,3.9,3.1-3.1,6.6-5.3,9.9-7.9s7.1-5.1,9.6-9.4C279.1,471.4,279.6,470.1,280.6,471.1Z" fill="url(#y)"/><path d="M277.1,461.2a2.4,2.4,0,0,1,2.1,2.5c.2,1.7,0,3.7-1.6,4s-2.2-1.3-2.4-3A3.1,3.1,0,0,1,277.1,461.2Z" fill="url(#z)"/><path d="M163.6,434.2c2.3.1,3.1,1.5,3.3,3.3s-.4,3.2-1.7,3.2-2.3-1.5-2.2-3.3S162.5,434.3,163.6,434.2Z" fill="url(#aa)"/><path d="M158.3,316.2c0,1.9,0,3.4-1.6,3.5s-2.3-1-2.3-2.9.3-3.1,1.8-3A2,2,0,0,1,158.3,316.2Z" fill="url(#ab)"/><path d="M252,496.4c-5.9,2.9-12.1,4.5-18.6,3.8C239.7,499.2,246,499.2,252,496.4Z" fill="url(#ac)"/><path d="M195.7,476.5c0,.9.1,1.7-1.1,1.7s-2.5-.7-2.6-2.7-.1-2.9,1.4-3.1S195.5,474.7,195.7,476.5Z" fill="url(#ad)"/><path d="M166.8,316.1a87.9,87.9,0,0,0-3.8,17.6C162.4,329.4,163.5,324.4,166.8,316.1Z" fill="url(#ae)"/><path d="M193.6,449.9c4.5,1.2,7.8,6.2,12.4,6.9C201.3,456.3,197.4,453.3,193.6,449.9Z" fill="url(#af)"/><path d="M225.2,462.2a20,20,0,0,1-14.4-2.7C215.6,460.1,220.2,463,225.2,462.2Z" fill="url(#ag)"/><path d="M206.6,331.1c3.9,3.1,8.4,4.7,11.3,9.7C214.3,337.2,209.6,336.1,206.6,331.1Z" fill="url(#ah)"/><path d="M235.7,490.8c-.2-1.5,0-3,1.2-3.2s1.7,1,1.7,2.4.2,2.8-1.3,3.1S235.8,492,235.7,490.8Z" fill="url(#ai)"/><path d="M152.6,395.4c-.8-.2-1.7-.3-1.6-1.7s.7-2.5,1.6-2.7,1.5.6,1.5,1.9S153.7,395.2,152.6,395.4Z" fill="url(#aj)"/><path d="M187.6,370.4l1,11.9h-.2l-1-11.9Z" fill="url(#ak)"/><path d="M265.5,489l-5.4,4.3c-.3,0-.7.1-.9-.1s0-.7.2-.9C261.3,490.7,263.2,489.2,265.5,489Z" fill="url(#al)"/><path d="M276.7,375.2c.3-13.4-4.4-25.4-7.3-38,1.1,3.4,3,6.4,3.4,10.3.3,2.1.7,4.4,3.8,4-2,1-2.1,2.3-1.6,3.9C277.4,361.8,276.7,368.5,276.7,375.2Z" fill="url(#am)"/><path d="M255.2,272.3c.4-1.9-.5-4.4,1.6-4.3s2.9,1.9,3,4.2-.7,3.6-1.9,3.2S254.9,274.4,255.2,272.3Z" fill="url(#an)"/><path d="M222.9,294.2c-.2,2.5-.9,4.3-2.8,4.5s-1.9-1.6-2-3,.4-3.8,2-4.2S222.3,292.8,222.9,294.2Z" fill="url(#ao)"/><path d="M178,290.9c.1-2,1.5-3,2-4.7h-.1c3.2-2.7,5-7.2,7.9-10.4a14.1,14.1,0,0,1,3.1-2.9,3.8,3.8,0,0,1-1.1,2.8C185.6,280.5,182,286,178,290.9Z" fill="url(#ap)"/><path d="M294.9,428.7c-.1-2.2.3-4.2,1.4-4.3s2.5,1.5,2.5,3.4,0,4.6-1.8,4.7S295.9,429.5,294.9,428.7Z" fill="url(#aq)"/><path d="M287.7,307.1c2.2.2,2.1,2.7,2.5,4.4s-.7,2.8-1.9,2.8-1.9-2.4-2.2-4S286.3,307.4,287.7,307.1Z" fill="url(#ar)"/><path d="M299.6,380.6c.1,2-.5,2.8-1.8,2.9s-1.5-1.2-1.6-2.4.5-3.3,1.5-3.4S299.1,379.7,299.6,380.6Z" fill="url(#as)"/><path d="M265.8,330.1a21.4,21.4,0,0,1-6-8.3C261.6,324.7,264.7,326.2,265.8,330.1Z" fill="url(#at)"/><path d="M276.9,378.3c1,1.6,1,3.5.9,5.5s.1,3.9.1,5.9Z" fill="url(#au)"/><path d="M37,231.9c-.9-3.5-.1-7.1-.4-10.7-.1-1.1-.6-3.2.9-3.2s3.8-1.5,5.2,1.4a4.5,4.5,0,0,1,0,5.1,13.5,13.5,0,0,0-2.7,5.8,5.9,5.9,0,0,0,.5,4c-1.9-1.8-1.9-5.6-.4-8s1.2-1.5,1.7-2.4a2.7,2.7,0,0,0,.1-3.1,2.1,2.1,0,0,0-2.4-.9c-.8.3-1.2,1.1-1.3,2.4-.3,3.3-.8,6.5-1.2,9.7Z" fill="url(#av)"/><path d="M80.3,275.2c-.2-2.5.1-4.3,1.4-5.6s3-1,4.4.7.7,4.2-.4,5.9-2.4,2.9-2.5,5.3c-.7-2-1.3-4,.6-5.5s2-1.4,1.5-3.1a3.8,3.8,0,0,0-1.7-2.4c-.8-.5-1.2.8-1.6,1.5Z" fill="url(#aw)"/><path d="M122,202.8c-.3,2.2-.5,4.2-1.9,5.8a4.2,4.2,0,0,0-.4,4.7c.6,1.5,2,4.2-.8,5.5-.5-2.9-1.1-5.6-.8-8.4.1-1,0-2.3.9-3s2-2.5.8-4.6-1-1.9-2.1-1.2-1.3,2.7-.9,5.1c-1.8-2.2-2.6-4-1-6.1s3.7-1.7,5,.3.5,1.8,1.3,2Z" fill="url(#ax)"/><path d="M382.5,456.5c.5,2.8-.4,5.1-1.1,7.4-2.6,8.5-.5,16.7,1.5,25,.2.6.3,1.2.5,1.8s.4,1.5-.5,1.7-1.1-.1-1.3-1.4c-.6-5.7-2-11-5.8-14.7a2.8,2.8,0,0,1-.3-3.7C378.9,468.1,380.5,462.2,382.5,456.5Z" fill="url(#ay)"/><path d="M180,286.2c-1.3.2-2.8.4-2.6-2s-2.9-3.7-.3-5.6c.9-.6,1.7-1,2.7-.4s1.1,2.1,1,3.2-.6,3.3-.9,4.9Z" fill="url(#az)"/><path d="M367.5,863.9c2.7-8.2,3.2-17,3.1-25.7-.1-14.5-2.8-28.5-6.8-42.2-.8-2.7-2.3-4.7-3.5-6.9-2.2-3.9-3.5-8.6-6.7-11.6s-7.9-8.2-12.3-11.7-8.3-4.5-12.7-5.5c-1-.1-2-.6-2.8,1.2,4.1,1.1,8.3,2,11.2,6.6-5-4.8-10.8-5.3-16.6-6.3a3.4,3.4,0,0,1,3.5-.4c.6.2,1.2.2,1.3-.8s-.4-1.7-1.2-1.7-3.9-.4-5.5.8a14.1,14.1,0,0,1-5.3,2.4c4,8.8,2.5,13.7-1.6,15.7,2.1-3.1,3.7-6,2.3-10.3-.8-2.2-2.1-3.5-3.9-3.1s-2.7,2.4-2.4,5a14.5,14.5,0,0,1,.2,4.8c-1.5-2.4-1.1-4.8-1.5-6.8s-1.1-1.6-1.9-.9-2.2,4.1-2.1,6.7c.1,5.6,2.2,10.4,3.9,15.3,3.7,11,7.5,21.9,11.2,32.8.7,2.1,1.3,3.6,3.2,1.7s2-1.2,2.7-.8c2.8,1.7,3.2-1,3.8-3.2s2.3-7.2,3.3-10.8,1.7-4.3,1.4-7a4.5,4.5,0,0,1,1.1-3.6,18.7,18.7,0,0,0,3-5.2c-.4,3.1-.9,6-.2,9.2.4,1.6-1.3,2.2-1.8,3.4a72.1,72.1,0,0,0-4.5,12c-.9,3.3-2.3,7.4-.2,11.6a8.5,8.5,0,0,1,.5,6.1c-1.5,4.4.3,7.6,2.3,10.7,3.8,6.2,7.8,12.2,11.7,18.3.7,1,1.1,1.8,2.6,1.4s4.3,1.6,4.8,4.2,1.5,7.8,3.7,11c-3.3-1.5-5.9-4.5-9.1-5.5-1.6-.5-2-2.6-2-4.1.1-3.8-1.9-6.1-3.6-8.1-5.6-6.4-10.2-13.8-15.7-20.3l-1.2-1.3c.4,3.3.8,6,1.1,8.7-1.1-1.7-1-3.9-1.6-5.9s-.2-2-1.2-2.4c-3.8-1.4-4.9-5.2-5.1-9.7a3.3,3.3,0,0,0-1.5-2.9c-1.3-.7-2.2-2.1-3.3-2.9-2.8-2.2-5.5-5-9-3.8s-3.2-1.4-3.9-3.5a14.3,14.3,0,0,0-3.6-5.7c-1.6-1.7-3.4-3.1-4.3-6.3,2,.8,3.6,1.1,5.1,2.4s2.7,1.8,4.3.9,5.7.2,6.5,3.2c1.6,5.9,5.6,7.4,9.5,10.6-.4-1.7-.5-2.5-.7-3.3-4-12.2-7.3-24.6-12.4-36.2-1.5-3.6-2.5-7.5-5.1-10.3-1.1-1.1-1.8-1.8-2.8-.1s-4.2,4.6-6,7.2c-4.3,6-7.4,13.5-9.7,21.1-3.6,12.1-5.3,25-2.2,38.7,1.2-2.4,2.8-2.8,4.5-.6a4.5,4.5,0,0,1,.1,5.9,6.2,6.2,0,0,0-.7,4.5c0,.6.6,1.5-.3,1.8s-1,1.9-.8,3.2.5,3.9,1.2,5.4c1.8,3.3.4,7.8,2.8,11.2.2-.8.2-1.7.5-1.8s.7.5.8,1,.6,3.5,1.2,5.3c2.1,6.9,7.2,9.8,10.8,14.7a20.1,20.1,0,0,0,7.4,6.6c.8.5,2-.2,2.6,1.1,1.5,4,4.5,4.4,7.1,4.3,5.9-.2,11.8.1,17.6-1,1.9-.3,2.5-1,1.8-3.8-3.7-16.1-7.5-32.3-9.7-49,2,5,2.4,10.5,3.6,15.8,2.4,10.2,3.7,20.7,6.7,30.7.2.4.3,1,.5,1.4s1.2,4.1,2.7,3.7.1-3,.5-4.1-.9-4.2.7-5.9a2.9,2.9,0,0,0,.3-3.6c-.5-.6-.9-1.5-1.7-1.2s-1.6,1.4-1.8,2.9-.1,1-.2,1.7c-.8-2.4-.2-3.8,1.1-5s2.1-.7,3.2.2,1.5,2.9.9,4.5-.4,6.8-1.8,10.2c5.2-1.5,9.4-4.9,14-7.3-1,1.9-2.2,3.7-4,4.5s-2.1.9-1.7,2.8c-2.7-.5-9.2,1.9-10.6,4-.2.2-.6.5-.6.4-1.1-1.7-2.1-1.2-3.4-.4s-2.4.6-3.6.9,1.1-.4,1.3,1c-4.4,1.9-8.9.2-13.3-.9a32.2,32.2,0,0,0-4.4-1.4,9.1,9.1,0,0,1-6.9-4.1,4.2,4.2,0,0,0-2.1-1.9c-4.2-.8-6.9-4.7-9.8-8s-7-7.2-9.4-12.2a135,135,0,0,1-9.9-28.9c-2.9-13.6-1.4-26.9.2-40.2.1-.9.5-1.8,0-2.8,2.3-1.8,1.9-5.4,2.5-8.1s2.7-7.4,4.1-11c.4-1,1-1.8,1.3-2.8,1.6-5.1,5-8,7.9-11.6,1.3-1.5,2.8-2.7,3.6-4.9s3.4-2.7,5-4.2c5.6-5,12.1-6.8,18.6-8.7,4.5-1.3,9,.9,13.5,2.1,2,.6,4,1.9,6.1,2.4,6.8,1.5,11.6,7.3,15.7,13.9,2.5,4.1,5.8,7.3,8,11.8s6,10.5,7.3,16.7,3.3,15.2,3.2,22.7.4,16.8-.4,25.2a93.5,93.5,0,0,1-1.9,11.8C368.9,862.7,368.5,863.8,367.5,863.9Zm-88-13.1c.8-2.1.8-4.4,2.3-6s.2-2.6-.6-3.7a1.2,1.2,0,0,0-1.8-.4c-1.1.7-.9,2-.7,3.2S279.5,848.4,279.5,850.8Zm46.3-24.6c1.9,4.3,2,8.2-1.1,12C329.2,835.2,329.6,830.6,325.8,826.2ZM307,818.8a8,8,0,0,0,7.5,5.6C311.2,823.3,309.5,820.2,307,818.8Z" fill="url(#ba)"/><path d="M147.1,475.5c-.1,1.5.4,2.9-.7,3s-1.8-1.2-2-2.6.2-2.1.8-2S147.3,474.2,147.1,475.5Z" fill="url(#bb)"/><path d="M334.7,328.5c1.3,2.2.8,4.7,1,7.2.1-2.6-1.8-3.4-2.6-5.2s-1.4-2-.4-3.1,1.4.6,2.1,1.2Z" fill="url(#bc)"/><path d="M76.9,222.1c1.6-1.6,3.4-2.2,4.6-4.1C82,221.4,82,221.4,76.9,222.1Z" fill="url(#bd)"/><path d="M209.2,686.1c-.8-3.5-1.5-6.2-2-9s-.4-3.9-2-5.1a4,4,0,0,1-.8-2.7c.9-5.6,0-11.2.2-17.6,1.6,2.4,1.3,4.6,1.5,6.5.3,4.2,1.5,7.7,4.5,9.7.8.5.2.5,0,.7-2.8,3-2.2,7-1.5,11.1A11.4,11.4,0,0,1,209.2,686.1Zm-2-19.8c-1,.5-2.1.5-1.8,2.1s1.1,2.7,2,2.8,1-1.6,1-2.6S208,666.5,207.2,666.3Z" fill="url(#be)"/><path d="M224.6,372.4c-1-.6-2.1-1.3-2.1-3s.4-1.7,1.1-1.9,2.1-.1,2.4,1.7S225.1,371.3,224.6,372.4Z" fill="url(#bf)"/><path d="M361.7,812.9c-.7-1.9-.8-3.7.8-4.7a1.4,1.4,0,0,1,2.3.4c1,1.6,1.8,3.1,1,5.3s-2.4,4.9-.3,7.8c.1.1-.1.7-.3.9s-.7.1-.8-.5-1.8-4.1-.2-6.1c.4-.5.4-1.4.7-2a3.6,3.6,0,0,0-.1-3.5,1.3,1.3,0,0,0-1.7-.7C361.8,810.2,361.6,811.3,361.7,812.9Z" fill="url(#bg)"/></svg>