<svg xmlns="http://www.w3.org/2000/svg" viewBox="0 0 41 41"><title>Instagram</title><circle cx="20.5" cy="20.5" r="20" fill="#fff" stroke="#ececec"/><path d="M198.5-17.8a1,1,0,0,0-1.1,1,1.1,1.1,0,0,0,1.1,1.1,1.1,1.1,0,0,0,1.1-1.1,1,1,0,0,0-1.1-1M194-9a3.1,3.1,0,0,1-3-3,3.1,3.1,0,0,1,3-3,3.1,3.1,0,0,1,3,3,3.1,3.1,0,0,1-3,3m0-7.7a4.7,4.7,0,0,0-4.7,4.7A4.7,4.7,0,0,0,194-7.3a4.7,4.7,0,0,0,4.7-4.7,4.7,4.7,0,0,0-4.7-4.7m7.3,7.2a10.9,10.9,0,0,1-.1,1.8,3.4,3.4,0,0,1-2.7,2.8,7.8,7.8,0,0,1-2.2.2h-5.1a5.2,5.2,0,0,1-1.7-.2,3.4,3.4,0,0,1-2.4-1.9,5.1,5.1,0,0,1-.4-2v-.4h0v-5.5a4.7,4.7,0,0,1,.2-1.7,3.1,3.1,0,0,1,2-2.4,4.3,4.3,0,0,1,1.9-.4h7.4a4.2,4.2,0,0,1,1.9.9,3.2,3.2,0,0,1,1,1.8,7.8,7.8,0,0,1,.2,2.2h0v4.7m1.7-4.8h0a11.4,11.4,0,0,0-.2-2.6,5,5,0,0,0-4.2-3.9h-7.8a14.7,14.7,0,0,0-2.6.5,5.1,5.1,0,0,0-2.9,3.6,6.9,6.9,0,0,0-.3,2h0v5.5h0v.3a8.8,8.8,0,0,0,.6,2.6,4.5,4.5,0,0,0,3.5,2.9l2.1.3h5.1a11.8,11.8,0,0,0,2.6-.2,5,5,0,0,0,3.9-4.2,15,15,0,0,0,.2-2v-4.9" transform="translate(-173.5 32.5)" fill="#9a9a9a" fill-rule="evenodd"/></svg>