<svg xmlns="http://www.w3.org/2000/svg" viewBox="0 0 482.1 115.1"><title>logo</title><path d="M.1,114.1V1.1l1-1h480l1,1v113l-1,1H1.1ZM36.1,12c-1.2-.6-2.2-.9-2.1,1.1h.1c-2.8-.7-4.3,0-3.6,3.2V16L26,18.5c-4.9,6.8-6.2,15.2-9.9,22.6-1.2,1.4-4.2.9-4,3.8-4.4.5-6.6,3-7.3,7.3s-.6,10.6-.5,15.9A6.8,6.8,0,0,0,8,74.2c6.5,3.8,11.9,9,16.9,14.5,2.3,2.6,4.8,4.5,8.2,5.2s1.5,3,.7,4.7h-.1c-2-1.2-1.9.8-2,1.6s1.2,2.2,2.5,2.6c4.5,1.5,9.2,1.5,13.8,1.7,9.2.4,18.5.6,27.5-2.2h.1c2.5,1.4,4.5-.5,6.8-.9a3,3,0,0,0,2.7-3.1c0-1.9-1.5-2.6-2.9-2.9-2.9-.7-6-.8-8.7-2.2-.9-.4-3.2-.1-1.5-2.3,3.5-.8,7.3-.3,10.7-1.8-3.6-.5-7.2-1-10.7.2l-4.9.8-2.2.2c-2.4.4-4.9.3-7.2,1.1s-6.8-.5-9.2,2.6h-.2c-3.6-.5-4.1-2.7-4.2-6.2C43.6,64,42.8,40.1,42,16.3c0-1.5,1-3.8-1.9-4.1v.3l5.9.4c14.7,4,29.4,8.1,44.1,11.9,3.7.9,4.7,2.6,4.9,6.1.5,15.6,2.1,31.2,2.2,46.8.1,4.4.6,8.5-5.2,9.4-1.2.3-2.4-1.6-3.5-.1a2.4,2.4,0,0,0,.9,1.6c1.5.8,2.5.2,2.6-1.5,4.9,1.5,7-.1,7.1-5.4.4-17.5-1.3-34.9-2.1-52.3-.2-3.9-2.3-5.5-5.7-6.4L46,11.2c-3.4-1.1-6.9-2.6-10,.8ZM392.7,81.2c0,3.8.1,7.7,0,11.5,0,2.1,1.1,2.4,2.8,2.4s2.8-.3,2.7-2.4c-.1-8.2,0-16.3,0-24.5,0-1.8-.6-2.6-2.5-2.6s-3,.7-3,2.8c.1,3.8,0,7.7,0,11.5-.4.2-1.1.3-1.1.5S392.1,81.2,392.7,81.2ZM52.1,74.1c-.8-12.6-1.5-25.1-2.3-38.2-1,.8-1.4,1-1.4,1.1.4,12.8.9,25.6,1.4,38.4.1,2.4,1.5,2.4,3.4,2.3L89.9,75c1.2-.1,2.9.4,2.9-2.2L53,74.8Zm298.1,9.1-1,.3c-3.7-5.3-7.5-10.5-11-15.8-1.5-2.3-3.5-2.5-5.7-2.1s-1.4,2.7-1.4,4.1c-.1,7.3,0,14.7,0,22-.1,1.9-.2,3.4,2.7,3.5s3.2-1.4,3.1-3.7c-.1-4.7,0-9.4,0-14.1a114,114,0,0,1,12,15.6c1.5,2.4,3.5,2.3,5.6,2s1.4-2.7,1.4-4.1c.1-7.1.1-14.3.1-21.5,0-1.9.4-3.9-2.8-4s-3.1,1.7-3.1,3.9C350.2,73.9,350.2,78.5,350.2,83.2Zm-145,11.9h7c2.1.1,3.5-.1,3.4-2.8s-1.2-3.1-3.4-3-5-.1-7.5.1-3.6-.2-3.6-3.2,1.1-3.3,3.5-3.2,5,0,7.5.1,3.6.1,3.5-2.7-1.1-3.1-3.4-3-4.9-.1-7.4,0-3.7-.2-3.7-3.1,1.1-3.4,3.5-3.2,5.3-.1,8,0,3.1-.4,3-2.7-.7-3-2.9-2.9c-4.5.1-9,.2-13.5,0-2.8-.2-3.8.8-3.7,3.6.2,5.5.1,11,.1,16.5C195.6,95.1,195.6,95.1,205.2,95.1ZM322.1,80.5a14.8,14.8,0,0,0-14.4-14.9c-7.9-.1-15.7,7.1-15.6,14.6S299.6,95,307.4,95A14.7,14.7,0,0,0,322.1,80.5ZM139.9,80v5.5c0,10.5.8,11.1,11.5,9.4h1c6.5-1.6,9.1-7,5.7-12.9-.9-1.5-.4-2,.3-3.2,2.8-5,.9-10.4-4.3-12.2s-8.2-.8-12.4-.9c-2,0-1.8,1.6-1.8,2.9ZM162,36.3c0,4,.2,8,0,12-.1,2.1.5,2.9,2.8,2.8q7.2-.1,14.4,0c2.1.1,3-.3,3-2.7s-.6-3.3-3.1-3.1-5-.1-7.5,0-3.9-.2-3.9-3.3,1.7-3,3.8-2.9,5-.1,7.5,0,3.2-.3,3.2-2.9-1.4-2.9-3.5-2.8-5-.1-7.4,0-3.5-.4-3.6-3.2,1.3-3.2,3.6-3.1,5.4-.1,8,.1,2.9-.6,2.8-2.8-.5-3-2.8-2.9q-7.2.2-14.4,0c-2.2-.1-3,.6-2.9,2.8C162.1,28.3,162,32.3,162,36.3Zm-5.9.3c0-4.1,0-8.3.1-12.5,0-1.9-.6-2.6-2.6-2.6s-3.2.4-3,2.7-.1,2.4,0,3.5c.7,4.4-.8,6-5.5,5.9s-6.6-1-5.7-5.7c.2-1.2-.1-2.4,0-3.5s-.7-2.9-2.9-2.9-2.6,1.1-2.6,3.1c.1,7.9.1,15.9,0,23.9,0,1.9.5,2.7,2.5,2.6s3.3-.1,3-2.6.2-2.3,0-3.4c-1-5.2,1.2-6.4,6.1-6.2s5.9.8,5.2,5.1a26.7,26.7,0,0,0-.1,4c-.3,2.4.6,3.1,3,3.1s2.6-1.2,2.5-3Zm21.7,29.1a9.3,9.3,0,0,0-9.4,7.3c-.8,4.4,1.9,8.3,6.7,9.7,1.3.4,2.7.5,3.9.9a2.6,2.6,0,0,1,2.1,3.4c-.4,1.8-1.8,2.2-3.4,2.2s-2.7-.9-3.6-2.3-3.6-1.4-4.9-.6-.3,2.8.4,3.9c2.3,3.9,5.9,5.5,10.2,4.5s7.1-3.7,7.2-8.4-2.5-7.3-7-8.4l-3.4-.8c-2-.5-3-1.7-2.3-3.6a3.3,3.3,0,0,1,4.4-2.1,4.1,4.1,0,0,1,2.2,1.9,3.5,3.5,0,0,0,5.2,1.2c1.9-1.3.1-3.3-.7-4.7S181,65.8,177.8,65.7ZM460.2,86.3a15.3,15.3,0,0,0,.6,2.5A9.2,9.2,0,0,0,471,94.9c4.4-.9,7.2-3.5,7.8-8s-2.3-7.7-7.5-9.1l-2.9-.7c-2-.4-2.9-1.7-2.3-3.7s2.2-2.3,3.9-2.1a4.1,4.1,0,0,1,3,2.4c1.3,2,3.5,1.5,4.9.7s.3-2.7-.3-3.9c-1.7-3.7-6.2-5.6-10.6-4.5s-6.5,3.6-6.8,7.7,1.9,7.5,6.4,8.9l2.9.6c1.6.4,3.3.8,3.5,2.9a2.6,2.6,0,0,1-1.7,2.8c-1.6.6-3.6.8-4.5-.8S462.8,85.9,460.2,86.3ZM233.3,65.7c-4.7.1-8.6,3.4-9.2,7.6s2,7.9,6.6,9.3c1.1.4,2.3.4,3.4.7s2.6.9,2.9,2.5a2.5,2.5,0,0,1-1.4,2.9,3.9,3.9,0,0,1-4.3-.1c-.7-.5-1-1.7-1.8-2.2a5.4,5.4,0,0,0-4.8-.1c-.9.4-.2,1.5-.1,2.2,1,3.9,5.3,6.8,9.6,6.5a9.5,9.5,0,0,0,8.6-7.8c.5-4.1-1.9-7.7-6.2-9.1l-3.9-.9c-1.4-.3-2.5-.8-2.7-2.4a2.8,2.8,0,0,1,1.3-3,3.6,3.6,0,0,1,4.2.1,9.5,9.5,0,0,1,1.6,1.9c1.2,1.8,3.2,1.3,4.5.8s.7-2.7.1-3.8C240.1,67.3,237.1,65.7,233.3,65.7ZM415.8,95c4.7-.1,8.7-3.3,9.3-7.3s-1.6-8.3-6.4-9.7l-3.4-.8c-1.7-.3-2.9-1.1-3-2.8a2.7,2.7,0,0,1,1.8-2.7,3.5,3.5,0,0,1,4.2.4c.7.6,1.1,1.7,1.8,2.2a4.4,4.4,0,0,0,4.3.2c1-.3.7-1.4.5-2.1a8.9,8.9,0,0,0-8.4-6.7c-4.5-.2-8.6,2.4-9.5,6.4s.1,7.7,4.1,9.7c1.8.9,3.9,1,5.7,1.6s3.1,1.5,2.6,3.6-1.8,2.2-3.5,2.2-2.6-1-3.5-2.2a3.4,3.4,0,0,0-4.9-.6c-1.3.8-.4,2.6.4,4A9.5,9.5,0,0,0,415.8,95ZM259.9,65.7a8.7,8.7,0,0,0-8.1,7.4c-.7,4.7,1.7,8.2,6.6,9.6l3.9.9a2.7,2.7,0,0,1,2.1,3.4c-.5,1.7-1.8,2.2-3.5,2.2a3.5,3.5,0,0,1-3.2-1.8,3.5,3.5,0,0,0-5.2-1c-1.5,1-.3,3,.7,4.4,2.6,3.6,6.1,5,10.4,3.8s6.6-3.9,6.6-8.3-2.6-7.4-7-8.4l-3.4-.8c-1.9-.5-3-1.6-2.3-3.6a3.3,3.3,0,0,1,4-2.2,3.1,3.1,0,0,1,2.7,1.9,3.3,3.3,0,0,0,5.1,1.2c1.9-1.3.2-3.2-.7-4.7S264.2,65.8,259.9,65.7ZM131.1,76.5c0-5.9-5.2-11.3-11-11.3S109,70.4,108.9,76.3a11.4,11.4,0,0,0,11,11.3A11.5,11.5,0,0,0,131.1,76.5Zm307.7,6.7c0,3,.1,5.9,0,8.9s.3,3.1,2.7,3,2.9-.7,2.8-2.8c-.1-5.2.1-10.3,0-15.4s-.3-6.9,4.9-5.8c1.7.3,2.5-.6,2.4-2.3s.3-3.2-2-3.2H433.7c-2.3,0-2.1,1.7-2.1,3.2s.4,2.7,2.2,2.4c5.5-1.1,5.3,2.4,5,6.1C438.7,79.2,438.8,81.2,438.8,83.2ZM117.6,38.9c0,3,.1,5.9,0,8.9s.2,3.3,2.8,3.4,2.8-1.3,2.8-3.4c-.1-5.8,0-11.6,0-17.4,0-1.8-.4-3.8,2.6-3.4s2.1-1.7,2.3-3.3-.5-2.7-2.5-2.6H115.1c-1.7,0-2.5.7-2.2,2.4s-.9,3.5,1.5,3.4,3.3,1.7,3.2,4S117.6,36.2,117.6,38.9ZM284.2,80.6V69.1c0-1.8.3-3.6-2.6-3.6s-2.9,1.4-2.9,3.5c.1,7.6.1,15.2,0,22.9,0,2.1.4,3.3,3,3.2s2.6-1.2,2.5-3.1Zm90.4,2.5h7c2,.1,3.1-.3,3.1-2.6s-.8-3.3-3.2-3.2c-4.6.1-9.3.1-13.9,0-2.6-.1-3.1,1-3.1,3.3s1.3,2.6,3.2,2.5Zm-254.7,12h7c1.7,0,3.2,0,3.1-2.5s-.5-3.4-3-3.3c-4.7.1-9.4.1-14,0-2.5-.1-3.1.8-3.2,3.2s1.1,2.7,3.1,2.6ZM91.1,31.7l.4-1.6c-14.3-3.8-28.7-7.2-43.2-9.7V32.5H49V22.1ZM91,34.5c.3,11.4-.6,22.8,1.7,34C93.8,57.1,92.7,45.8,91,34.5ZM93.2,82c-.1-1.8,0-3.9-2.5-4s-2.1,1.6-2.1,2.9-.4,3.5,2.4,3.3S93.6,83.9,93.2,82Zm33.3-23.9c1.4-.6,4.1,1,4.2-1.7s-2.4-1.3-3.7-1.2-4.3-.9-4.4,1.6S125,57.8,126.5,58.1Z" fill="#f6f5f5" opacity="0"/><path d="M482.1,1.1l-1-1C481.9-.1,482.2.2,482.1,1.1Z" fill="#d9dde0"/><path d="M1.1.1l-1,1C-.1.2.2-.1,1.1.1Z" fill="#d9dde0"/><path d="M.1,114.1l1,1C.2,115.2-.1,114.9.1,114.1Z" fill="#d9dde0"/><path d="M481.1,115.1l1-1C482.2,114.9,481.9,115.2,481.1,115.1Z" fill="#d9dde0"/><path d="M26,18.5,30.5,16l1.6-.6L33,36.6h0c.6,18.5,1.3,37.1,2,55.6-3.3,0-5.8-1.7-8-4.1A84.1,84.1,0,0,0,9.9,73a7.5,7.5,0,0,1-3.8-7c.2-7.6-1.3-15.6,6-21.1-.2-2.9,2.8-2.4,4-3.8,1.9.6,2.7-.5,3.3-2.1,2.5-6.4,4.3-13.2,8.1-19.2C28.3,18.7,27.3,18.1,26,18.5ZM19.6,49.9a31.5,31.5,0,0,0-12,4A16,16,0,0,0,19.6,49.9Zm.1,7.4c-5.4-.2-9.6,1.6-10.7,4.4A35.2,35.2,0,0,0,19.7,57.3ZM17,65.7c-3.7-1.9-5.8.2-8.2,1.4l.5,1.4Z" fill="#f2f2f2" opacity="0"/><path d="M35,92.1c-.7-18.5-1.4-37.1-2-55.6,2.7-.9,2,1.2,2,2.5q.6,9.4.9,18.9c.4,10.9.8,21.9,1.1,32.8.1,2.4.8,3.2,3.2,3.2s1.7-1.8,1.8-3c.1-2.8.2-5.7.1-8.5-.7-23.4-1.3-46.8-2-70.2,2.9.3,1.9,2.6,1.9,4.1.8,23.8,1.6,47.7,2.1,71.5.1,3.5.6,5.7,4.2,6.2l-9.5,4c-.8.7-.4.9.4,1a112.4,112.4,0,0,0,27.8.2v2.9c-1.1.3-2.5-1.6-3.4.4a2.2,2.2,0,0,0,3.4-.4c2.1-.1,1.9-1.6,2-3.1l6.8-1c.5-.1,1.3-.1,1.4-.3s-.6-.6-1.1-.7c-3-1.6-5.6-4.2-9.1-5.1V90.1l4.9-.8v1.6c-1.7,2.2.6,1.9,1.5,2.3,2.7,1.4,5.8,1.5,8.7,2.2,1.4.3,2.9,1,2.9,2.9a3,3,0,0,1-2.7,3.1c-2.3.4-4.3,2.3-6.8.9-.7-.6,0-2.1-1.3-2.2s-1.2.9-1.1,1.3,1.5.5,2.3,1c-9,2.8-18.3,2.6-27.5,2.2-4.6-.2-9.3-.2-13.8-1.7-1.3-.4-2.7-1-2.5-2.6s0-2.8,2-1.6c-.3,2.1.3,3.3,2.7,2.6a3.2,3.2,0,0,0-2.6-2.7c.8-1.7,3.4-3.7-.7-4.7l2.4-2c0,.7-.3.5-.5.1Zm6,10.1a1.9,1.9,0,0,0,2,.7c.1,0,.2-.2.3-.4l-2.1-.7c-.2-1-.7-1.8-1.9-1.6a1,1,0,0,0-.6.5C39,101.9,40,102,41,102.2Zm5.3-.8a16.6,16.6,0,0,0,13.8.3C55.3,100.6,51.1,101,46.3,101.4ZM80,99.6l-.4-.8a1.3,1.3,0,0,0-.4.7c0,.3.2.5.3.8ZM36.4,96.8l.3-.2c-.1-.1-.1-.3-.2-.3l-.4.2Z" fill="#0e0e0e"/><path d="M350.2,83.2c0-4.7,0-9.3-.1-13.9,0-2.2,0-3.9,3.1-3.9s2.8,2.1,2.8,4c0,7.2,0,14.4-.1,21.5,0,1.4,1.2,3.7-1.4,4.1s-4.1.4-5.6-2a114,114,0,0,0-12-15.6c0,4.7-.1,9.4,0,14.1.1,2.3-.2,3.7-3.1,3.7s-2.8-1.6-2.7-3.5c0-7.3-.1-14.7,0-22,0-1.4-1.1-3.6,1.4-4.1s4.2-.2,5.7,2.1c3.5,5.3,7.3,10.5,11,15.8Z" fill="#db0c2c"/><path d="M40.1,12.2c.7,23.4,1.3,46.8,2,70.2.1,2.8,0,5.7-.1,8.5-.1,1.2,1,3.1-1.8,3s-3.1-.8-3.2-3.2c-.3-10.9-.7-21.9-1.1-32.8Q35.6,48.5,35,39c0-1.3.7-3.4-2-2.5h0c2.8.8,1.9-1.4,1.9-2.5-.2-7-.6-14.1-.8-21.1H34c1.2.5,2,.5,2.1-1.1H36c1.1,2.2,2.9-.8,4.1.5Z" fill="#f0f0f0" opacity="0"/><path d="M205.2,95.1c-9.6,0-9.6,0-9.6-9.5,0-5.5.1-11-.1-16.5-.1-2.8.9-3.8,3.7-3.6,4.5.2,9,.1,13.5,0,2.2-.1,2.9.8,2.9,2.9s-1,2.8-3,2.7-5.3.1-8,0-3.5.4-3.5,3.2,1.4,3.2,3.7,3.1,5,.1,7.4,0,3.4.4,3.4,3-1.6,2.7-3.5,2.7-5,.1-7.5-.1-3.5.4-3.5,3.2,1.4,3.2,3.6,3.2,5,0,7.5-.1,3.4.4,3.4,3-1.3,2.9-3.4,2.8Z" fill="#da0727"/><path d="M322.1,80.5A14.7,14.7,0,0,1,307.4,95c-7.8,0-15.2-7.2-15.3-14.8s7.7-14.7,15.6-14.6A14.8,14.8,0,0,1,322.1,80.5Zm-5.8-.1a9.1,9.1,0,0,0-9-9.2,9.5,9.5,0,0,0-9,9,9.1,9.1,0,0,0,9.2,9A8.7,8.7,0,0,0,316.3,80.4Z" fill="#da0a2a"/><path d="M139.9,80V68.5c0-1.3-.2-2.9,1.8-2.9,4.2.1,8.4-.6,12.4.9s7.1,7.2,4.3,12.2c-.7,1.2-1.2,1.7-.3,3.2,3.4,5.9.8,11.3-5.7,12.9h-1c-10.7,1.7-11.5,1.1-11.5-9.4Zm8.7-2.5c2.1-.4,5.1.1,5.3-3s-2.6-3.2-4.9-3.4-3.9-.1-3.8,2.9S145.7,77.9,148.6,77.5Zm-.8,5.5c-1.9-.6-2.5.8-2.6,3.3s1.3,3.4,3.6,3.1,5.2,0,5.1-3.2S151,83.2,147.8,83Z" fill="#da0727"/><path d="M162,36.3c0-4,.1-8,0-12-.1-2.2.7-2.9,2.9-2.8q7.2.2,14.4,0c2.3-.1,2.8.8,2.8,2.9s-.6,2.9-2.8,2.8-5.3,0-8-.1-3.6.2-3.6,3.1,1.1,3.4,3.6,3.2,4.9.1,7.4,0,3.4.1,3.5,2.8-1,3.1-3.2,2.9-5,0-7.5,0-3.8-.3-3.8,2.9,1.3,3.5,3.9,3.3,5,.2,7.5,0,3,.8,3.1,3.1-.9,2.8-3,2.7q-7.2-.1-14.4,0c-2.3.1-2.9-.7-2.8-2.8C162.2,44.3,162,40.3,162,36.3Z" fill="#0e0e0e"/><path d="M156.1,36.6V48.1c.1,1.8.1,3.1-2.5,3s-3.3-.7-3-3.1a26.7,26.7,0,0,1,.1-4c.7-4.3-1.2-5-5.2-5.1s-7.1,1-6.1,6.2c.2,1.1-.1,2.3,0,3.4s-1.2,2.5-3,2.6-2.5-.7-2.5-2.6c.1-8,.1-16,0-23.9,0-2,.2-3.2,2.6-3.1s3.1.7,2.9,2.9.2,2.3,0,3.5c-.9,4.7,1.3,5.5,5.7,5.7s6.2-1.5,5.5-5.9c-.1-1.1.1-2.3,0-3.5s1.1-2.7,3-2.7,2.6.7,2.6,2.6C156.1,28.3,156.1,32.5,156.1,36.6Z" fill="#030303"/><path d="M177.8,65.7c3.2.1,5.9,1.2,7.6,4.1s2.6,3.4.7,4.7a3.5,3.5,0,0,1-5.2-1.2,4.1,4.1,0,0,0-2.2-1.9,3.3,3.3,0,0,0-4.4,2.1c-.7,1.9.3,3.1,2.3,3.6l3.4.8c4.5,1.1,7,3.8,7,8.4s-2.9,7.4-7.2,8.4-7.9-.6-10.2-4.5c-.7-1.1-1.8-3.1-.4-3.9s3.6-1.2,4.9.6,1.9,2.4,3.6,2.3,3-.4,3.4-2.2a2.6,2.6,0,0,0-2.1-3.4c-1.2-.4-2.6-.5-3.9-.9-4.8-1.4-7.5-5.3-6.7-9.7A9.3,9.3,0,0,1,177.8,65.7Z" fill="#db0c2c"/><path d="M460.2,86.3c2.6-.4,4.9-1.2,6.6,1.8s2.9,1.4,4.5.8a2.6,2.6,0,0,0,1.7-2.8c-.2-2.1-1.9-2.5-3.5-2.9l-2.9-.6c-4.5-1.4-6.8-4.4-6.4-8.9S463,67,467,66s8.9.8,10.6,4.5c.6,1.2,1.8,3.1.3,3.9s-3.6,1.3-4.9-.7a4.1,4.1,0,0,0-3-2.4c-1.7-.2-3.4.2-3.9,2.1s.3,3.3,2.3,3.7l2.9.7c5.2,1.4,8,4.6,7.5,9.1s-3.4,7.1-7.8,8a9.2,9.2,0,0,1-10.2-6.1A15.3,15.3,0,0,1,460.2,86.3Z" fill="#db0c2c"/><path d="M233.3,65.7c3.8,0,6.8,1.6,8.4,5.1.6,1.1,1.9,3-.1,3.8s-3.3,1-4.5-.8a9.5,9.5,0,0,0-1.6-1.9,3.6,3.6,0,0,0-4.2-.1,2.8,2.8,0,0,0-1.3,3c.2,1.6,1.3,2.1,2.7,2.4l3.9.9c4.3,1.4,6.7,5,6.2,9.1a9.5,9.5,0,0,1-8.6,7.8c-4.3.3-8.6-2.6-9.6-6.5-.1-.7-.8-1.8.1-2.2a5.4,5.4,0,0,1,4.8.1c.8.5,1.1,1.7,1.8,2.2a3.9,3.9,0,0,0,4.3.1,2.5,2.5,0,0,0,1.4-2.9c-.3-1.6-1.6-2.1-2.9-2.5s-2.3-.3-3.4-.7c-4.6-1.4-7.1-5-6.6-9.3S228.6,65.8,233.3,65.7Z" fill="#db0c2c"/><path d="M415.8,95a9.5,9.5,0,0,1-7.9-4.6c-.8-1.4-1.7-3.2-.4-4a3.4,3.4,0,0,1,4.9.6c.9,1.2,1.8,2.2,3.5,2.2s3-.5,3.5-2.2-.8-3.1-2.6-3.6-3.9-.7-5.7-1.6c-4-2-5-5.6-4.1-9.7s5-6.6,9.5-6.4a8.9,8.9,0,0,1,8.4,6.7c.2.7.5,1.8-.5,2.1a4.4,4.4,0,0,1-4.3-.2c-.7-.5-1.1-1.6-1.8-2.2a3.5,3.5,0,0,0-4.2-.4,2.7,2.7,0,0,0-1.8,2.7c.1,1.7,1.3,2.5,3,2.8l3.4.8c4.8,1.4,7.1,5,6.4,9.7S420.5,94.9,415.8,95Z" fill="#da0a2a"/><path d="M259.9,65.7c4.3.1,7,1.2,8.7,4s2.6,3.4.7,4.7a3.3,3.3,0,0,1-5.1-1.2,3.1,3.1,0,0,0-2.7-1.9,3.3,3.3,0,0,0-4,2.2c-.7,2,.4,3.1,2.3,3.6l3.4.8c4.4,1,7,3.7,7,8.4s-2.6,7.1-6.6,8.3-7.8-.2-10.4-3.8c-1-1.4-2.2-3.4-.7-4.4a3.5,3.5,0,0,1,5.2,1,3.5,3.5,0,0,0,3.2,1.8c1.7,0,3-.5,3.5-2.2a2.7,2.7,0,0,0-2.1-3.4l-3.9-.9c-4.9-1.4-7.3-4.9-6.6-9.6A8.7,8.7,0,0,1,259.9,65.7Z" fill="#da0a2a"/><path d="M131.1,76.5a11.5,11.5,0,0,1-11.2,11.1,11.4,11.4,0,0,1-11-11.3c.1-5.9,5.3-11.2,11.2-11.1S131.1,70.6,131.1,76.5Zm-5.7-.2c-.3-3.1-1.9-5.2-5.3-5.3s-5.3,2-5.4,5.2,1.9,5.7,5.4,5.6S125.1,79.7,125.4,76.3Z" fill="#da0a2a"/><path d="M92,87.1c5.8-.9,5.3-5,5.2-9.4-.1-15.6-1.7-31.2-2.2-46.8-.2-3.5-1.2-5.2-4.9-6.1C75.4,21,60.7,16.9,46,12.9V11.2L91.3,23c3.4.9,5.5,2.5,5.7,6.4.8,17.4,2.5,34.8,2.1,52.3C99,87,96.9,88.6,92,87.1Z" fill="#212121"/><path d="M438.8,83.2c0-2-.1-4,0-6,.3-3.7.5-7.2-5-6.1-1.8.3-2.3-.9-2.2-2.4s-.2-3.2,2.1-3.2h15.9c2.3,0,1.9,1.8,2,3.2s-.7,2.6-2.4,2.3c-5.2-1.1-5,2.2-4.9,5.8s-.1,10.2,0,15.4c.1,2.1-.7,2.8-2.8,2.8s-2.8-1-2.7-3S438.8,86.2,438.8,83.2Z" fill="#da0727"/><path d="M117.6,38.9c0-2.7-.1-5.3,0-8s.2-4.2-3.2-4-1.4-2.2-1.5-3.4.5-2.4,2.2-2.4h10.5c2-.1,2.6.7,2.5,2.6s.4,3.6-2.3,3.3-2.6,1.6-2.6,3.4c0,5.8-.1,11.6,0,17.4,0,2.1,0,3.4-2.8,3.4s-2.9-1.3-2.8-3.4S117.6,41.9,117.6,38.9Z" fill="#030303"/><path d="M75.9,98l-6.8,1-2.1.2A112.4,112.4,0,0,1,39.2,99l-.4-1,9.5-4h.2c5.7.9,11.1-1.1,16.6-2h2c3.5.9,6.1,3.5,9.1,5.1Z" fill="#eaeaea" opacity="0"/><path d="M53,74.8l39.8-2c0,2.6-1.7,2.1-2.9,2.2L53.2,77.7c-1.9.1-3.3.1-3.4-2.3-.5-12.8-1-25.6-1.4-38.4,0-.1.4-.3,1.4-1.1.8,13.1,1.5,25.6,2.3,38.2C52,74.9,52.4,75,53,74.8Z" fill="#0e0e0e"/><path d="M284.2,80.6V92c.1,1.9-.1,3.1-2.5,3.1s-3-1.1-3-3.2c.1-7.7.1-15.3,0-22.9,0-2.1.2-3.5,2.9-3.5s2.6,1.8,2.6,3.6Z" fill="#d90021"/><path d="M392.7,79.9c0-3.8.1-7.7,0-11.5,0-2.1.8-2.9,3-2.8s2.5.8,2.5,2.6c0,8.2-.1,16.3,0,24.5.1,2.1-.9,2.4-2.7,2.4s-2.8-.3-2.8-2.4c.1-3.8,0-7.7,0-11.5Z" fill="#d90021"/><path d="M35.5,91.9l-2.4,2c-3.4-.7-5.9-2.6-8.2-5.2C19.9,83.2,14.5,78,8,74.2a6.8,6.8,0,0,1-3.7-6.1c-.1-5.3-.4-10.6.5-15.9s2.9-6.8,7.3-7.3C4.8,50.4,6.3,58.4,6.1,66a7.5,7.5,0,0,0,3.8,7A84.1,84.1,0,0,1,27,88c2.2,2.4,4.7,4.1,8,4.1h.5Z" fill="#212121"/><path d="M374.6,83.1h-6.9c-1.9.1-3.2-.1-3.2-2.5s.5-3.4,3.1-3.3c4.6.1,9.3.1,13.9,0,2.4-.1,3.2.8,3.2,3.2s-1.1,2.7-3.1,2.6Z" fill="#db1230"/><path d="M119.9,95.1h-7c-2,.1-3.1-.2-3.1-2.6s.7-3.3,3.2-3.2c4.6.1,9.3.1,14,0,2.5-.1,3,1,3,3.3s-1.4,2.5-3.1,2.5Z" fill="#db1230"/><path d="M91.1,31.7,49,22.1V32.5h-.7V20.4c14.5,2.5,28.9,5.9,43.2,9.7Z" fill="#0e0e0e"/><path d="M91,34.5c1.7,11.3,2.8,22.6,1.7,34C90.4,57.3,91.3,45.9,91,34.5Z" fill="#0e0e0e"/><path d="M26,18.5c1.3-.4,2.3.2,1.5,1.3-3.8,6-5.6,12.8-8.1,19.2-.6,1.6-1.4,2.7-3.3,2.1C19.8,33.7,21.1,25.3,26,18.5Z" fill="#212121"/><path d="M34.1,13c.2,7,.6,14.1.8,21.1,0,1.1.9,3.3-1.9,2.5l-.9-21.2a1.3,1.3,0,0,0-1.6.8C29.8,13,31.3,12.3,34.1,13Z" fill="#0e0e0e"/><path d="M93.2,82c.4,1.9-.6,2.1-2.2,2.2s-2.3-1.9-2.4-3.3.5-2.9,2.1-2.9S93.1,80.2,93.2,82Z" fill="#212121"/><path d="M126.5,58.1c-1.5-.3-3.9.5-3.9-1.3s2.8-1.6,4.4-1.6,3.8-.6,3.7,1.2S127.9,57.5,126.5,58.1Z" fill="#c73237"/><path d="M65.1,92c-5.5.9-10.9,2.9-16.6,2,2.4-3.1,6.2-1.6,9.2-2.6s4.8-.7,7.2-1.1C65,90.9,65,91.5,65.1,92Z" fill="#0e0e0e"/><path d="M72,90.9V89.3c3.5-1.2,7.1-.7,10.7-.2C79.3,90.6,75.5,90.1,72,90.9Z" fill="#383838"/><path d="M46,11.2v1.7l-5.9-.4c-1.2-1.3-3,1.7-4.1-.5C39.1,8.6,42.6,10.1,46,11.2Z" fill="#0e0e0e"/><path d="M92,87.1c-.1,1.7-1.1,2.3-2.6,1.5a2.4,2.4,0,0,1-.9-1.6c1.1-1.5,2.3.4,3.5.1Z" fill="#f0f0f0"/><path d="M75.5,102.4c-.8-.5-2.1.3-2.3-1s.8-1.3,1.1-1.3.6,1.6,1.3,2.2Z" fill="#212121"/><path d="M65.1,92c-.1-.5-.1-1.1-.2-1.7l2.2-.2v1.8Z" fill="#212121"/><path d="M392.7,79.9v1.3c-.6,0-1.2,0-1.1-.8S392.3,80.1,392.7,79.9Z" fill="#e898a4"/><path d="M36.1,12c-.1,1.6-.9,1.6-2.1,1.1S34.9,11.4,36.1,12Z" fill="#0e0e0e"/><path d="M53,74.8c-.6.2-1,.1-.9-.7Z" fill="#f5f5f5"/><path d="M30.5,16.2a1.3,1.3,0,0,1,1.6-.8l-1.6.6Z" fill="#212121"/><path d="M19.6,49.9a16,16,0,0,1-12,4A31.5,31.5,0,0,1,19.6,49.9Z" fill="#383838"/><path d="M19.7,57.3A35.2,35.2,0,0,1,9,61.7C10.1,58.9,14.3,57.1,19.7,57.3Z" fill="#212121"/><path d="M17,65.7,9.3,68.5l-.5-1.4C11.2,65.9,13.3,63.8,17,65.7Z" fill="#383838"/><path d="M46.3,101.4c4.8-.4,9-.8,13.8.3A16.6,16.6,0,0,1,46.3,101.4Z" fill="#212121"/><path d="M33.8,98.6a3.2,3.2,0,0,1,2.6,2.7c-2.4.7-3-.5-2.7-2.6Z" fill="#212121"/><path d="M67,99.2l2.1-.2c-.1,1.5.1,3-2,3.1h0Z" fill="#212121"/><path d="M41,102.2c-1-.2-2-.3-2.3-1.5a1,1,0,0,1,.6-.5c1.2-.2,1.7.6,1.9,1.6Z" fill="#212121"/><path d="M67.1,102.1a2.2,2.2,0,0,1-3.4.4c.9-2,2.3-.1,3.4-.4Z" fill="#212121"/><path d="M80,99.6l-.5.7c-.1-.3-.3-.5-.3-.8a1.3,1.3,0,0,1,.4-.7Z" fill="#212121"/><path d="M41.2,101.8l2.1.7c-.1.2-.2.4-.3.4a1.9,1.9,0,0,1-2-.7Z" fill="#212121"/><path d="M75.9,98l.3-1c.5.1,1.2,0,1.1.7S76.4,97.9,75.9,98Z" fill="#212121"/><path d="M35.5,91.9H35C35.2,92.4,35.5,92.6,35.5,91.9Z" fill="#f2f2f2"/><path d="M36.4,96.8l-.3-.3.4-.2c.1,0,.1.2.2.3Z" fill="#f6f5f5"/><path d="M38.8,98l.4,1C38.4,98.9,38,98.7,38.8,98Z" fill="#212121"/><path d="M316.3,80.4a8.7,8.7,0,0,1-8.8,8.8,9.1,9.1,0,0,1-9.2-9,9.5,9.5,0,0,1,9-9A9.1,9.1,0,0,1,316.3,80.4Z" fill="#f2f2f2" opacity="0"/><path d="M148.6,77.5c-2.9.4-3.3-1.1-3.4-3.5s1.7-3.1,3.8-2.9,5.1.4,4.9,3.4S150.7,77.1,148.6,77.5Z" fill="#eaeaea" opacity="0"/><path d="M147.8,83c3.2.2,6,.2,6.1,3.2s-2.8,3-5.1,3.2-3.7-.2-3.6-3.1S145.9,82.4,147.8,83Z" fill="#eaeaea" opacity="0"/><path d="M125.4,76.3c-.3,3.4-2.1,5.5-5.3,5.5s-5.6-2.1-5.4-5.6,2-5.2,5.4-5.2S125.1,73.2,125.4,76.3Z" fill="#f0f0f0" opacity="0"/></svg>