<svg xmlns="http://www.w3.org/2000/svg" viewBox="0 0 41 41"><defs><style>.f49b3ae2-7e25-48bd-971d-713b6872a638{fill:none;stroke:#ececec;}.f5cfff22-fc9c-468f-9405-a6326d60552b{fill:#9a9a9a;fill-rule:evenodd;}</style></defs><title>twitter</title><g id="bdeb081c-ef87-4080-beec-c5427bacad81" data-name="Layer 2"><g id="f67d7209-dc48-479f-b1ac-a6a774ea3da0" data-name="Layer 1"><g id="e73549ab-fb14-454f-9a7a-392a5d7ca07e" data-name="The-Siren"><g id="fd382506-9db1-495c-8f24-9953eae0cd73" data-name="Header"><g id="afb5c8d4-438f-4c4d-b019-ec3af8fe51c9" data-name="Soc Icons"><g id="e597dfcb-fa2d-4be3-93ec-51631c101294" data-name="Twitter"><circle id="a60114d0-b81e-4c71-88e8-a103f2f56398" data-name="Oval-3" class="f49b3ae2-7e25-48bd-971d-713b6872a638" cx="20.5" cy="20.5" r="20"/><path class="f5cfff22-fc9c-468f-9405-a6326d60552b" d="M27.5,16.7A3.2,3.2,0,0,0,29,14.8a5.3,5.3,0,0,1-2.2.8,3.3,3.3,0,0,0-2.5-1.1A3.5,3.5,0,0,0,20.8,18a1.9,1.9,0,0,0,.1.8,9.5,9.5,0,0,1-7.2-3.7,4.1,4.1,0,0,0-.5,1.8,3.7,3.7,0,0,0,1.6,3,4.3,4.3,0,0,1-1.6-.5h0A3.4,3.4,0,0,0,16,22.9l-.9.2h-.7a3.4,3.4,0,0,0,3.3,2.4A6.8,6.8,0,0,1,13.3,27h-.8a9.7,9.7,0,0,0,5.3,1.6,10,10,0,0,0,10-10.1V18a9.8,9.8,0,0,0,1.7-1.8Z"/></g></g></g></g></g></g></svg>