<svg xmlns="http://www.w3.org/2000/svg" xmlns:xlink="http://www.w3.org/1999/xlink" viewBox="0 0 1084 245.4"><defs><radialGradient id="a" cx="422.9" cy="63.92" fx="153.91423878972972" fy="349.6608169601001" r="392.43" gradientTransform="translate(-75.8 52.1) scale(1.46 1.11)" gradientUnits="userSpaceOnUse"><stop offset="0" stop-color="#56b4b7"/><stop offset="0.06" stop-color="#74beac"/><stop offset="0.2" stop-color="#c0d790" stop-opacity="0.99"/><stop offset="0.28" stop-color="#e9e581" stop-opacity="0.98"/><stop offset="0.3" stop-color="#e3e383" stop-opacity="0.98"/><stop offset="0.33" stop-color="#d2dd89" stop-opacity="0.98"/><stop offset="0.36" stop-color="#b6d494" stop-opacity="0.99"/><stop offset="0.4" stop-color="#8fc7a2" stop-opacity="0.99"/><stop offset="0.44" stop-color="#5eb7b4"/><stop offset="0.45" stop-color="#56b4b7"/><stop offset="0.53" stop-color="#79c0aa"/><stop offset="0.71" stop-color="#d0dd8a"/><stop offset="0.76" stop-color="#e9e581"/><stop offset="0.8" stop-color="#dae086"/><stop offset="0.87" stop-color="#b3d395"/><stop offset="0.96" stop-color="#74beac"/><stop offset="1" stop-color="#56b4b7"/></radialGradient></defs><title>color-header</title><rect width="1084" height="245.43" fill="url(#a)"/><path d="M500.3,198.2c-1,5.6-6.6,8.6-2.9,12.4s5.9-2.2,7.9-6.1c3.7-7.3,9-11,15.6-11.3,2-.1,4,.1,4.8,3.2a8.6,8.6,0,0,1-1.6,7c-2.7,3.6-6.5,3.8-9.8,5.9,4.6,4.8,9.1,4.3,13-1.3s7.3-11.3,12.4-14.6c2.5-1.6,5-3,8.4-1.4-4,5.3-1.6,11.4-1.1,17.1s2.8,2.6,4,.9,3.2-6.1,5-8.8c3.5-5.3,8.1-8.2,13.5-8.5,2.2-.1,4.4-.1,5.3,3.4s-.6,5.4-2.2,7.4-6.3,3.1-9.3,5.5c5.6,5,11.1,3.7,14.5-3.6,2-4.1,3.9-8.2,6.8-11.2,1.1-1,2.2-2.3,3.5-1.5s-.4,3.6.9,5.8c2.9-2.1,5.8-5,9.3-5.9s5.2.2,3.7,5.3a29.9,29.9,0,0,0-.8,3.2c-.8,3.2-2.8,7.4-.3,9.4s5.3-1.8,6.5-5,5.6-6.8,3.4-12.6c5.8-.5,7.3-10.5,13.1-10.9,2.9,4.6-11.9,11.2,3.5,13.9-5.3,3-11.9-2.1-11.9,7.8,0,2.7-.1,5.2,2.1,6.4,5.1,2.6,8.5-1.7,12.1-5.7-2.7,14.9-13.6,20.6-22.5,11.8-1.8-1.7-2.1-.2-3,.6a28.5,28.5,0,0,1-3.6,3.4c-2.6,1.9-5.4,2.5-7.8-.1s-2.3-6.1-1.5-9.4,2.4-7.6,4-12.4c-6.5,3.4-10.3,7.9-10.7,16.9-.2,7-2.3,8.3-6.1,3.7-2.2-2.7-3.3-2.6-5.8-.8-6.5,4.9-13.2,6.9-19.1-1.8-2.1-3.2-2.8,0-4.1.7-7,4.1-14,9.7-21.1-.1-1.6-2.3-2.6.2-3.7,1.1-6.7,5.1-13.5,7.6-19.9-.7-1.4-1.8-2-.9-3.1.1a20.7,20.7,0,0,1-4.2,3.7c-3.5,2.2-7,1.7-9.3-2.4s-.7-7.6,1.3-10.9c.9-1.5,2-2.9,3.5-5-7.1-3.2-6.2,9.7-11.9,9.5,1-5.6,8.6-10,1.6-16.2-3.8,7.9-8.4,14.5-15.9,15.4-2.6.4-5.5.1-5.3-4.9s-.5-8.3,4.6-7c2.7.8,5.5-1,7.7-3.5s6.5-8.1,5.2-14.4-5.8-7.9-10.2-8.5a17.8,17.8,0,0,0-11.9,2.2c-3.7,2.2-7.1,4.9-4.8,11.6.7,2.3.3,3.9-1.4,4.8s-2.8-.6-3.6-2.5c-2.2-5.6-.5-10.4,3-13.2,8.8-7.3,18.3-8.7,28.1-3.1,2.9,1.6,4.9,4.7,5.9,8.6s-1.7,10.8,5.7,8.7C491.3,189.9,494.4,200,500.3,198.2Zm41.3-1.4c-3-.6-4.6,2.2-6.6,4s-2,3.5-1,5.9,1.4,3.6,3.2,3.5,2.4-1.9,3-3.7A22.5,22.5,0,0,0,541.6,196.8Zm-21.1,2.4c-.4-2.3-1.5-2.9-2.9-2.5s-3.9,3.4-4.5,6.6.8,2.5,2,2.1A7.5,7.5,0,0,0,520.5,199.2Zm41.3,5.7c4,0,6.6-1.3,7.5-5.9.3-1.5-.4-2.9-1.7-2.8C564,196.4,562.7,199.8,561.8,204.9Z" fill="#c73237" stroke="#000" stroke-miterlimit="10"/><path d="M465.3,178.1c-4.6,12.6-6.2,26.3-9.8,39.2-.9,3.3-1.4,7.4-5.4,6.4s-6-1.8-3.3-8c4.1-9.2,7.5-19,11.4-28.3C459.8,183.5,461.6,179.7,465.3,178.1Z" fill="#c73237" stroke="#000" stroke-miterlimit="10"/><path d="M709.8,129.1c-4.4,16-18.6,22.2-27.2,12.6-2.9-3.1-3.7.2-5.2,1.3-7.4,5.7-12.2,4.9-17.4-3.5-4.6,4.9-10.4,9.3-15.8,7s-12.8-.7-19.1-.6-10.8-.3-16.5,1.3-6.1-4.4-5.2-9.7,2.5-8.1,4.2-13.1c-6.7,3-10.1,8.2-10.7,16.8-.2,2,.6,5-1.5,5.8s-4.1-.4-5.1-2.7c-1.7-4.1-3.2-2.1-5.5-1-7,3.4-14.3,8.8-21.4,0-2.1-2.5-3,.6-4.3,1.4-4.6,3-9.1,6.5-12.7-1.8-1-2.4-2-.7-3.1-.1-7.4,4.5-14.7,10.3-22.1-.6-1.5-2.2-2.8,1.3-4.3,2.1-6.8,3.2-13.5,8.3-20-1-2-2.9-2.9.5-4.1,1.4-7.6,5.8-13,5.7-19.8-1.7-1.8-2-2.4-.4-3.6.4-7.3,4.6-14.7,10.4-22-.3-1.5-2.2-2.7.4-3.9,1.2a25.8,25.8,0,0,1-15.4,4.7c-5.2-.1-8.9-4.4-7.9-10.7,2.1-14.1,8.7-25,16.3-34.8.6,6.7-3.6,10.6-4.4,17.1,3.7.1,8.1-2.5,10.8,2.8s.3,9.8-.4,15.8c5.1-4.1,7.5-10.3,11.4-14.4s7.8-7.9,13.8-6.1c-4.4,5.6-2.5,12.2-1.1,17.4s4.3.5,5.2-1.4c2.5-5.1,5.1-9.8,9.3-12.5a7.6,7.6,0,0,1,1.8-.9c3.9-1.3,9.2-5.3,11.1,2s-3.5,8.6-7.4,10.5c-1.3.7-3,.4-4.2,3.3,5.2,2.4,9.7,3.2,13.7-3.3s7.5-11.6,13.1-14.7a9,9,0,0,1,6.7-1.2c1.5,3.2-2.1,2.8-1.7,5.5.6,4.9-.3,11.6,2.6,14s4.2-4.4,6.3-6.9c5.1-6.3,9.5-14,18.5-12.8-4.5,6.2-1.2,12.4-1,18.5.1,3,2.2,1.4,3.4.4,3-2.4,4.7-6.5,6.8-10s4.1-7.1,7.9-7.8c.7,4.4-1.9,6.1-2.5,9s-2,6.3.5,8.5,5,.2,6.4-2.9c2.3-5.3,5.9-8.6,9.4-12.3s6.4-4.2,9.9-1.5,4.3,7.5,3.3,12.7c-.2,1-.4,2.1-.6,3.4,3.3.9,4.1-2.4,5.3-4.9s3.4-7.2,5.9-9.9,2.7-3.5,4.5-2-.9,3.5.3,5.8c1-.8,2-1.8,3-2.5,3-2,6.6-5.9,9.4-3.3s-.4,7.6-.9,11.5c-.3,2.3-1.3,4.7.6,6.1s3.4-.4,4.5-2c2.5-3.5,4.6-7.4,7.1-10.9s3.3-6.1,6.8-4.9c.1,3.5-2.2,5.1-2.8,7.8s-2.6,6.6.4,9.1,4.5-.4,6.3-3.1a89.6,89.6,0,0,1,9.2-11.7c3-3.2,6.5-5.5,11.4-4-3.2,3.5-2.4,7.8-1.8,11.9s-.5,6.8,1.7,7.6,4.8-2.4,5.8-5.5,5.7-6.6,3.3-12.4c5.7-.7,7.5-10.1,13.2-11.3,2.4,4.8-9.9,10.6,1.2,13.5-.7,3.8-2.8,2.2-4.2,2s-4.1.4-4.9,3.8-1.5,5.5.3,8,3.8,2.3,6,1.6c4.5-1.5,6.5-7.1,9.5-10.9,4.3-5.4,8.7-9.8,15.9-9.1-4.6,6.1-1.3,12.2-1.4,18.1-.1,3.3,2,2.3,3.2,1.2A75.9,75.9,0,0,0,709.8,129.1Zm-270-1.5c-.3-3.3-1.7-4.9-4-4.2-4,1.3-6.9,4.5-7.4,10.3-.3,3,.8,5.3,3.3,4.5C436,136.9,438.8,133.2,439.8,127.6ZM573.2,137c3.3-1.3,5.2-4.5,5.5-9.1.2-2.7-.3-5.8-2.8-5.2s-5.2,4.8-5.4,9.4C570.3,134.5,570.8,136.7,573.2,137Zm-63.1-14.4c-2.9.5-4.7,2.5-6.5,4.4s-2.4,3.2-1.2,5.7,1.3,3.7,3,3.8,2.9-2.3,3.4-4.3S510.6,126.5,510.1,122.6Zm-49.2.7c-2.8.1-4.6,2.4-6.6,4.4a4.9,4.9,0,0,0-.9,5.8c.7,1.7,1.4,3.7,3.2,3.5s2.4-2,3-3.8A21.1,21.1,0,0,0,460.9,123.3Zm69.6,13.2c3.6-1.6,3.8-6.1,4.5-10.1.2-1.5.6-4.2-1.4-3.5s-5.8,2.8-6.4,7.1A5.8,5.8,0,0,0,530.5,136.5Zm119.4-14.9c-3-.2-4.4,1.7-5.9,3s-3.3,3-2.4,6.1,1.4,4.4,3.4,4.4,2.9-2.8,3.5-5.1A77.2,77.2,0,0,0,649.9,121.6Zm45.1-.3c-2.9-.3-4.6,2.3-6.5,4.4s-1.4,3.9-.5,6,1.4,3.1,2.8,3,2.6-1.8,3.1-3.6S696,124.9,695,121.3ZM483.8,131.7c2.3-1.2,4.9-2.2,4.9-6.6,0-1.7-1-2.4-2.2-2.1-3,.5-4.4,3.4-5,6.9S482.6,131.7,483.8,131.7Z" fill="#c73237" stroke="#000" stroke-miterlimit="10"/><path d="M545.1,61.1c4-2.7,7.5-6,11.6-7.1s5.6-.7,3.5,5l-.3.8c-.8,3.3-3.3,7.8-.2,9.9s4.7-3.1,6.2-6.4c3.5-7.2,8.6-10.8,14.9-11.5,2.3-.3,5-.5,5.8,3.6a7.6,7.6,0,0,1-3,7.7,99.1,99.1,0,0,1-9.6,5.5c7.3,4.7,12.4,1.9,17.1-4.7-1.3,14.3-15.8,22.2-24.4,13.5-1.6-1.6-2.4-3.3-4.5-.9s-7.2,7.4-10.9,2.8-1.1-11,1.3-16.1a12.3,12.3,0,0,0,.9-2.3c-6.6,1.2-10.4,5.7-11.6,13.5-.4,2.9,0,7-3.6,6.4s-4.1-3.6-4.2-7.3a27.1,27.1,0,0,1,1.6-9.9A77.1,77.1,0,0,1,551.3,38c1.9-2.1,4.2-5.1,6.7-1.5s.6,6.9-1.3,9.8a23.2,23.2,0,0,1-7.2,6.8C547.1,54.6,545,56.2,545.1,61.1Zm36-3.3c-.2-1.6-.8-2.9-2.4-2.6s-3.9,2.9-4.7,6c-.4,1.5,0,2.9,1.4,2.7S580.2,61.8,581.1,57.8Z" fill="#c73237" stroke="#000" stroke-miterlimit="10"/><path d="M408.9,97.9c9.9-.5,13.7,6.6,10.2,18.8-1.4,4.8-.9,10.1-2.7,14.8-4.2,11.1-10.4,18.7-20.1,19.6s-15.3-7.8-14.4-20.3C383.1,114.1,395.9,98.6,408.9,97.9Zm6.8,24.6c-2.4-1.1-5.2,1.9-6.2-1.6s2.3-3.5,3.3-5.5,3.4-6.7,1.5-11-4.7-3.4-7.4-3c-8.1,1.3-15,13-14.9,25.2,0,10.6,5.5,15.7,12.9,11.8C410.1,135.6,413.4,130.2,415.7,122.5Z" fill="#c73237" stroke="#000" stroke-miterlimit="10"/><path d="M526.3,37.5c-4.3-1-8.2.6-12,2.2s-4,3.6-3,7.2.6,5.9-2.2,6.3-4.1-2.7-4.5-5.9c-.5-5.3,2-8,5.2-9.6,5.6-2.9,11.5-3.5,17.5-4.4s10.5.6,12.9-7.7c.6-2.1,2.5-2.6,3.6-.2a5.7,5.7,0,0,1-.9,6.8c-2.5,2.4-5.5,3-8.5,3.2s-5.4,2.6-5.3,8.1c0,9.9-.3,20-4.6,28.8a26.5,26.5,0,0,1-7.2,9.4c-3.4,2.6-6.1,1.6-8.4-2.3s-2.6-7.9.1-11.5,5.2-5.8,7.8-8.8C521.8,53.4,525.7,47,526.3,37.5Z" fill="#c73237" stroke="#000" stroke-miterlimit="10"/><path d="M635.5,101.5c2.1.5,4.6.9,4.2,4.8s-3.2,4.8-5.9,4.9-4.1-.7-3.9-4.1S632.9,102.1,635.5,101.5Z" fill="#c73237" stroke="#000" stroke-miterlimit="10"/><path d="M562.6,111.9c-2.6.1-4.7,0-4.9-3.4s2.2-5.7,4.9-6.1,4.7.5,4.7,3.9S564.6,111.4,562.6,111.9Z" fill="#c73237" stroke="#000" stroke-miterlimit="10"/></svg>