<svg xmlns="http://www.w3.org/2000/svg" viewBox="0 0 1076 345"><title>color-header-2</title><rect width="1076" height="345" fill="#333"/><path d="M447.6,284.8c-2,8.2-12.9,12.5-5.7,18s11.6-3.2,15.4-8.8c7.3-10.7,17.6-16,30.5-16.5,3.8-.2,7.8.2,9.2,4.6s-.3,7.2-3.1,10.1c-5.2,5.3-12.7,5.6-19.1,8.6,8.9,7,17.8,6.1,25.3-2s14.2-16.3,24.2-21.1c4.8-2.3,9.8-4.4,16.4-2.1-7.8,7.7-3.3,16.4-2.3,24.7.9,6.7,5.5,3.8,7.9,1.3s6.1-8.8,9.7-12.7a36.5,36.5,0,0,1,26.2-12.4c4.3-.2,8.7-.1,10.4,4.9s-1.2,7.8-4.4,10.7c-5,4.8-12.3,4.5-18,8.1,10.9,7.1,21.5,5.2,28.3-5.4,3.8-5.9,7.5-11.8,13.2-16.2,2.1-1.5,4.3-3.3,6.8-2.2s-.9,5.2,1.7,8.4c5.7-3.1,11.3-7.2,18.2-8.6s10,.2,7.2,7.7c-.6,1.5-1.2,3.1-1.7,4.6-1.5,4.6-5.4,10.8-.6,13.6s10.3-2.6,12.7-7.3,10.9-9.8,6.6-18.1c11.3-.9,14.3-15.3,25.6-16,5.6,6.6-23.2,16.4,6.7,20.2-10.2,4.3-23-3-23.2,11.3,0,3.9-.2,7.5,4.2,9.2,9.8,3.7,16.4-2.5,23.5-8.2-5.4,21.6-26.6,29.8-43.9,17.2-3.4-2.5-4-.4-5.7.8s-4.6,3.7-7.1,5c-5,2.7-10.5,3.6-15.2-.1s-4.4-8.9-2.8-13.7,4.7-10.9,7.7-17.9c-12.5,5-20,11.5-20.7,24.5-.6,10.2-4.7,12.1-12,5.4-4.3-3.9-6.4-3.8-11.2-1.1-12.7,7.1-25.9,10-37.2-2.6-4.1-4.5-5.6.1-8.1,1.2-13.6,5.8-27.3,13.9-40.9-.2-3.2-3.3-5,.3-7.3,1.6-13.1,7.5-26.2,11.1-38.7-.9-2.7-2.6-3.9-1.3-6,.3A45,45,0,0,1,442,318c-6.7,3.2-13.6,2.5-18-3.4s-1.3-11,2.6-15.8c1.8-2.2,3.9-4.2,6.8-7.3-13.8-4.5-12.1,14.1-23.3,13.8,2.1-8.1,16.8-14.4,3.3-23.4-7.5,11.4-16.4,21-31,22.4-5.2.5-10.7.2-10.3-7.1.2-5.4-.9-12.1,9-10.1,5.3,1,10.6-1.6,15-5.1,6.6-5.5,12.7-11.8,10.1-21s-11.2-11.3-19.8-12.3a44.6,44.6,0,0,0-23.1,3.4c-7.2,3.1-13.9,7.1-9.5,16.7,1.5,3.4.7,5.7-2.6,7s-5.6-.8-7-3.5c-4.2-8.2-1-15.1,5.8-19.3,17.3-10.5,35.8-12.7,54.8-4.6a20.5,20.5,0,0,1,11.4,12.5c1.8,5.5-3.3,15.7,11,12.6C430.1,272.8,436.1,287.4,447.6,284.8Zm80.4-2.2c-5.8-.9-9,3.2-12.9,5.8s-3.8,5.2-1.9,8.5,2.7,5.2,6.1,5.1,4.8-2.8,5.9-5.4C527.2,292.2,528.7,287.7,528,282.6Zm-41.2,3.5c-.6-3.3-2.8-4.2-5.5-3.6-5,1.2-7.6,5-8.7,9.6-.7,2.7,1.4,3.6,3.8,3C481.5,293.9,485.6,291.6,486.8,286.1Zm80.5,8.1c7.7,0,12.8-1.9,14.6-8.5a3.1,3.1,0,0,0-3.2-4.2C571.6,281.8,569.1,286.8,567.3,294.2Z" fill="#e7e7e7" stroke="#c73237" stroke-miterlimit="10"/><path d="M379.7,255.9c-9.1,18.2-12.3,38.1-19.3,56.7-1.8,4.9-2.9,10.8-10.5,9.4s-11.8-2.6-6.4-11.5c8.1-13.4,14.6-27.6,22.2-41.2C368.8,263.8,372.5,258.2,379.7,255.9Z" fill="#e7e7e7" stroke="#c73237" stroke-miterlimit="10"/><path d="M855.5,183.8c-8.4,23.1-36.2,32.1-52.9,18.4-5.6-4.6-7.2.2-10.2,1.9-14.4,8.3-23.7,7.1-33.7-5-9,7.1-20.4,13.5-30.8,10.2-13.3-4.2-24.9-.9-37.2-.9s-21-.2-32,2.1c-9.2,1.9-12-6.3-10.1-14.1,1.4-6.1,4.9-11.7,8.1-18.9-12.9,4.4-19.6,11.9-20.9,24.3-.3,2.9,1.3,7.3-2.9,8.5a8.6,8.6,0,0,1-9.8-4c-3.4-5.9-6.3-2.9-10.8-1.3-13.7,5-27.8,12.7-41.7.1-4-3.6-5.8.8-8.4,2.1-8.8,4.3-17.5,9.3-24.5-2.7-2-3.4-4-1-6.2,0-14.3,6.5-28.6,14.9-42.9-.8-2.9-3.2-5.5,1.9-8.4,3-13.2,4.7-26.4,12.1-38.9-1.3-3.9-4.2-5.7.7-8.1,2.1-14.6,8.4-25.1,8.2-38.4-2.4-3.6-2.9-4.6-.6-7.1.5-14.2,6.8-28.5,15.2-42.8-.3-2.8-3.1-5.2.6-7.5,1.8-9.4,5-19.6,6.9-30.1,6.9s-17.2-6.3-15.3-15.4c4.2-20.5,17.1-36.2,32-50.4,1.1,9.5-7.2,15.2-8.7,24.7,7.3.1,15.8-3.8,21.1,4s.5,14.2-1,22.8c10-5.9,14.8-14.9,22.4-20.8s15.1-11.6,26.8-8.9c-8.6,8.1-4.9,17.6-2.2,25.1,3.1,9,8.4.8,10.1-2,4.8-7.5,10-14.2,18.2-18.2a19.9,19.9,0,0,1,3.4-1.3c7.7-1.8,17.9-7.7,21.6,2.9s-6.8,12.5-14.4,15.2c-2.5,1-5.9.5-8.2,4.8,10.2,3.4,18.8,4.5,26.8-4.8s14.6-16.9,25.4-21.4c4.4-1.8,8.6-2.6,13.1-1.7,2.9,4.6-4.1,4-3.4,7.8,1.2,7.1-.6,16.9,5,20.4s8.2-6.4,12.3-10.1c10-9.1,18.7-20.2,36.1-18.6-8.8,8.9-2.5,18-2.1,26.8.1,4.4,4.4,2.1,6.7.6,5.8-3.6,9.1-9.5,13.3-14.5s7.9-10.3,15.4-11.4c1.3,6.4-3.8,8.9-5,13.1s-3.9,9,.9,12.3,9.8.2,12.5-4.3c4.6-7.7,11.5-12.4,18.4-17.8s12.5-6.1,19.2-2.2,8.4,10.8,6.4,18.3c-.4,1.5-.7,3.1-1.1,5,6.4,1.2,8-3.5,10.2-7.1,3.3-5.3,6.8-10.4,11.6-14.4,2.5-2.1,5.2-5.2,8.7-3s-1.7,5.2.7,8.4c1.9-1.2,3.8-2.6,5.8-3.6,5.9-2.9,12.9-8.5,18.4-4.8s-1,11-1.9,16.7c-.5,3.2-2.6,6.7,1.2,8.8s6.6-.6,8.8-2.9c4.8-5.1,9-10.8,13.8-15.9,3.5-3.6,6.5-8.8,13.2-7.1.1,5.1-4.2,7.4-5.4,11.2s-5.3,9.6.6,13.3,8.7-.6,12.3-4.5a137.8,137.8,0,0,1,18-17c5.8-4.6,12.6-8.1,22.2-5.9-6.2,5.2-4.7,11.3-3.6,17.2.7,3.9-1,9.9,3.3,11.1s9.3-3.6,11.3-8,11.1-9.6,6.5-17.9c11.1-1.2,14.7-14.8,25.8-16.5,4.7,6.9-19.4,15.4,2.2,19.6-1.4,5.4-5.5,3.2-8.1,2.9-4.9-.5-8,.5-9.6,5.4s-3,8.1.6,11.6,7.4,3.4,11.6,2.3c8.8-2.2,12.6-10.3,18.6-15.8,8.4-7.8,16.9-14.2,30.9-13.3-9,8.9-2.6,17.7-2.8,26.2-.1,4.8,3.9,3.4,6.3,1.8S850.6,187.8,855.5,183.8Zm-525.2-.9c-.7-4.8-3.4-7.1-7.8-6-7.9,1.9-13.5,6.5-14.5,14.9-.5,4.3,1.6,7.7,6.5,6.6C322.9,196.5,328.2,191.1,330.3,182.9ZM589.7,196c6.5-2,10.2-6.6,10.9-13.3.4-3.8-.6-8.4-5.6-7.4-6.8,1.3-10,6.8-10.5,13.5C584.2,192.3,585.1,195.4,589.7,196ZM467,175.3c-5.6.9-9.1,3.7-12.6,6.4s-4.6,4.7-2.4,8.4,2.6,5.3,6,5.4,5.5-3.3,6.5-6.3S468.1,181.1,467,175.3Zm-95.6,1.3c-5.5.2-9.1,3.5-12.8,6.4s-3.8,5.2-1.9,8.5,2.8,5.2,6.2,5,4.7-2.9,5.9-5.5C370.7,186.6,372.3,182.2,371.4,176.6Zm135.3,18.7c7.1-2.3,7.5-8.8,8.8-14.6.5-2.1,1.1-6-2.6-5-5.4,1.5-11.3,4-12.7,10.2C499.3,190.2,501.9,193.7,506.7,195.3Zm232.5-22.1c-6-.2-8.7,2.5-11.7,4.5s-6.3,4.3-4.6,8.7,2.6,6.4,6.5,6.4,5.8-4.1,7-7.4S738.2,177.8,739.2,173.2Zm87.6-.7c-5.6-.3-8.9,3.5-12.6,6.4s-2.8,5.7-1.1,8.8,2.7,4.4,5.5,4.3,5.1-2.6,6.1-5.3C826.4,182.2,828.9,177.8,826.8,172.5ZM415.9,188.6c4.4-1.7,9.5-3.2,9.5-9.4.1-2.5-2-3.5-4.3-3.2-5.7.9-8.5,5-9.6,10C410.8,189,413.6,188.7,415.9,188.6Z" fill="#c73237" stroke="#56b4b7" stroke-miterlimit="10" stroke-width="2"/><path d="M535.6,86.1c7.7-3.9,14.5-8.7,22.5-10.2,5.7-1.1,10.9-1.1,6.8,7.1a6.1,6.1,0,0,0-.5,1.2c-1.6,4.9-6.5,11.4-.6,14.3S573,94,576,89.3c6.8-10.5,16.7-15.7,29-16.8,4.6-.3,9.7-.7,11.2,5.2s-1.7,9-5.9,11.2-11.2,4.9-18.6,8c14.1,6.7,24.1,2.6,33.3-6.9-2.7,20.7-30.8,32.2-47.6,19.6-3.2-2.3-4.6-4.7-8.8-1.1-6,5.1-14,10.6-21.1,4s-2.1-15.9,2.7-23.3c.6-1,1.1-2.1,1.7-3.3-13,1.7-20.4,8.2-22.7,19.6-.8,4.1,0,10-7,9.3s-8.1-5.2-8.2-10.7a28.6,28.6,0,0,1,3.3-14.3,111.4,111.4,0,0,1,30.4-37.1c3.8-3,8.2-7.4,13-2.2s1,10-2.6,14.1a41.3,41.3,0,0,1-14.1,10C539.4,76.8,535.2,79.1,535.6,86.1Zm70-4.8c-.5-2.3-1.7-4.3-4.7-3.9-5.2.7-7.7,4.3-9.1,8.7-.8,2.2-.1,4.3,2.7,4C599.7,89.5,603.7,87,605.6,81.3Z" fill="#e7e7e7" stroke="#c73237" stroke-miterlimit="10"/><path d="M270.3,140.1c19.2-.7,26.7,9.4,19.8,27.2-2.7,6.9-1.9,14.6-5.4,21.4-8.3,16.2-20.3,27.2-39.1,28.5s-29.8-11.3-28-29.4C220,163.7,244.9,141.1,270.3,140.1Zm13.1,35.7c-4.7-1.8-10.2,2.7-12.1-2.4s4.5-5,6.5-8c3.2-4.9,6.6-9.7,3-15.9s-9.1-4.9-14.4-4.3c-15.9,1.9-29.3,18.8-29.2,36.6,0,15.3,10.7,22.7,25,16.9C272.4,194.6,278.9,186.9,283.4,175.8Z" fill="#c73237" stroke="#56b4b7" stroke-miterlimit="10" stroke-width="2"/><path d="M499,52.1c-8.4-1.5-15.9,1-23.3,3.3-4.9,1.6-7.9,5.2-6,10.5s1.2,8.4-4.3,9-7.9-3.8-8.6-8.6c-1.1-7.5,4-11.4,10-13.8,11-4.2,22.6-5.1,34.2-6.4,9.4-1,20.4.8,25.2-11.3,1.2-3,4.9-3.7,6.9-.3s2,7.3-1.7,9.9-10.8,4.3-16.6,4.7c-7.5.5-10.5,3.7-10.5,11.7.1,14.4-.6,28.9-8.9,41.6a43.3,43.3,0,0,1-14.1,13.8c-6.6,3.8-11.9,2.3-16.4-3.3s-4.9-11.5.4-16.7,10.1-8.5,15.2-12.8C490.1,75.2,497.8,65.8,499,52.1Z" fill="#e7e7e7" stroke="#c73237" stroke-miterlimit="10"/><path d="M711.1,144.1c4.1.8,9.1,1.4,8.2,7s-6.3,7-11.4,7.2-8-1.1-7.6-5.9S706.1,145.1,711.1,144.1Z" fill="#e7e7e7" stroke="#c73237" stroke-miterlimit="10"/><path d="M569.2,159.7c-5,.1-9.1,0-9.5-5s4.5-8.3,9.6-8.9,9.1.8,9.2,5.8S573.1,158.9,569.2,159.7Z" fill="#e7e7e7" stroke="#c73237" stroke-miterlimit="10"/></svg>