<svg xmlns="http://www.w3.org/2000/svg" viewBox="0 0 1076.2 153.4"><title>small-header-1</title><rect x="0.1" y="0.7" width="1076" height="151.98" transform="translate(-0.1 0.7) rotate(-0.1)" fill="#333"/><path d="M483.4,117.6c-1,5.6-6.6,8.6-2.9,12.4s5.9-2.2,7.9-6.1c3.7-7.3,9-11,15.6-11.3,2-.1,4,.1,4.8,3.2a8.3,8.3,0,0,1-1.6,6.9c-2.7,3.7-6.5,3.9-9.8,5.9,4.6,4.9,9.1,4.3,13-1.3s7.3-11.2,12.4-14.5c2.5-1.6,5-3,8.4-1.4-4,5.3-1.6,11.3-1.1,17s2.8,2.6,4,.9,3.2-6,5-8.7c3.5-5.3,8.1-8.2,13.5-8.5,2.2-.1,4.4-.1,5.3,3.3s-.6,5.4-2.2,7.5-6.3,3-9.3,5.5c5.6,4.9,11.1,3.6,14.5-3.7,2-4.1,3.9-8.1,6.8-11.1,1.1-1,2.2-2.3,3.5-1.5s-.4,3.6.9,5.8c2.9-2.2,5.8-5,9.3-5.9s5.2.1,3.7,5.3a29.9,29.9,0,0,0-.8,3.2c-.8,3.1-2.8,7.4-.3,9.3s5.3-1.8,6.5-5,5.6-6.8,3.4-12.5c5.8-.6,7.3-10.5,13.1-10.9,2.9,4.6-11.9,11.2,3.5,13.9-5.3,3-11.9-2.1-11.9,7.7,0,2.7-.1,5.3,2.2,6.4,5,2.6,8.4-1.7,12-5.6-2.7,14.9-13.6,20.5-22.5,11.8-1.8-1.7-2.1-.3-3,.6s-2.3,2.4-3.6,3.4-5.4,2.4-7.8-.1-2.3-6.2-1.5-9.5,2.4-7.5,4-12.3c-6.5,3.4-10.3,7.9-10.7,16.9-.2,6.9-2.3,8.3-6.1,3.6-2.2-2.7-3.3-2.6-5.8-.7-6.5,4.8-13.2,6.8-19.1-1.9-2.1-3.1-2.8.1-4.1.8-7,4-14,9.6-21.1-.2-1.6-2.3-2.5.2-3.7,1.1-6.7,5.2-13.5,7.6-19.9-.7-1.4-1.8-2-.9-3.1.2a29.3,29.3,0,0,1-4.2,3.7c-3.5,2.2-7,1.6-9.3-2.4s-.7-7.6,1.3-10.9c.9-1.5,2-2.9,3.5-5.1-7.1-3.1-6.2,9.8-11.9,9.6,1-5.7,8.6-10,1.6-16.2-3.8,7.8-8.4,14.4-15.9,15.4-2.6.3-5.5.1-5.3-4.9s-.5-8.4,4.6-7c2.7.7,5.5-1,7.7-3.5s6.5-8.1,5.2-14.4-5.8-7.9-10.2-8.5A17.8,17.8,0,0,0,440,94.8c-3.7,2.2-7.1,4.9-4.8,11.6.7,2.3.3,3.9-1.4,4.8s-2.8-.6-3.6-2.5c-2.2-5.6-.5-10.4,3-13.2,8.8-7.2,18.3-8.7,28.1-3.1,2.9,1.7,4.9,4.7,5.9,8.6s-1.7,10.8,5.7,8.7C474.4,109.3,477.5,119.3,483.4,117.6Zm41.3-1.4c-3-.6-4.6,2.2-6.6,4a4.8,4.8,0,0,0-1,5.8c.7,1.7,1.4,3.6,3.2,3.5s2.4-1.9,3-3.7A21.8,21.8,0,0,0,524.7,116.2Zm-21.1,2.4c-.4-2.4-1.5-3-2.9-2.5s-3.9,3.4-4.5,6.5.8,2.5,2,2.1A7.2,7.2,0,0,0,503.6,118.6Zm41.3,5.7c4-.1,6.6-1.3,7.5-5.9.3-1.5-.4-2.9-1.7-2.9C547.1,115.7,545.8,119.2,544.9,124.3Z" fill="#c73237" stroke="#000" stroke-miterlimit="10"/><path d="M448.4,97.5c-4.6,12.6-6.2,26.3-9.8,39.1-.9,3.4-1.4,7.4-5.4,6.5s-6-1.8-3.3-8c4.1-9.2,7.5-19,11.4-28.3C442.9,102.9,444.7,99.1,448.4,97.5Z" fill="#c73237" stroke="#000" stroke-miterlimit="10"/><path d="M745.9,53.6c-4.4,15.9-18.6,22.1-27.2,12.6-2.9-3.2-3.7.1-5.2,1.3-7.4,5.7-12.2,4.8-17.4-3.5-4.6,4.9-10.4,9.3-15.8,7s-12.8-.7-19.1-.7-10.8-.2-16.5,1.4-6.1-4.4-5.2-9.7,2.5-8.1,4.2-13.1c-6.7,3-10.1,8.2-10.7,16.7-.2,2.1.7,5.1-1.5,5.9s-4.1-.5-5.1-2.7c-1.7-4.1-3.2-2.1-5.5-1-7,3.4-14.3,8.7-21.4,0-2.1-2.5-3,.6-4.3,1.4-4.6,3-9.1,6.4-12.7-1.8-1-2.4-2-.8-3.1-.1-7.4,4.4-14.7,10.2-22.1-.6-1.5-2.3-2.8,1.3-4.3,2-6.8,3.3-13.5,8.4-20-1-2-2.8-2.9.6-4.1,1.5-7.6,5.8-13,5.6-19.8-1.7-1.8-2-2.4-.4-3.6.3-7.3,4.7-14.7,10.5-22-.3-1.5-2.1-2.7.5-3.9,1.3a25.1,25.1,0,0,1-15.4,4.6c-5.2,0-8.9-4.3-7.9-10.6,2.1-14.1,8.7-24.9,16.3-34.7.6,6.6-3.6,10.5-4.4,17,3.7.2,8.1-2.5,10.8,2.8s.3,9.8-.4,15.8c5.1-4.1,7.5-10.3,11.4-14.4s7.8-7.9,13.8-6.1c-4.4,5.6-2.5,12.2-1.1,17.4s4.3.5,5.2-1.4c2.5-5.2,5.1-9.8,9.3-12.5a7.6,7.6,0,0,1,1.8-.9c3.9-1.3,9.2-5.3,11.1,2s-3.5,8.6-7.4,10.5c-1.3.6-3,.4-4.2,3.3,5.2,2.3,9.7,3.1,13.7-3.3s7.5-11.6,13.1-14.7c2.2-1.2,4.4-1.8,6.7-1.1,1.5,3.1-2.1,2.7-1.7,5.4.6,4.9-.3,11.6,2.6,14s4.2-4.4,6.3-6.9c5.1-6.3,9.5-14,18.5-12.8-4.5,6.2-1.2,12.4-1,18.5.1,3,2.2,1.4,3.4.4,3-2.5,4.7-6.5,6.8-10s4.1-7.1,7.9-7.8c.7,4.4-1.9,6.1-2.5,9s-2,6.3.5,8.5,5,.2,6.4-2.9c2.3-5.3,5.9-8.6,9.4-12.3s6.4-4.1,9.9-1.5,4.3,7.5,3.3,12.7c-.2,1-.4,2.1-.6,3.4,3.3.8,4.1-2.4,5.3-4.9s3.4-7.2,5.9-9.9,2.7-3.5,4.5-2-.9,3.5.3,5.8c1-.8,2-1.8,3-2.5,3-2,6.6-5.9,9.4-3.3s-.4,7.6-.9,11.5c-.3,2.2-1.3,4.6.6,6.1s3.4-.4,4.5-2c2.5-3.5,4.6-7.4,7.1-10.9s3.3-6.1,6.8-4.9c.1,3.5-2.2,5.1-2.8,7.7s-2.6,6.7.4,9.2,4.5-.4,6.3-3.1a89.6,89.6,0,0,1,9.2-11.7c3-3.2,6.5-5.5,11.4-4-3.2,3.5-2.4,7.8-1.8,11.9.4,2.6-.5,6.8,1.7,7.6s4.8-2.5,5.8-5.5,5.7-6.6,3.3-12.4c5.7-.7,7.5-10.1,13.2-11.2,2.4,4.7-9.9,10.5,1.2,13.4-.7,3.8-2.8,2.2-4.2,2s-4.1.4-4.9,3.8-1.5,5.5.3,7.9,3.8,2.4,6,1.7c4.5-1.6,6.5-7.1,9.5-10.9,4.3-5.4,8.7-9.8,15.9-9.1-4.6,6.1-1.3,12.2-1.4,18-.1,3.4,2,2.4,3.2,1.3A75.9,75.9,0,0,0,745.9,53.6Zm-270-1.5c-.3-3.3-1.7-4.9-4-4.2-4,1.3-6.9,4.5-7.4,10.3-.3,3,.8,5.3,3.3,4.5C472.1,61.4,474.9,57.7,475.9,52.1Zm133.4,9.4c3.3-1.3,5.2-4.5,5.5-9.1.2-2.7-.3-5.8-2.8-5.1s-5.2,4.7-5.4,9.3C606.4,59,606.9,61.1,609.3,61.5ZM546.2,47.1c-2.9.5-4.7,2.5-6.5,4.4s-2.4,3.2-1.2,5.7,1.3,3.7,3,3.8,2.9-2.3,3.4-4.3S546.7,51,546.2,47.1Zm-49.2.7c-2.8.1-4.6,2.4-6.6,4.4a4.9,4.9,0,0,0-.9,5.8c.7,1.7,1.4,3.6,3.2,3.5s2.4-2,3-3.8A21.1,21.1,0,0,0,497,47.8Zm69.6,13.1c3.6-1.5,3.8-6,4.5-10,.2-1.5.6-4.2-1.4-3.5s-5.8,2.8-6.4,7.1A5.6,5.6,0,0,0,566.6,60.9ZM686,46.1c-3-.2-4.4,1.7-5.9,3s-3.3,3-2.4,6.1,1.4,4.4,3.4,4.4,2.9-2.8,3.5-5.1A77.2,77.2,0,0,0,686,46.1Zm45.1-.3c-2.9-.3-4.6,2.3-6.5,4.4s-1.4,3.9-.5,6,1.4,3,2.8,3,2.6-1.8,3.1-3.7S732.1,49.4,731.1,45.8ZM519.9,56.2c2.3-1.2,4.9-2.2,4.9-6.6,0-1.7-1-2.4-2.2-2.1-3,.5-4.4,3.4-5,6.8S518.7,56.2,519.9,56.2Z" fill="#c73237" stroke="#000" stroke-miterlimit="10"/><path d="M356.2,54.7c4-2.7,7.5-6,11.6-7.1s5.6-.7,3.5,5l-.3.8c-.8,3.3-3.3,7.8-.2,9.9s4.7-3.1,6.2-6.4c3.5-7.2,8.6-10.8,14.9-11.5,2.3-.2,5-.4,5.8,3.6a7.5,7.5,0,0,1-3,7.7,99.1,99.1,0,0,1-9.6,5.5c7.3,4.7,12.4,1.9,17.1-4.7-1.3,14.3-15.8,22.2-24.4,13.5-1.6-1.7-2.4-3.3-4.5-.9s-7.2,7.4-10.9,2.8-1.1-11,1.3-16.1a12.3,12.3,0,0,0,.9-2.3C358,55.7,354.2,60.2,353,68c-.4,2.9,0,6.9-3.6,6.4s-4.1-3.6-4.2-7.4a26.9,26.9,0,0,1,1.6-9.8c3.9-10,9-18.6,15.6-25.6,1.9-2,4.2-5.1,6.7-1.5s.6,6.9-1.3,9.8a23.5,23.5,0,0,1-7.2,6.9C358.2,48.2,356.1,49.8,356.2,54.7Zm36-3.3c-.2-1.5-.8-2.9-2.4-2.6s-3.9,2.9-4.7,6c-.4,1.5,0,2.9,1.4,2.7S391.3,55.4,392.2,51.4Z" fill="#c73237" stroke="#000" stroke-miterlimit="10"/><path d="M445,22.5c9.9-.5,13.7,6.5,10.2,18.7-1.3,4.8-.9,10.1-2.7,14.8-4.2,11.1-10.4,18.7-20.1,19.6S417.1,67.8,418,55.3C419.2,38.6,432,23.1,445,22.5Zm6.8,24.6c-2.4-1.2-5.2,1.8-6.2-1.7s2.3-3.5,3.3-5.5,3.4-6.7,1.5-10.9-4.7-3.5-7.4-3c-8.1,1.3-15,12.9-14.9,25.1,0,10.6,5.5,15.7,12.9,11.8C446.2,60.1,449.5,54.7,451.8,47.1Z" fill="#c73237" stroke="#000" stroke-miterlimit="10"/><path d="M337.4,31.1c-4.3-1-8.2.7-12,2.3s-4,3.5-3,7.2.6,5.8-2.2,6.2-4.1-2.7-4.5-5.9c-.5-5.2,2-7.9,5.2-9.5,5.6-2.9,11.5-3.5,17.5-4.4s10.5.6,12.9-7.7c.6-2.1,2.5-2.6,3.6-.3s1,5.1-.9,6.9-5.5,2.9-8.5,3.2-5.4,2.5-5.3,8c0,10-.3,20-4.6,28.8a26.5,26.5,0,0,1-7.2,9.4c-3.4,2.6-6.1,1.6-8.4-2.3s-2.6-7.9.1-11.5,5.2-5.8,7.8-8.8C332.9,47.1,336.8,40.6,337.4,31.1Z" fill="#c73237" stroke="#000" stroke-miterlimit="10"/><path d="M671.6,26c2.1.6,4.6.9,4.2,4.8s-3.2,4.8-5.9,4.9-4.1-.7-3.9-4.1S669,26.7,671.6,26Z" fill="#c73237" stroke="#000" stroke-miterlimit="10"/><path d="M598.7,36.5c-2.6,0-4.7-.1-4.9-3.5s2.2-5.7,4.9-6.1,4.7.5,4.7,4S600.7,35.9,598.7,36.5Z" fill="#c73237" stroke="#000" stroke-miterlimit="10"/></svg>